{"glyphs":{"0":{"ha":1389,"x_min":0,"x_max":1215,"o":"m 347 1302 l 347 1389 l 608 1389 l 868 1389 l 868 1302 l 868 1215 l 955 1215 l 1042 1215 l 1042 1128 l 1042 1042 l 1128 1042 l 1215 1042 l 1215 781 l 1215 521 l 1128 521 l 1042 521 l 1042 434 l 1042 347 l 955 347 l 868 347 l 868 260 l 868 174 l 608 174 l 347 174 l 347 260 l 347 347 l 260 347 l 174 347 l 174 434 l 174 521 l 87 521 l 0 521 l 0 781 l 0 1042 l 87 1042 l 174 1042 l 174 1128 l 174 1215 l 260 1215 l 347 1215 l 347 1302 m 694 1128 l 694 1215 l 521 1215 l 347 1215 l 347 868 l 347 521 l 434 521 l 521 521 l 521 434 l 521 347 l 694 347 l 868 347 l 868 694 l 868 1042 l 781 1042 l 694 1042 l 694 1128 z "},"1":{"ha":1389,"x_min":174,"x_max":1215,"o":"m 521 1302 l 521 1389 l 694 1389 l 868 1389 l 868 868 l 868 347 l 1042 347 l 1215 347 l 1215 260 l 1215 174 l 694 174 l 174 174 l 174 260 l 174 347 l 347 347 l 521 347 l 521 694 l 521 1042 l 434 1042 l 347 1042 l 347 1128 l 347 1215 l 434 1215 l 521 1215 l 521 1302 z "},"2":{"ha":1389,"x_min":0,"x_max":1215,"o":"m 174 1302 l 174 1389 l 608 1389 l 1042 1389 l 1042 1302 l 1042 1215 l 1128 1215 l 1215 1215 l 1215 1042 l 1215 868 l 1128 868 l 1042 868 l 1042 781 l 1042 694 l 955 694 l 868 694 l 868 608 l 868 521 l 694 521 l 521 521 l 521 434 l 521 347 l 868 347 l 1215 347 l 1215 260 l 1215 174 l 608 174 l 0 174 l 0 347 l 0 521 l 87 521 l 174 521 l 174 608 l 174 694 l 260 694 l 347 694 l 347 781 l 347 868 l 521 868 l 694 868 l 694 955 l 694 1042 l 781 1042 l 868 1042 l 868 1128 l 868 1215 l 608 1215 l 347 1215 l 347 1128 l 347 1042 l 174 1042 l 0 1042 l 0 1128 l 0 1215 l 87 1215 l 174 1215 l 174 1302 z "},"3":{"ha":1389,"x_min":0,"x_max":1215,"o":"m 174 1302 l 174 1389 l 694 1389 l 1215 1389 l 1215 1302 l 1215 1215 l 1128 1215 l 1042 1215 l 1042 1128 l 1042 1042 l 955 1042 l 868 1042 l 868 955 l 868 868 l 955 868 l 1042 868 l 1042 781 l 1042 694 l 1128 694 l 1215 694 l 1215 521 l 1215 347 l 1128 347 l 1042 347 l 1042 260 l 1042 174 l 608 174 l 174 174 l 174 260 l 174 347 l 87 347 l 0 347 l 0 434 l 0 521 l 174 521 l 347 521 l 347 434 l 347 347 l 608 347 l 868 347 l 868 521 l 868 694 l 608 694 l 347 694 l 347 781 l 347 868 l 434 868 l 521 868 l 521 955 l 521 1042 l 608 1042 l 694 1042 l 694 1128 l 694 1215 l 434 1215 l 174 1215 l 174 1302 z "},"4":{"ha":1389,"x_min":0,"x_max":1215,"o":"m 521 1302 l 521 1389 l 781 1389 l 1042 1389 l 1042 1042 l 1042 694 l 1128 694 l 1215 694 l 1215 608 l 1215 521 l 1128 521 l 1042 521 l 1042 347 l 1042 174 l 868 174 l 694 174 l 694 347 l 694 521 l 347 521 l 0 521 l 0 694 l 0 868 l 87 868 l 174 868 l 174 955 l 174 1042 l 260 1042 l 347 1042 l 347 1128 l 347 1215 l 434 1215 l 521 1215 l 521 1302 m 694 868 l 694 1042 l 608 1042 l 521 1042 l 521 955 l 521 868 l 434 868 l 347 868 l 347 781 l 347 694 l 521 694 l 694 694 l 694 868 z "},"5":{"ha":1389,"x_min":0,"x_max":1215,"o":"m 0 1128 l 0 1389 l 521 1389 l 1042 1389 l 1042 1302 l 1042 1215 l 694 1215 l 347 1215 l 347 1128 l 347 1042 l 694 1042 l 1042 1042 l 1042 955 l 1042 868 l 1128 868 l 1215 868 l 1215 608 l 1215 347 l 1128 347 l 1042 347 l 1042 260 l 1042 174 l 608 174 l 174 174 l 174 260 l 174 347 l 87 347 l 0 347 l 0 434 l 0 521 l 174 521 l 347 521 l 347 434 l 347 347 l 608 347 l 868 347 l 868 608 l 868 868 l 434 868 l 0 868 l 0 1128 z "},"6":{"ha":1389,"x_min":0,"x_max":1215,"o":"m 347 1302 l 347 1389 l 694 1389 l 1042 1389 l 1042 1302 l 1042 1215 l 781 1215 l 521 1215 l 521 1128 l 521 1042 l 434 1042 l 347 1042 l 347 955 l 347 868 l 694 868 l 1042 868 l 1042 781 l 1042 694 l 1128 694 l 1215 694 l 1215 521 l 1215 347 l 1128 347 l 1042 347 l 1042 260 l 1042 174 l 608 174 l 174 174 l 174 260 l 174 347 l 87 347 l 0 347 l 0 694 l 0 1042 l 87 1042 l 174 1042 l 174 1128 l 174 1215 l 260 1215 l 347 1215 l 347 1302 m 868 521 l 868 694 l 608 694 l 347 694 l 347 521 l 347 347 l 608 347 l 868 347 l 868 521 z "},"7":{"ha":1389,"x_min":0,"x_max":1215,"o":"m 0 1215 l 0 1389 l 608 1389 l 1215 1389 l 1215 1215 l 1215 1042 l 1128 1042 l 1042 1042 l 1042 955 l 1042 868 l 955 868 l 868 868 l 868 781 l 868 694 l 781 694 l 694 694 l 694 434 l 694 174 l 521 174 l 347 174 l 347 434 l 347 694 l 434 694 l 521 694 l 521 781 l 521 868 l 608 868 l 694 868 l 694 955 l 694 1042 l 781 1042 l 868 1042 l 868 1128 l 868 1215 l 608 1215 l 347 1215 l 347 1128 l 347 1042 l 174 1042 l 0 1042 l 0 1215 z "},"8":{"ha":1389,"x_min":0,"x_max":1215,"o":"m 174 1302 l 174 1389 l 521 1389 l 868 1389 l 868 1302 l 868 1215 l 955 1215 l 1042 1215 l 1042 1042 l 1042 868 l 955 868 l 868 868 l 868 781 l 868 694 l 1042 694 l 1215 694 l 1215 521 l 1215 347 l 1128 347 l 1042 347 l 1042 260 l 1042 174 l 608 174 l 174 174 l 174 260 l 174 347 l 87 347 l 0 347 l 0 521 l 0 694 l 87 694 l 174 694 l 174 781 l 174 868 l 87 868 l 0 868 l 0 1042 l 0 1215 l 87 1215 l 174 1215 l 174 1302 m 868 1042 l 868 1215 l 608 1215 l 347 1215 l 347 1128 l 347 1042 l 434 1042 l 521 1042 l 521 955 l 521 868 l 694 868 l 868 868 l 868 1042 m 521 608 l 521 694 l 347 694 l 174 694 l 174 521 l 174 347 l 521 347 l 868 347 l 868 434 l 868 521 l 694 521 l 521 521 l 521 608 z "},"9":{"ha":1389,"x_min":0,"x_max":1215,"o":"m 174 1302 l 174 1389 l 608 1389 l 1042 1389 l 1042 1302 l 1042 1215 l 1128 1215 l 1215 1215 l 1215 868 l 1215 521 l 1128 521 l 1042 521 l 1042 434 l 1042 347 l 955 347 l 868 347 l 868 260 l 868 174 l 521 174 l 174 174 l 174 260 l 174 347 l 434 347 l 694 347 l 694 434 l 694 521 l 781 521 l 868 521 l 868 608 l 868 694 l 521 694 l 174 694 l 174 781 l 174 868 l 87 868 l 0 868 l 0 1042 l 0 1215 l 87 1215 l 174 1215 l 174 1302 m 868 1042 l 868 1215 l 608 1215 l 347 1215 l 347 1042 l 347 868 l 608 868 l 868 868 l 868 1042 z "}," ":{"ha":1389,"x_min":0,"x_max":0,"o":""},"!":{"ha":1389,"x_min":347,"x_max":868,"o":"m 347 260 l 347 347 l 521 347 l 694 347 l 694 260 l 694 174 l 521 174 l 347 174 l 347 260 m 347 955 l 347 1389 l 608 1389 l 868 1389 l 868 1128 l 868 868 l 781 868 l 694 868 l 694 694 l 694 521 l 521 521 l 347 521 l 347 955 z "},"\"":{"ha":1389,"x_min":174,"x_max":1042,"o":"m 694 1128 l 694 1389 l 868 1389 l 1042 1389 l 1042 1128 l 1042 868 l 868 868 l 694 868 l 694 1128 m 174 1128 l 174 1389 l 347 1389 l 521 1389 l 521 1128 l 521 868 l 347 868 l 174 868 l 174 1128 z "},"#":{"ha":1389,"x_min":0,"x_max":1215,"o":"m 174 1302 l 174 1389 l 347 1389 l 521 1389 l 521 1302 l 521 1215 l 608 1215 l 694 1215 l 694 1302 l 694 1389 l 868 1389 l 1042 1389 l 1042 1302 l 1042 1215 l 1128 1215 l 1215 1215 l 1215 1128 l 1215 1042 l 1128 1042 l 1042 1042 l 1042 781 l 1042 521 l 1128 521 l 1215 521 l 1215 434 l 1215 347 l 1128 347 l 1042 347 l 1042 260 l 1042 174 l 868 174 l 694 174 l 694 260 l 694 347 l 608 347 l 521 347 l 521 260 l 521 174 l 347 174 l 174 174 l 174 260 l 174 347 l 87 347 l 0 347 l 0 434 l 0 521 l 87 521 l 174 521 l 174 781 l 174 1042 l 87 1042 l 0 1042 l 0 1128 l 0 1215 l 87 1215 l 174 1215 l 174 1302 m 694 781 l 694 1042 l 608 1042 l 521 1042 l 521 781 l 521 521 l 608 521 l 694 521 l 694 781 z "},"$":{"ha":1389,"x_min":0,"x_max":1215,"o":"m 521 1302 l 521 1389 l 608 1389 l 694 1389 l 694 1302 l 694 1215 l 868 1215 l 1042 1215 l 1042 1128 l 1042 1042 l 868 1042 l 694 1042 l 694 955 l 694 868 l 868 868 l 1042 868 l 1042 781 l 1042 694 l 1128 694 l 1215 694 l 1215 608 l 1215 521 l 1128 521 l 1042 521 l 1042 434 l 1042 347 l 868 347 l 694 347 l 694 260 l 694 174 l 608 174 l 521 174 l 521 260 l 521 347 l 260 347 l 0 347 l 0 434 l 0 521 l 260 521 l 521 521 l 521 608 l 521 694 l 347 694 l 174 694 l 174 781 l 174 868 l 87 868 l 0 868 l 0 955 l 0 1042 l 87 1042 l 174 1042 l 174 1128 l 174 1215 l 347 1215 l 521 1215 l 521 1302 m 521 955 l 521 1042 l 434 1042 l 347 1042 l 347 955 l 347 868 l 434 868 l 521 868 l 521 955 m 868 608 l 868 694 l 781 694 l 694 694 l 694 608 l 694 521 l 781 521 l 868 521 l 868 608 z "},"%":{"ha":1389,"x_min":0,"x_max":1215,"o":"m 868 608 l 868 694 l 1042 694 l 1215 694 l 1215 521 l 1215 347 l 1128 347 l 1042 347 l 1042 260 l 1042 174 l 868 174 l 694 174 l 694 347 l 694 521 l 781 521 l 868 521 l 868 608 m 1042 434 l 1042 521 l 955 521 l 868 521 l 868 434 l 868 347 l 955 347 l 1042 347 l 1042 434 m 1042 1302 l 1042 1389 l 1128 1389 l 1215 1389 l 1215 1302 l 1215 1215 l 1128 1215 l 1042 1215 l 1042 1128 l 1042 1042 l 955 1042 l 868 1042 l 868 955 l 868 868 l 781 868 l 694 868 l 694 781 l 694 694 l 608 694 l 521 694 l 521 608 l 521 521 l 434 521 l 347 521 l 347 434 l 347 347 l 260 347 l 174 347 l 174 260 l 174 174 l 87 174 l 0 174 l 0 260 l 0 347 l 87 347 l 174 347 l 174 434 l 174 521 l 260 521 l 347 521 l 347 608 l 347 694 l 434 694 l 521 694 l 521 781 l 521 868 l 608 868 l 694 868 l 694 955 l 694 1042 l 781 1042 l 868 1042 l 868 1128 l 868 1215 l 955 1215 l 1042 1215 l 1042 1302 m 174 1302 l 174 1389 l 347 1389 l 521 1389 l 521 1215 l 521 1042 l 434 1042 l 347 1042 l 347 955 l 347 868 l 174 868 l 0 868 l 0 1042 l 0 1215 l 87 1215 l 174 1215 l 174 1302 m 347 1128 l 347 1215 l 260 1215 l 174 1215 l 174 1128 l 174 1042 l 260 1042 l 347 1042 l 347 1128 z "},"&":{"ha":1389,"x_min":0,"x_max":1215,"o":"m 174 1302 l 174 1389 l 434 1389 l 694 1389 l 694 1302 l 694 1215 l 781 1215 l 868 1215 l 868 1042 l 868 868 l 781 868 l 694 868 l 694 781 l 694 694 l 781 694 l 868 694 l 868 608 l 868 521 l 955 521 l 1042 521 l 1042 608 l 1042 694 l 1128 694 l 1215 694 l 1215 608 l 1215 521 l 1128 521 l 1042 521 l 1042 434 l 1042 347 l 1128 347 l 1215 347 l 1215 260 l 1215 174 l 694 174 l 174 174 l 174 260 l 174 347 l 87 347 l 0 347 l 0 521 l 0 694 l 87 694 l 174 694 l 174 781 l 174 868 l 87 868 l 0 868 l 0 1042 l 0 1215 l 87 1215 l 174 1215 l 174 1302 m 521 1042 l 521 1215 l 434 1215 l 347 1215 l 347 1042 l 347 868 l 434 868 l 521 868 l 521 1042 m 521 608 l 521 694 l 434 694 l 347 694 l 347 521 l 347 347 l 521 347 l 694 347 l 694 434 l 694 521 l 608 521 l 521 521 l 521 608 z "},"'":{"ha":1389,"x_min":347,"x_max":694,"o":"m 347 1128 l 347 1389 l 521 1389 l 694 1389 l 694 1128 l 694 868 l 521 868 l 347 868 l 347 1128 z "},"(":{"ha":1389,"x_min":347,"x_max":1042,"o":"m 694 1302 l 694 1389 l 868 1389 l 1042 1389 l 1042 1302 l 1042 1215 l 955 1215 l 868 1215 l 868 1128 l 868 1042 l 781 1042 l 694 1042 l 694 781 l 694 521 l 781 521 l 868 521 l 868 434 l 868 347 l 955 347 l 1042 347 l 1042 260 l 1042 174 l 868 174 l 694 174 l 694 260 l 694 347 l 608 347 l 521 347 l 521 434 l 521 521 l 434 521 l 347 521 l 347 781 l 347 1042 l 434 1042 l 521 1042 l 521 1128 l 521 1215 l 608 1215 l 694 1215 l 694 1302 z "},")":{"ha":1389,"x_min":174,"x_max":868,"o":"m 174 1302 l 174 1389 l 347 1389 l 521 1389 l 521 1302 l 521 1215 l 608 1215 l 694 1215 l 694 1128 l 694 1042 l 781 1042 l 868 1042 l 868 781 l 868 521 l 781 521 l 694 521 l 694 434 l 694 347 l 608 347 l 521 347 l 521 260 l 521 174 l 347 174 l 174 174 l 174 260 l 174 347 l 260 347 l 347 347 l 347 434 l 347 521 l 434 521 l 521 521 l 521 781 l 521 1042 l 434 1042 l 347 1042 l 347 1128 l 347 1215 l 260 1215 l 174 1215 l 174 1302 z "},"*":{"ha":1389,"x_min":0,"x_max":1215,"o":"m 174 1128 l 174 1215 l 347 1215 l 521 1215 l 521 1128 l 521 1042 l 608 1042 l 694 1042 l 694 1128 l 694 1215 l 868 1215 l 1042 1215 l 1042 1128 l 1042 1042 l 955 1042 l 868 1042 l 868 955 l 868 868 l 1042 868 l 1215 868 l 1215 781 l 1215 694 l 1042 694 l 868 694 l 868 608 l 868 521 l 955 521 l 1042 521 l 1042 434 l 1042 347 l 868 347 l 694 347 l 694 434 l 694 521 l 608 521 l 521 521 l 521 434 l 521 347 l 347 347 l 174 347 l 174 434 l 174 521 l 260 521 l 347 521 l 347 608 l 347 694 l 174 694 l 0 694 l 0 781 l 0 868 l 174 868 l 347 868 l 347 955 l 347 1042 l 260 1042 l 174 1042 l 174 1128 z "},"+":{"ha":1389,"x_min":174,"x_max":1215,"o":"m 521 1042 l 521 1215 l 694 1215 l 868 1215 l 868 1042 l 868 868 l 1042 868 l 1215 868 l 1215 781 l 1215 694 l 1042 694 l 868 694 l 868 521 l 868 347 l 694 347 l 521 347 l 521 521 l 521 694 l 347 694 l 174 694 l 174 781 l 174 868 l 347 868 l 521 868 l 521 1042 z "},",":{"ha":1389,"x_min":174,"x_max":694,"o":"m 347 347 l 347 521 l 521 521 l 694 521 l 694 347 l 694 174 l 608 174 l 521 174 l 521 87 l 521 0 l 347 0 l 174 0 l 174 87 l 174 174 l 260 174 l 347 174 l 347 347 z "},"-":{"ha":1389,"x_min":174,"x_max":1215,"o":"m 174 781 l 174 868 l 694 868 l 1215 868 l 1215 781 l 1215 694 l 694 694 l 174 694 l 174 781 z "},".":{"ha":1389,"x_min":347,"x_max":694,"o":"m 347 347 l 347 521 l 521 521 l 694 521 l 694 347 l 694 174 l 521 174 l 347 174 l 347 347 z "},"/":{"ha":1389,"x_min":0,"x_max":1215,"o":"m 1042 1302 l 1042 1389 l 1128 1389 l 1215 1389 l 1215 1302 l 1215 1215 l 1128 1215 l 1042 1215 l 1042 1128 l 1042 1042 l 955 1042 l 868 1042 l 868 955 l 868 868 l 781 868 l 694 868 l 694 781 l 694 694 l 608 694 l 521 694 l 521 608 l 521 521 l 434 521 l 347 521 l 347 434 l 347 347 l 260 347 l 174 347 l 174 260 l 174 174 l 87 174 l 0 174 l 0 260 l 0 347 l 87 347 l 174 347 l 174 434 l 174 521 l 260 521 l 347 521 l 347 608 l 347 694 l 434 694 l 521 694 l 521 781 l 521 868 l 608 868 l 694 868 l 694 955 l 694 1042 l 781 1042 l 868 1042 l 868 1128 l 868 1215 l 955 1215 l 1042 1215 l 1042 1302 z "},":":{"ha":1389,"x_min":347,"x_max":694,"o":"m 347 521 l 347 694 l 521 694 l 694 694 l 694 521 l 694 347 l 521 347 l 347 347 l 347 521 m 347 1042 l 347 1215 l 521 1215 l 694 1215 l 694 1042 l 694 868 l 521 868 l 347 868 l 347 1042 z "},";":{"ha":1389,"x_min":174,"x_max":694,"o":"m 347 521 l 347 694 l 521 694 l 694 694 l 694 521 l 694 347 l 608 347 l 521 347 l 521 260 l 521 174 l 347 174 l 174 174 l 174 260 l 174 347 l 260 347 l 347 347 l 347 521 m 347 1042 l 347 1215 l 521 1215 l 694 1215 l 694 1042 l 694 868 l 521 868 l 347 868 l 347 1042 z "},"<":{"ha":1389,"x_min":174,"x_max":1042,"o":"m 694 1302 l 694 1389 l 868 1389 l 1042 1389 l 1042 1302 l 1042 1215 l 955 1215 l 868 1215 l 868 1128 l 868 1042 l 781 1042 l 694 1042 l 694 955 l 694 868 l 608 868 l 521 868 l 521 781 l 521 694 l 608 694 l 694 694 l 694 608 l 694 521 l 781 521 l 868 521 l 868 434 l 868 347 l 955 347 l 1042 347 l 1042 260 l 1042 174 l 868 174 l 694 174 l 694 260 l 694 347 l 608 347 l 521 347 l 521 434 l 521 521 l 434 521 l 347 521 l 347 608 l 347 694 l 260 694 l 174 694 l 174 781 l 174 868 l 260 868 l 347 868 l 347 955 l 347 1042 l 434 1042 l 521 1042 l 521 1128 l 521 1215 l 608 1215 l 694 1215 l 694 1302 z "},"=":{"ha":1389,"x_min":0,"x_max":1215,"o":"m 0 608 l 0 694 l 608 694 l 1215 694 l 1215 608 l 1215 521 l 608 521 l 0 521 l 0 608 m 0 955 l 0 1042 l 608 1042 l 1215 1042 l 1215 955 l 1215 868 l 608 868 l 0 868 l 0 955 z "},">":{"ha":1389,"x_min":174,"x_max":1042,"o":"m 174 1302 l 174 1389 l 347 1389 l 521 1389 l 521 1302 l 521 1215 l 608 1215 l 694 1215 l 694 1128 l 694 1042 l 781 1042 l 868 1042 l 868 955 l 868 868 l 955 868 l 1042 868 l 1042 781 l 1042 694 l 955 694 l 868 694 l 868 608 l 868 521 l 781 521 l 694 521 l 694 434 l 694 347 l 608 347 l 521 347 l 521 260 l 521 174 l 347 174 l 174 174 l 174 260 l 174 347 l 260 347 l 347 347 l 347 434 l 347 521 l 434 521 l 521 521 l 521 608 l 521 694 l 608 694 l 694 694 l 694 781 l 694 868 l 608 868 l 521 868 l 521 955 l 521 1042 l 434 1042 l 347 1042 l 347 1128 l 347 1215 l 260 1215 l 174 1215 l 174 1302 z "},"?":{"ha":1389,"x_min":0,"x_max":1215,"o":"m 347 260 l 347 347 l 608 347 l 868 347 l 868 260 l 868 174 l 608 174 l 347 174 l 347 260 m 174 1302 l 174 1389 l 608 1389 l 1042 1389 l 1042 1302 l 1042 1215 l 1128 1215 l 1215 1215 l 1215 1042 l 1215 868 l 1128 868 l 1042 868 l 1042 781 l 1042 694 l 955 694 l 868 694 l 868 608 l 868 521 l 608 521 l 347 521 l 347 608 l 347 694 l 521 694 l 694 694 l 694 781 l 694 868 l 781 868 l 868 868 l 868 955 l 868 1042 l 608 1042 l 347 1042 l 347 955 l 347 868 l 174 868 l 0 868 l 0 1042 l 0 1215 l 87 1215 l 174 1215 l 174 1302 z "},"@":{"ha":1389,"x_min":0,"x_max":1215,"o":"m 174 1302 l 174 1389 l 608 1389 l 1042 1389 l 1042 1302 l 1042 1215 l 1128 1215 l 1215 1215 l 1215 868 l 1215 521 l 781 521 l 347 521 l 347 781 l 347 1042 l 608 1042 l 868 1042 l 868 868 l 868 694 l 955 694 l 1042 694 l 1042 955 l 1042 1215 l 608 1215 l 174 1215 l 174 781 l 174 347 l 608 347 l 1042 347 l 1042 260 l 1042 174 l 608 174 l 174 174 l 174 260 l 174 347 l 87 347 l 0 347 l 0 781 l 0 1215 l 87 1215 l 174 1215 l 174 1302 m 694 781 l 694 868 l 608 868 l 521 868 l 521 781 l 521 694 l 608 694 l 694 694 l 694 781 z "},"A":{"ha":1389,"x_min":0,"x_max":1215,"o":"m 347 1302 l 347 1389 l 608 1389 l 868 1389 l 868 1302 l 868 1215 l 955 1215 l 1042 1215 l 1042 1128 l 1042 1042 l 1128 1042 l 1215 1042 l 1215 608 l 1215 174 l 1042 174 l 868 174 l 868 347 l 868 521 l 608 521 l 347 521 l 347 347 l 347 174 l 174 174 l 0 174 l 0 608 l 0 1042 l 87 1042 l 174 1042 l 174 1128 l 174 1215 l 260 1215 l 347 1215 l 347 1302 m 694 1128 l 694 1215 l 608 1215 l 521 1215 l 521 1128 l 521 1042 l 434 1042 l 347 1042 l 347 868 l 347 694 l 608 694 l 868 694 l 868 868 l 868 1042 l 781 1042 l 694 1042 l 694 1128 z "},"B":{"ha":1389,"x_min":0,"x_max":1215,"o":"m 0 781 l 0 1389 l 521 1389 l 1042 1389 l 1042 1302 l 1042 1215 l 1128 1215 l 1215 1215 l 1215 1042 l 1215 868 l 1128 868 l 1042 868 l 1042 781 l 1042 694 l 1128 694 l 1215 694 l 1215 521 l 1215 347 l 1128 347 l 1042 347 l 1042 260 l 1042 174 l 521 174 l 0 174 l 0 781 m 868 1042 l 868 1215 l 608 1215 l 347 1215 l 347 1042 l 347 868 l 608 868 l 868 868 l 868 1042 m 868 521 l 868 694 l 608 694 l 347 694 l 347 521 l 347 347 l 608 347 l 868 347 l 868 521 z "},"C":{"ha":1389,"x_min":0,"x_max":1215,"o":"m 347 1302 l 347 1389 l 694 1389 l 1042 1389 l 1042 1302 l 1042 1215 l 1128 1215 l 1215 1215 l 1215 1128 l 1215 1042 l 1042 1042 l 868 1042 l 868 1128 l 868 1215 l 694 1215 l 521 1215 l 521 1128 l 521 1042 l 434 1042 l 347 1042 l 347 781 l 347 521 l 434 521 l 521 521 l 521 434 l 521 347 l 694 347 l 868 347 l 868 434 l 868 521 l 1042 521 l 1215 521 l 1215 434 l 1215 347 l 1128 347 l 1042 347 l 1042 260 l 1042 174 l 694 174 l 347 174 l 347 260 l 347 347 l 260 347 l 174 347 l 174 434 l 174 521 l 87 521 l 0 521 l 0 781 l 0 1042 l 87 1042 l 174 1042 l 174 1128 l 174 1215 l 260 1215 l 347 1215 l 347 1302 z "},"D":{"ha":1389,"x_min":0,"x_max":1215,"o":"m 0 781 l 0 1389 l 434 1389 l 868 1389 l 868 1302 l 868 1215 l 955 1215 l 1042 1215 l 1042 1128 l 1042 1042 l 1128 1042 l 1215 1042 l 1215 781 l 1215 521 l 1128 521 l 1042 521 l 1042 434 l 1042 347 l 955 347 l 868 347 l 868 260 l 868 174 l 434 174 l 0 174 l 0 781 m 694 1128 l 694 1215 l 521 1215 l 347 1215 l 347 781 l 347 347 l 521 347 l 694 347 l 694 434 l 694 521 l 781 521 l 868 521 l 868 781 l 868 1042 l 781 1042 l 694 1042 l 694 1128 z "},"E":{"ha":1389,"x_min":0,"x_max":1215,"o":"m 0 781 l 0 1389 l 608 1389 l 1215 1389 l 1215 1302 l 1215 1215 l 781 1215 l 347 1215 l 347 1042 l 347 868 l 694 868 l 1042 868 l 1042 781 l 1042 694 l 694 694 l 347 694 l 347 521 l 347 347 l 781 347 l 1215 347 l 1215 260 l 1215 174 l 608 174 l 0 174 l 0 781 z "},"F":{"ha":1389,"x_min":0,"x_max":1215,"o":"m 0 781 l 0 1389 l 608 1389 l 1215 1389 l 1215 1302 l 1215 1215 l 781 1215 l 347 1215 l 347 1042 l 347 868 l 694 868 l 1042 868 l 1042 781 l 1042 694 l 694 694 l 347 694 l 347 434 l 347 174 l 174 174 l 0 174 l 0 781 z "},"G":{"ha":1389,"x_min":0,"x_max":1215,"o":"m 347 1302 l 347 1389 l 781 1389 l 1215 1389 l 1215 1302 l 1215 1215 l 868 1215 l 521 1215 l 521 1128 l 521 1042 l 434 1042 l 347 1042 l 347 781 l 347 521 l 434 521 l 521 521 l 521 434 l 521 347 l 694 347 l 868 347 l 868 521 l 868 694 l 781 694 l 694 694 l 694 781 l 694 868 l 955 868 l 1215 868 l 1215 521 l 1215 174 l 781 174 l 347 174 l 347 260 l 347 347 l 260 347 l 174 347 l 174 434 l 174 521 l 87 521 l 0 521 l 0 781 l 0 1042 l 87 1042 l 174 1042 l 174 1128 l 174 1215 l 260 1215 l 347 1215 l 347 1302 z "},"H":{"ha":1389,"x_min":0,"x_max":1215,"o":"m 0 781 l 0 1389 l 174 1389 l 347 1389 l 347 1128 l 347 868 l 608 868 l 868 868 l 868 1128 l 868 1389 l 1042 1389 l 1215 1389 l 1215 781 l 1215 174 l 1042 174 l 868 174 l 868 434 l 868 694 l 608 694 l 347 694 l 347 434 l 347 174 l 174 174 l 0 174 l 0 781 z "},"I":{"ha":1389,"x_min":174,"x_max":1215,"o":"m 174 1302 l 174 1389 l 694 1389 l 1215 1389 l 1215 1302 l 1215 1215 l 1042 1215 l 868 1215 l 868 781 l 868 347 l 1042 347 l 1215 347 l 1215 260 l 1215 174 l 694 174 l 174 174 l 174 260 l 174 347 l 347 347 l 521 347 l 521 781 l 521 1215 l 347 1215 l 174 1215 l 174 1302 z "},"J":{"ha":1389,"x_min":0,"x_max":1215,"o":"m 868 868 l 868 1389 l 1042 1389 l 1215 1389 l 1215 868 l 1215 347 l 1128 347 l 1042 347 l 1042 260 l 1042 174 l 608 174 l 174 174 l 174 260 l 174 347 l 87 347 l 0 347 l 0 434 l 0 521 l 174 521 l 347 521 l 347 434 l 347 347 l 608 347 l 868 347 l 868 868 z "},"K":{"ha":1389,"x_min":0,"x_max":1215,"o":"m 0 781 l 0 1389 l 174 1389 l 347 1389 l 347 1128 l 347 868 l 434 868 l 521 868 l 521 955 l 521 1042 l 608 1042 l 694 1042 l 694 1128 l 694 1215 l 781 1215 l 868 1215 l 868 1302 l 868 1389 l 1042 1389 l 1215 1389 l 1215 1302 l 1215 1215 l 1128 1215 l 1042 1215 l 1042 1128 l 1042 1042 l 955 1042 l 868 1042 l 868 955 l 868 868 l 781 868 l 694 868 l 694 781 l 694 694 l 781 694 l 868 694 l 868 608 l 868 521 l 955 521 l 1042 521 l 1042 434 l 1042 347 l 1128 347 l 1215 347 l 1215 260 l 1215 174 l 955 174 l 694 174 l 694 260 l 694 347 l 608 347 l 521 347 l 521 434 l 521 521 l 434 521 l 347 521 l 347 347 l 347 174 l 174 174 l 0 174 l 0 781 z "},"L":{"ha":1389,"x_min":174,"x_max":1215,"o":"m 174 781 l 174 1389 l 347 1389 l 521 1389 l 521 868 l 521 347 l 868 347 l 1215 347 l 1215 260 l 1215 174 l 694 174 l 174 174 l 174 781 z "},"M":{"ha":1389,"x_min":0,"x_max":1215,"o":"m 0 781 l 0 1389 l 174 1389 l 347 1389 l 347 1302 l 347 1215 l 434 1215 l 521 1215 l 521 1128 l 521 1042 l 608 1042 l 694 1042 l 694 1128 l 694 1215 l 781 1215 l 868 1215 l 868 1302 l 868 1389 l 1042 1389 l 1215 1389 l 1215 781 l 1215 174 l 1042 174 l 868 174 l 868 434 l 868 694 l 781 694 l 694 694 l 694 608 l 694 521 l 608 521 l 521 521 l 521 608 l 521 694 l 434 694 l 347 694 l 347 434 l 347 174 l 174 174 l 0 174 l 0 781 z "},"N":{"ha":1389,"x_min":0,"x_max":1215,"o":"m 0 781 l 0 1389 l 174 1389 l 347 1389 l 347 1302 l 347 1215 l 434 1215 l 521 1215 l 521 1128 l 521 1042 l 608 1042 l 694 1042 l 694 955 l 694 868 l 781 868 l 868 868 l 868 1128 l 868 1389 l 1042 1389 l 1215 1389 l 1215 781 l 1215 174 l 1042 174 l 868 174 l 868 260 l 868 347 l 781 347 l 694 347 l 694 434 l 694 521 l 608 521 l 521 521 l 521 608 l 521 694 l 434 694 l 347 694 l 347 434 l 347 174 l 174 174 l 0 174 l 0 781 z "},"O":{"ha":1389,"x_min":0,"x_max":1215,"o":"m 174 1302 l 174 1389 l 608 1389 l 1042 1389 l 1042 1302 l 1042 1215 l 1128 1215 l 1215 1215 l 1215 781 l 1215 347 l 1128 347 l 1042 347 l 1042 260 l 1042 174 l 608 174 l 174 174 l 174 260 l 174 347 l 87 347 l 0 347 l 0 781 l 0 1215 l 87 1215 l 174 1215 l 174 1302 m 868 781 l 868 1215 l 608 1215 l 347 1215 l 347 781 l 347 347 l 608 347 l 868 347 l 868 781 z "},"P":{"ha":1389,"x_min":0,"x_max":1215,"o":"m 0 781 l 0 1389 l 521 1389 l 1042 1389 l 1042 1302 l 1042 1215 l 1128 1215 l 1215 1215 l 1215 955 l 1215 694 l 1128 694 l 1042 694 l 1042 608 l 1042 521 l 694 521 l 347 521 l 347 347 l 347 174 l 174 174 l 0 174 l 0 781 m 868 955 l 868 1215 l 608 1215 l 347 1215 l 347 955 l 347 694 l 608 694 l 868 694 l 868 955 z "},"Q":{"ha":1389,"x_min":0,"x_max":1215,"o":"m 174 1302 l 174 1389 l 608 1389 l 1042 1389 l 1042 1302 l 1042 1215 l 1128 1215 l 1215 1215 l 1215 868 l 1215 521 l 1128 521 l 1042 521 l 1042 434 l 1042 347 l 1128 347 l 1215 347 l 1215 260 l 1215 174 l 1128 174 l 1042 174 l 1042 260 l 1042 347 l 955 347 l 868 347 l 868 260 l 868 174 l 521 174 l 174 174 l 174 260 l 174 347 l 87 347 l 0 347 l 0 781 l 0 1215 l 87 1215 l 174 1215 l 174 1302 m 868 955 l 868 1215 l 608 1215 l 347 1215 l 347 781 l 347 347 l 521 347 l 694 347 l 694 434 l 694 521 l 608 521 l 521 521 l 521 608 l 521 694 l 694 694 l 868 694 l 868 955 z "},"R":{"ha":1389,"x_min":0,"x_max":1215,"o":"m 0 781 l 0 1389 l 521 1389 l 1042 1389 l 1042 1302 l 1042 1215 l 1128 1215 l 1215 1215 l 1215 955 l 1215 694 l 1042 694 l 868 694 l 868 608 l 868 521 l 955 521 l 1042 521 l 1042 434 l 1042 347 l 1128 347 l 1215 347 l 1215 260 l 1215 174 l 955 174 l 694 174 l 694 260 l 694 347 l 608 347 l 521 347 l 521 434 l 521 521 l 434 521 l 347 521 l 347 347 l 347 174 l 174 174 l 0 174 l 0 781 m 868 1042 l 868 1215 l 608 1215 l 347 1215 l 347 955 l 347 694 l 521 694 l 694 694 l 694 781 l 694 868 l 781 868 l 868 868 l 868 1042 z "},"S":{"ha":1389,"x_min":0,"x_max":1215,"o":"m 174 1302 l 174 1389 l 521 1389 l 868 1389 l 868 1302 l 868 1215 l 955 1215 l 1042 1215 l 1042 1128 l 1042 1042 l 868 1042 l 694 1042 l 694 1128 l 694 1215 l 521 1215 l 347 1215 l 347 1042 l 347 868 l 694 868 l 1042 868 l 1042 781 l 1042 694 l 1128 694 l 1215 694 l 1215 521 l 1215 347 l 1128 347 l 1042 347 l 1042 260 l 1042 174 l 608 174 l 174 174 l 174 260 l 174 347 l 87 347 l 0 347 l 0 434 l 0 521 l 174 521 l 347 521 l 347 434 l 347 347 l 608 347 l 868 347 l 868 521 l 868 694 l 521 694 l 174 694 l 174 781 l 174 868 l 87 868 l 0 868 l 0 1042 l 0 1215 l 87 1215 l 174 1215 l 174 1302 z "},"T":{"ha":1389,"x_min":174,"x_max":1215,"o":"m 174 1302 l 174 1389 l 694 1389 l 1215 1389 l 1215 1302 l 1215 1215 l 1042 1215 l 868 1215 l 868 694 l 868 174 l 694 174 l 521 174 l 521 694 l 521 1215 l 347 1215 l 174 1215 l 174 1302 z "},"U":{"ha":1389,"x_min":0,"x_max":1215,"o":"m 0 868 l 0 1389 l 174 1389 l 347 1389 l 347 868 l 347 347 l 608 347 l 868 347 l 868 868 l 868 1389 l 1042 1389 l 1215 1389 l 1215 868 l 1215 347 l 1128 347 l 1042 347 l 1042 260 l 1042 174 l 608 174 l 174 174 l 174 260 l 174 347 l 87 347 l 0 347 l 0 868 z "},"V":{"ha":1389,"x_min":0,"x_max":1215,"o":"m 0 1042 l 0 1389 l 174 1389 l 347 1389 l 347 1128 l 347 868 l 434 868 l 521 868 l 521 781 l 521 694 l 608 694 l 694 694 l 694 781 l 694 868 l 781 868 l 868 868 l 868 1128 l 868 1389 l 1042 1389 l 1215 1389 l 1215 1042 l 1215 694 l 1128 694 l 1042 694 l 1042 608 l 1042 521 l 955 521 l 868 521 l 868 434 l 868 347 l 781 347 l 694 347 l 694 260 l 694 174 l 608 174 l 521 174 l 521 260 l 521 347 l 434 347 l 347 347 l 347 434 l 347 521 l 260 521 l 174 521 l 174 608 l 174 694 l 87 694 l 0 694 l 0 1042 z "},"W":{"ha":1389,"x_min":0,"x_max":1215,"o":"m 0 781 l 0 1389 l 174 1389 l 347 1389 l 347 1128 l 347 868 l 434 868 l 521 868 l 521 955 l 521 1042 l 608 1042 l 694 1042 l 694 955 l 694 868 l 781 868 l 868 868 l 868 1128 l 868 1389 l 1042 1389 l 1215 1389 l 1215 781 l 1215 174 l 1042 174 l 868 174 l 868 260 l 868 347 l 781 347 l 694 347 l 694 434 l 694 521 l 608 521 l 521 521 l 521 434 l 521 347 l 434 347 l 347 347 l 347 260 l 347 174 l 174 174 l 0 174 l 0 781 z "},"X":{"ha":1389,"x_min":0,"x_max":1215,"o":"m 0 1215 l 0 1389 l 174 1389 l 347 1389 l 347 1302 l 347 1215 l 434 1215 l 521 1215 l 521 1128 l 521 1042 l 608 1042 l 694 1042 l 694 1128 l 694 1215 l 781 1215 l 868 1215 l 868 1302 l 868 1389 l 1042 1389 l 1215 1389 l 1215 1215 l 1215 1042 l 1128 1042 l 1042 1042 l 1042 955 l 1042 868 l 955 868 l 868 868 l 868 781 l 868 694 l 955 694 l 1042 694 l 1042 608 l 1042 521 l 1128 521 l 1215 521 l 1215 347 l 1215 174 l 1042 174 l 868 174 l 868 260 l 868 347 l 781 347 l 694 347 l 694 434 l 694 521 l 608 521 l 521 521 l 521 434 l 521 347 l 434 347 l 347 347 l 347 260 l 347 174 l 174 174 l 0 174 l 0 347 l 0 521 l 87 521 l 174 521 l 174 608 l 174 694 l 260 694 l 347 694 l 347 781 l 347 868 l 260 868 l 174 868 l 174 955 l 174 1042 l 87 1042 l 0 1042 l 0 1215 z "},"Y":{"ha":1389,"x_min":174,"x_max":1215,"o":"m 174 1128 l 174 1389 l 347 1389 l 521 1389 l 521 1128 l 521 868 l 694 868 l 868 868 l 868 1128 l 868 1389 l 1042 1389 l 1215 1389 l 1215 1128 l 1215 868 l 1128 868 l 1042 868 l 1042 781 l 1042 694 l 955 694 l 868 694 l 868 434 l 868 174 l 694 174 l 521 174 l 521 434 l 521 694 l 434 694 l 347 694 l 347 781 l 347 868 l 260 868 l 174 868 l 174 1128 z "},"Z":{"ha":1389,"x_min":0,"x_max":1215,"o":"m 0 1302 l 0 1389 l 608 1389 l 1215 1389 l 1215 1215 l 1215 1042 l 1128 1042 l 1042 1042 l 1042 955 l 1042 868 l 955 868 l 868 868 l 868 781 l 868 694 l 781 694 l 694 694 l 694 608 l 694 521 l 608 521 l 521 521 l 521 434 l 521 347 l 868 347 l 1215 347 l 1215 260 l 1215 174 l 608 174 l 0 174 l 0 347 l 0 521 l 87 521 l 174 521 l 174 608 l 174 694 l 260 694 l 347 694 l 347 781 l 347 868 l 434 868 l 521 868 l 521 955 l 521 1042 l 608 1042 l 694 1042 l 694 1128 l 694 1215 l 347 1215 l 0 1215 l 0 1302 z "},"[":{"ha":1389,"x_min":347,"x_max":1042,"o":"m 347 781 l 347 1389 l 694 1389 l 1042 1389 l 1042 1302 l 1042 1215 l 868 1215 l 694 1215 l 694 781 l 694 347 l 868 347 l 1042 347 l 1042 260 l 1042 174 l 694 174 l 347 174 l 347 781 z "},"\\":{"ha":1389,"x_min":0,"x_max":1215,"o":"m 0 1302 l 0 1389 l 87 1389 l 174 1389 l 174 1302 l 174 1215 l 260 1215 l 347 1215 l 347 1128 l 347 1042 l 434 1042 l 521 1042 l 521 955 l 521 868 l 608 868 l 694 868 l 694 781 l 694 694 l 781 694 l 868 694 l 868 608 l 868 521 l 955 521 l 1042 521 l 1042 434 l 1042 347 l 1128 347 l 1215 347 l 1215 260 l 1215 174 l 1128 174 l 1042 174 l 1042 260 l 1042 347 l 955 347 l 868 347 l 868 434 l 868 521 l 781 521 l 694 521 l 694 608 l 694 694 l 608 694 l 521 694 l 521 781 l 521 868 l 434 868 l 347 868 l 347 955 l 347 1042 l 260 1042 l 174 1042 l 174 1128 l 174 1215 l 87 1215 l 0 1215 l 0 1302 z "},"]":{"ha":1389,"x_min":174,"x_max":868,"o":"m 174 1302 l 174 1389 l 521 1389 l 868 1389 l 868 781 l 868 174 l 521 174 l 174 174 l 174 260 l 174 347 l 347 347 l 521 347 l 521 781 l 521 1215 l 347 1215 l 174 1215 l 174 1302 z "},"^":{"ha":1389,"x_min":174,"x_max":1042,"o":"m 347 1302 l 347 1389 l 608 1389 l 868 1389 l 868 1302 l 868 1215 l 955 1215 l 1042 1215 l 1042 1128 l 1042 1042 l 868 1042 l 694 1042 l 694 1128 l 694 1215 l 608 1215 l 521 1215 l 521 1128 l 521 1042 l 347 1042 l 174 1042 l 174 1128 l 174 1215 l 260 1215 l 347 1215 l 347 1302 z "},"_":{"ha":1389,"x_min":0,"x_max":1215,"o":"m 0 87 l 0 174 l 608 174 l 1215 174 l 1215 87 l 1215 0 l 608 0 l 0 0 l 0 87 z "},"`":{"ha":1389,"x_min":521,"x_max":868,"o":"m 521 1302 l 521 1389 l 608 1389 l 694 1389 l 694 1302 l 694 1215 l 781 1215 l 868 1215 l 868 1128 l 868 1042 l 781 1042 l 694 1042 l 694 1128 l 694 1215 l 608 1215 l 521 1215 l 521 1302 z "},"a":{"ha":1389,"x_min":0,"x_max":1215,"o":"m 174 955 l 174 1042 l 608 1042 l 1042 1042 l 1042 955 l 1042 868 l 1128 868 l 1215 868 l 1215 521 l 1215 174 l 694 174 l 174 174 l 174 260 l 174 347 l 87 347 l 0 347 l 0 434 l 0 521 l 87 521 l 174 521 l 174 608 l 174 694 l 521 694 l 868 694 l 868 781 l 868 868 l 521 868 l 174 868 l 174 955 m 868 434 l 868 521 l 608 521 l 347 521 l 347 434 l 347 347 l 608 347 l 868 347 l 868 434 z "},"b":{"ha":1389,"x_min":0,"x_max":1215,"o":"m 0 868 l 0 1389 l 174 1389 l 347 1389 l 347 1215 l 347 1042 l 694 1042 l 1042 1042 l 1042 955 l 1042 868 l 1128 868 l 1215 868 l 1215 608 l 1215 347 l 1128 347 l 1042 347 l 1042 260 l 1042 174 l 608 174 l 174 174 l 174 260 l 174 347 l 87 347 l 0 347 l 0 868 m 868 608 l 868 868 l 608 868 l 347 868 l 347 608 l 347 347 l 608 347 l 868 347 l 868 608 z "},"c":{"ha":1389,"x_min":0,"x_max":1215,"o":"m 174 955 l 174 1042 l 694 1042 l 1215 1042 l 1215 955 l 1215 868 l 781 868 l 347 868 l 347 608 l 347 347 l 781 347 l 1215 347 l 1215 260 l 1215 174 l 694 174 l 174 174 l 174 260 l 174 347 l 87 347 l 0 347 l 0 608 l 0 868 l 87 868 l 174 868 l 174 955 z "},"d":{"ha":1389,"x_min":0,"x_max":1215,"o":"m 868 1215 l 868 1389 l 1042 1389 l 1215 1389 l 1215 781 l 1215 174 l 694 174 l 174 174 l 174 260 l 174 347 l 87 347 l 0 347 l 0 608 l 0 868 l 87 868 l 174 868 l 174 955 l 174 1042 l 521 1042 l 868 1042 l 868 1215 m 868 608 l 868 868 l 608 868 l 347 868 l 347 608 l 347 347 l 608 347 l 868 347 l 868 608 z "},"e":{"ha":1389,"x_min":0,"x_max":1215,"o":"m 174 955 l 174 1042 l 608 1042 l 1042 1042 l 1042 955 l 1042 868 l 1128 868 l 1215 868 l 1215 694 l 1215 521 l 781 521 l 347 521 l 347 434 l 347 347 l 694 347 l 1042 347 l 1042 260 l 1042 174 l 608 174 l 174 174 l 174 260 l 174 347 l 87 347 l 0 347 l 0 608 l 0 868 l 87 868 l 174 868 l 174 955 m 868 781 l 868 868 l 608 868 l 347 868 l 347 781 l 347 694 l 608 694 l 868 694 l 868 781 z "},"f":{"ha":1389,"x_min":174,"x_max":1215,"o":"m 694 1302 l 694 1389 l 955 1389 l 1215 1389 l 1215 1302 l 1215 1215 l 1042 1215 l 868 1215 l 868 1128 l 868 1042 l 1042 1042 l 1215 1042 l 1215 955 l 1215 868 l 1042 868 l 868 868 l 868 521 l 868 174 l 694 174 l 521 174 l 521 521 l 521 868 l 347 868 l 174 868 l 174 955 l 174 1042 l 347 1042 l 521 1042 l 521 1128 l 521 1215 l 608 1215 l 694 1215 l 694 1302 z "},"g":{"ha":1389,"x_min":0,"x_max":1215,"o":"m 174 955 l 174 1042 l 694 1042 l 1215 1042 l 1215 608 l 1215 174 l 1128 174 l 1042 174 l 1042 87 l 1042 0 l 608 0 l 174 0 l 174 87 l 174 174 l 521 174 l 868 174 l 868 260 l 868 347 l 521 347 l 174 347 l 174 434 l 174 521 l 87 521 l 0 521 l 0 694 l 0 868 l 87 868 l 174 868 l 174 955 m 868 694 l 868 868 l 608 868 l 347 868 l 347 694 l 347 521 l 608 521 l 868 521 l 868 694 z "},"h":{"ha":1389,"x_min":0,"x_max":1215,"o":"m 0 781 l 0 1389 l 174 1389 l 347 1389 l 347 1215 l 347 1042 l 694 1042 l 1042 1042 l 1042 955 l 1042 868 l 1128 868 l 1215 868 l 1215 521 l 1215 174 l 1042 174 l 868 174 l 868 521 l 868 868 l 608 868 l 347 868 l 347 521 l 347 174 l 174 174 l 0 174 l 0 781 z "},"i":{"ha":1389,"x_min":174,"x_max":1215,"o":"m 347 955 l 347 1042 l 608 1042 l 868 1042 l 868 694 l 868 347 l 1042 347 l 1215 347 l 1215 260 l 1215 174 l 694 174 l 174 174 l 174 260 l 174 347 l 347 347 l 521 347 l 521 608 l 521 868 l 434 868 l 347 868 l 347 955 m 521 1302 l 521 1389 l 694 1389 l 868 1389 l 868 1302 l 868 1215 l 694 1215 l 521 1215 l 521 1302 z "},"j":{"ha":1389,"x_min":174,"x_max":1042,"o":"m 521 955 l 521 1042 l 781 1042 l 1042 1042 l 1042 608 l 1042 174 l 955 174 l 868 174 l 868 87 l 868 0 l 521 0 l 174 0 l 174 87 l 174 174 l 434 174 l 694 174 l 694 521 l 694 868 l 608 868 l 521 868 l 521 955 m 694 1302 l 694 1389 l 868 1389 l 1042 1389 l 1042 1302 l 1042 1215 l 868 1215 l 694 1215 l 694 1302 z "},"k":{"ha":1389,"x_min":0,"x_max":1215,"o":"m 0 781 l 0 1389 l 174 1389 l 347 1389 l 347 1128 l 347 868 l 521 868 l 694 868 l 694 955 l 694 1042 l 955 1042 l 1215 1042 l 1215 955 l 1215 868 l 1128 868 l 1042 868 l 1042 781 l 1042 694 l 955 694 l 868 694 l 868 608 l 868 521 l 955 521 l 1042 521 l 1042 434 l 1042 347 l 1128 347 l 1215 347 l 1215 260 l 1215 174 l 955 174 l 694 174 l 694 260 l 694 347 l 608 347 l 521 347 l 521 434 l 521 521 l 434 521 l 347 521 l 347 347 l 347 174 l 174 174 l 0 174 l 0 781 z "},"l":{"ha":1389,"x_min":174,"x_max":1215,"o":"m 347 1302 l 347 1389 l 608 1389 l 868 1389 l 868 868 l 868 347 l 1042 347 l 1215 347 l 1215 260 l 1215 174 l 694 174 l 174 174 l 174 260 l 174 347 l 347 347 l 521 347 l 521 781 l 521 1215 l 434 1215 l 347 1215 l 347 1302 z "},"m":{"ha":1389,"x_min":0,"x_max":1215,"o":"m 0 608 l 0 1042 l 521 1042 l 1042 1042 l 1042 955 l 1042 868 l 1128 868 l 1215 868 l 1215 521 l 1215 174 l 1042 174 l 868 174 l 868 521 l 868 868 l 781 868 l 694 868 l 694 521 l 694 174 l 521 174 l 347 174 l 347 521 l 347 868 l 260 868 l 174 868 l 174 521 l 174 174 l 87 174 l 0 174 l 0 608 z "},"n":{"ha":1389,"x_min":0,"x_max":1215,"o":"m 0 608 l 0 1042 l 521 1042 l 1042 1042 l 1042 955 l 1042 868 l 1128 868 l 1215 868 l 1215 521 l 1215 174 l 1042 174 l 868 174 l 868 521 l 868 868 l 608 868 l 347 868 l 347 521 l 347 174 l 174 174 l 0 174 l 0 608 z "},"o":{"ha":1389,"x_min":0,"x_max":1215,"o":"m 174 955 l 174 1042 l 608 1042 l 1042 1042 l 1042 955 l 1042 868 l 1128 868 l 1215 868 l 1215 608 l 1215 347 l 1128 347 l 1042 347 l 1042 260 l 1042 174 l 608 174 l 174 174 l 174 260 l 174 347 l 87 347 l 0 347 l 0 608 l 0 868 l 87 868 l 174 868 l 174 955 m 868 608 l 868 868 l 608 868 l 347 868 l 347 608 l 347 347 l 608 347 l 868 347 l 868 608 z "},"p":{"ha":1389,"x_min":0,"x_max":1215,"o":"m 0 521 l 0 1042 l 521 1042 l 1042 1042 l 1042 955 l 1042 868 l 1128 868 l 1215 868 l 1215 694 l 1215 521 l 1128 521 l 1042 521 l 1042 434 l 1042 347 l 694 347 l 347 347 l 347 174 l 347 0 l 174 0 l 0 0 l 0 521 m 868 694 l 868 868 l 608 868 l 347 868 l 347 694 l 347 521 l 608 521 l 868 521 l 868 694 z "},"q":{"ha":1389,"x_min":0,"x_max":1215,"o":"m 174 955 l 174 1042 l 694 1042 l 1215 1042 l 1215 521 l 1215 0 l 1042 0 l 868 0 l 868 174 l 868 347 l 521 347 l 174 347 l 174 434 l 174 521 l 87 521 l 0 521 l 0 694 l 0 868 l 87 868 l 174 868 l 174 955 m 868 694 l 868 868 l 608 868 l 347 868 l 347 694 l 347 521 l 608 521 l 868 521 l 868 694 z "},"r":{"ha":1389,"x_min":174,"x_max":1215,"o":"m 174 608 l 174 1042 l 347 1042 l 521 1042 l 521 955 l 521 868 l 608 868 l 694 868 l 694 955 l 694 1042 l 955 1042 l 1215 1042 l 1215 955 l 1215 868 l 955 868 l 694 868 l 694 781 l 694 694 l 608 694 l 521 694 l 521 434 l 521 174 l 347 174 l 174 174 l 174 608 z "},"s":{"ha":1389,"x_min":0,"x_max":1215,"o":"m 174 955 l 174 1042 l 608 1042 l 1042 1042 l 1042 955 l 1042 868 l 694 868 l 347 868 l 347 781 l 347 694 l 694 694 l 1042 694 l 1042 608 l 1042 521 l 1128 521 l 1215 521 l 1215 434 l 1215 347 l 1128 347 l 1042 347 l 1042 260 l 1042 174 l 521 174 l 0 174 l 0 260 l 0 347 l 434 347 l 868 347 l 868 434 l 868 521 l 521 521 l 174 521 l 174 608 l 174 694 l 87 694 l 0 694 l 0 781 l 0 868 l 87 868 l 174 868 l 174 955 z "},"t":{"ha":1389,"x_min":174,"x_max":1215,"o":"m 521 1215 l 521 1389 l 694 1389 l 868 1389 l 868 1215 l 868 1042 l 1042 1042 l 1215 1042 l 1215 955 l 1215 868 l 1042 868 l 868 868 l 868 521 l 868 174 l 694 174 l 521 174 l 521 521 l 521 868 l 347 868 l 174 868 l 174 955 l 174 1042 l 347 1042 l 521 1042 l 521 1215 z "},"u":{"ha":1389,"x_min":0,"x_max":1215,"o":"m 0 694 l 0 1042 l 174 1042 l 347 1042 l 347 694 l 347 347 l 608 347 l 868 347 l 868 694 l 868 1042 l 1042 1042 l 1215 1042 l 1215 608 l 1215 174 l 694 174 l 174 174 l 174 260 l 174 347 l 87 347 l 0 347 l 0 694 z "},"v":{"ha":1389,"x_min":174,"x_max":1215,"o":"m 174 781 l 174 1042 l 347 1042 l 521 1042 l 521 781 l 521 521 l 694 521 l 868 521 l 868 781 l 868 1042 l 1042 1042 l 1215 1042 l 1215 781 l 1215 521 l 1128 521 l 1042 521 l 1042 434 l 1042 347 l 955 347 l 868 347 l 868 260 l 868 174 l 694 174 l 521 174 l 521 260 l 521 347 l 434 347 l 347 347 l 347 434 l 347 521 l 260 521 l 174 521 l 174 781 z "},"w":{"ha":1389,"x_min":0,"x_max":1215,"o":"m 0 694 l 0 1042 l 87 1042 l 174 1042 l 174 694 l 174 347 l 260 347 l 347 347 l 347 694 l 347 1042 l 521 1042 l 694 1042 l 694 694 l 694 347 l 781 347 l 868 347 l 868 694 l 868 1042 l 1042 1042 l 1215 1042 l 1215 608 l 1215 174 l 694 174 l 174 174 l 174 260 l 174 347 l 87 347 l 0 347 l 0 694 z "},"x":{"ha":1389,"x_min":0,"x_max":1215,"o":"m 0 868 l 0 1042 l 174 1042 l 347 1042 l 347 955 l 347 868 l 608 868 l 868 868 l 868 955 l 868 1042 l 1042 1042 l 1215 1042 l 1215 868 l 1215 694 l 1042 694 l 868 694 l 868 608 l 868 521 l 1042 521 l 1215 521 l 1215 347 l 1215 174 l 1042 174 l 868 174 l 868 260 l 868 347 l 608 347 l 347 347 l 347 260 l 347 174 l 174 174 l 0 174 l 0 347 l 0 521 l 174 521 l 347 521 l 347 608 l 347 694 l 174 694 l 0 694 l 0 868 z "},"y":{"ha":1389,"x_min":0,"x_max":1215,"o":"m 0 781 l 0 1042 l 174 1042 l 347 1042 l 347 781 l 347 521 l 608 521 l 868 521 l 868 781 l 868 1042 l 1042 1042 l 1215 1042 l 1215 608 l 1215 174 l 1128 174 l 1042 174 l 1042 87 l 1042 0 l 608 0 l 174 0 l 174 87 l 174 174 l 521 174 l 868 174 l 868 260 l 868 347 l 521 347 l 174 347 l 174 434 l 174 521 l 87 521 l 0 521 l 0 781 z "},"z":{"ha":1389,"x_min":0,"x_max":1215,"o":"m 0 955 l 0 1042 l 608 1042 l 1215 1042 l 1215 955 l 1215 868 l 1128 868 l 1042 868 l 1042 781 l 1042 694 l 955 694 l 868 694 l 868 608 l 868 521 l 781 521 l 694 521 l 694 434 l 694 347 l 955 347 l 1215 347 l 1215 260 l 1215 174 l 608 174 l 0 174 l 0 260 l 0 347 l 87 347 l 174 347 l 174 434 l 174 521 l 260 521 l 347 521 l 347 608 l 347 694 l 434 694 l 521 694 l 521 781 l 521 868 l 260 868 l 0 868 l 0 955 z "},"{":{"ha":1389,"x_min":347,"x_max":1042,"o":"m 694 1302 l 694 1389 l 868 1389 l 1042 1389 l 1042 1302 l 1042 1215 l 955 1215 l 868 1215 l 868 1042 l 868 868 l 781 868 l 694 868 l 694 781 l 694 694 l 781 694 l 868 694 l 868 521 l 868 347 l 955 347 l 1042 347 l 1042 260 l 1042 174 l 868 174 l 694 174 l 694 260 l 694 347 l 608 347 l 521 347 l 521 521 l 521 694 l 434 694 l 347 694 l 347 781 l 347 868 l 434 868 l 521 868 l 521 1042 l 521 1215 l 608 1215 l 694 1215 l 694 1302 z "},"|":{"ha":1389,"x_min":521,"x_max":868,"o":"m 521 781 l 521 1389 l 694 1389 l 868 1389 l 868 781 l 868 174 l 694 174 l 521 174 l 521 781 z "},"}":{"ha":1389,"x_min":174,"x_max":868,"o":"m 174 1302 l 174 1389 l 347 1389 l 521 1389 l 521 1302 l 521 1215 l 608 1215 l 694 1215 l 694 1042 l 694 868 l 781 868 l 868 868 l 868 781 l 868 694 l 781 694 l 694 694 l 694 521 l 694 347 l 608 347 l 521 347 l 521 260 l 521 174 l 347 174 l 174 174 l 174 260 l 174 347 l 260 347 l 347 347 l 347 521 l 347 694 l 434 694 l 521 694 l 521 781 l 521 868 l 434 868 l 347 868 l 347 1042 l 347 1215 l 260 1215 l 174 1215 l 174 1302 z "},"~":{"ha":1389,"x_min":0,"x_max":1215,"o":"m 174 955 l 174 1042 l 434 1042 l 694 1042 l 694 955 l 694 868 l 781 868 l 868 868 l 868 781 l 868 694 l 955 694 l 1042 694 l 1042 781 l 1042 868 l 1128 868 l 1215 868 l 1215 781 l 1215 694 l 1128 694 l 1042 694 l 1042 608 l 1042 521 l 781 521 l 521 521 l 521 608 l 521 694 l 434 694 l 347 694 l 347 781 l 347 868 l 260 868 l 174 868 l 174 781 l 174 694 l 87 694 l 0 694 l 0 781 l 0 868 l 87 868 l 174 868 l 174 955 z "},"":{"ha":1389,"x_min":174,"x_max":1042,"o":"m 694 347 l 694 521 l 868 521 l 1042 521 l 1042 347 l 1042 174 l 868 174 l 694 174 l 694 347 m 174 347 l 174 521 l 347 521 l 521 521 l 521 347 l 521 174 l 347 174 l 174 174 l 174 347 z "}," ":{"ha":1389,"x_min":0,"x_max":0,"o":""},"¡":{"ha":1389,"x_min":347,"x_max":868,"o":"m 521 868 l 521 1042 l 694 1042 l 868 1042 l 868 608 l 868 174 l 608 174 l 347 174 l 347 434 l 347 694 l 434 694 l 521 694 l 521 868 m 521 1302 l 521 1389 l 694 1389 l 868 1389 l 868 1302 l 868 1215 l 694 1215 l 521 1215 l 521 1302 z "},"¢":{"ha":1389,"x_min":0,"x_max":1215,"o":"m 521 1302 l 521 1389 l 608 1389 l 694 1389 l 694 1302 l 694 1215 l 868 1215 l 1042 1215 l 1042 1128 l 1042 1042 l 1128 1042 l 1215 1042 l 1215 955 l 1215 868 l 1042 868 l 868 868 l 868 955 l 868 1042 l 781 1042 l 694 1042 l 694 781 l 694 521 l 781 521 l 868 521 l 868 608 l 868 694 l 1042 694 l 1215 694 l 1215 608 l 1215 521 l 1128 521 l 1042 521 l 1042 434 l 1042 347 l 868 347 l 694 347 l 694 260 l 694 174 l 608 174 l 521 174 l 521 260 l 521 347 l 347 347 l 174 347 l 174 434 l 174 521 l 87 521 l 0 521 l 0 781 l 0 1042 l 87 1042 l 174 1042 l 174 1128 l 174 1215 l 347 1215 l 521 1215 l 521 1302 m 521 781 l 521 1042 l 434 1042 l 347 1042 l 347 781 l 347 521 l 434 521 l 521 521 l 521 781 z "},"£":{"ha":1389,"x_min":0,"x_max":1215,"o":"m 347 1302 l 347 1389 l 694 1389 l 1042 1389 l 1042 1302 l 1042 1215 l 1128 1215 l 1215 1215 l 1215 1128 l 1215 1042 l 1042 1042 l 868 1042 l 868 1128 l 868 1215 l 694 1215 l 521 1215 l 521 1042 l 521 868 l 781 868 l 1042 868 l 1042 781 l 1042 694 l 781 694 l 521 694 l 521 521 l 521 347 l 868 347 l 1215 347 l 1215 260 l 1215 174 l 608 174 l 0 174 l 0 260 l 0 347 l 87 347 l 174 347 l 174 521 l 174 694 l 87 694 l 0 694 l 0 781 l 0 868 l 87 868 l 174 868 l 174 1042 l 174 1215 l 260 1215 l 347 1215 l 347 1302 z "},"¤":{"ha":1389,"x_min":174,"x_max":1215,"o":"m 174 1128 l 174 1215 l 260 1215 l 347 1215 l 347 1128 l 347 1042 l 434 1042 l 521 1042 l 521 1128 l 521 1215 l 694 1215 l 868 1215 l 868 1128 l 868 1042 l 955 1042 l 1042 1042 l 1042 1128 l 1042 1215 l 1128 1215 l 1215 1215 l 1215 1128 l 1215 1042 l 1128 1042 l 1042 1042 l 1042 781 l 1042 521 l 1128 521 l 1215 521 l 1215 434 l 1215 347 l 1128 347 l 1042 347 l 1042 434 l 1042 521 l 955 521 l 868 521 l 868 434 l 868 347 l 694 347 l 521 347 l 521 434 l 521 521 l 434 521 l 347 521 l 347 434 l 347 347 l 260 347 l 174 347 l 174 434 l 174 521 l 260 521 l 347 521 l 347 781 l 347 1042 l 260 1042 l 174 1042 l 174 1128 m 868 781 l 868 1042 l 694 1042 l 521 1042 l 521 781 l 521 521 l 694 521 l 868 521 l 868 781 z "},"¥":{"ha":1389,"x_min":174,"x_max":1215,"o":"m 174 1215 l 174 1389 l 347 1389 l 521 1389 l 521 1215 l 521 1042 l 694 1042 l 868 1042 l 868 1215 l 868 1389 l 1042 1389 l 1215 1389 l 1215 1215 l 1215 1042 l 1128 1042 l 1042 1042 l 1042 955 l 1042 868 l 1128 868 l 1215 868 l 1215 781 l 1215 694 l 1042 694 l 868 694 l 868 608 l 868 521 l 1042 521 l 1215 521 l 1215 434 l 1215 347 l 1042 347 l 868 347 l 868 260 l 868 174 l 694 174 l 521 174 l 521 260 l 521 347 l 347 347 l 174 347 l 174 434 l 174 521 l 347 521 l 521 521 l 521 608 l 521 694 l 347 694 l 174 694 l 174 781 l 174 868 l 260 868 l 347 868 l 347 955 l 347 1042 l 260 1042 l 174 1042 l 174 1215 z "},"¦":{"ha":1389,"x_min":521,"x_max":868,"o":"m 521 434 l 521 694 l 694 694 l 868 694 l 868 434 l 868 174 l 694 174 l 521 174 l 521 434 m 521 1128 l 521 1389 l 694 1389 l 868 1389 l 868 1128 l 868 868 l 694 868 l 521 868 l 521 1128 z "},"§":{"ha":1389,"x_min":174,"x_max":1215,"o":"m 347 1302 l 347 1389 l 694 1389 l 1042 1389 l 1042 1302 l 1042 1215 l 1128 1215 l 1215 1215 l 1215 1128 l 1215 1042 l 1042 1042 l 868 1042 l 868 955 l 868 868 l 955 868 l 1042 868 l 1042 781 l 1042 694 l 1128 694 l 1215 694 l 1215 521 l 1215 347 l 1128 347 l 1042 347 l 1042 260 l 1042 174 l 694 174 l 347 174 l 347 260 l 347 347 l 260 347 l 174 347 l 174 434 l 174 521 l 347 521 l 521 521 l 521 608 l 521 694 l 434 694 l 347 694 l 347 781 l 347 868 l 260 868 l 174 868 l 174 1042 l 174 1215 l 260 1215 l 347 1215 l 347 1302 m 868 1128 l 868 1215 l 694 1215 l 521 1215 l 521 1128 l 521 1042 l 694 1042 l 868 1042 l 868 1128 m 868 781 l 868 868 l 694 868 l 521 868 l 521 781 l 521 694 l 694 694 l 868 694 l 868 781 m 868 434 l 868 521 l 694 521 l 521 521 l 521 434 l 521 347 l 694 347 l 868 347 l 868 434 z "},"¨":{"ha":1389,"x_min":174,"x_max":1042,"o":"m 694 1302 l 694 1389 l 868 1389 l 1042 1389 l 1042 1302 l 1042 1215 l 868 1215 l 694 1215 l 694 1302 m 174 1302 l 174 1389 l 347 1389 l 521 1389 l 521 1302 l 521 1215 l 347 1215 l 174 1215 l 174 1302 z "},"©":{"ha":1389,"x_min":0,"x_max":1389,"o":"m 521 955 l 521 1042 l 694 1042 l 868 1042 l 868 955 l 868 868 l 694 868 l 521 868 l 521 694 l 521 521 l 694 521 l 868 521 l 868 434 l 868 347 l 694 347 l 521 347 l 521 434 l 521 521 l 434 521 l 347 521 l 347 694 l 347 868 l 434 868 l 521 868 l 521 955 m 347 1302 l 347 1389 l 694 1389 l 1042 1389 l 1042 1302 l 1042 1215 l 1128 1215 l 1215 1215 l 1215 1128 l 1215 1042 l 1302 1042 l 1389 1042 l 1389 694 l 1389 347 l 1302 347 l 1215 347 l 1215 260 l 1215 174 l 1128 174 l 1042 174 l 1042 87 l 1042 0 l 694 0 l 347 0 l 347 87 l 347 174 l 260 174 l 174 174 l 174 260 l 174 347 l 87 347 l 0 347 l 0 694 l 0 1042 l 87 1042 l 174 1042 l 174 1128 l 174 1215 l 260 1215 l 347 1215 l 347 1302 m 1042 1128 l 1042 1215 l 694 1215 l 347 1215 l 347 1128 l 347 1042 l 260 1042 l 174 1042 l 174 694 l 174 347 l 260 347 l 347 347 l 347 260 l 347 174 l 694 174 l 1042 174 l 1042 260 l 1042 347 l 1128 347 l 1215 347 l 1215 694 l 1215 1042 l 1128 1042 l 1042 1042 l 1042 1128 z "},"ª":{"ha":1389,"x_min":174,"x_max":1042,"o":"m 174 1302 l 174 1389 l 521 1389 l 868 1389 l 868 1302 l 868 1215 l 955 1215 l 1042 1215 l 1042 955 l 1042 694 l 694 694 l 347 694 l 347 781 l 347 868 l 260 868 l 174 868 l 174 955 l 174 1042 l 260 1042 l 347 1042 l 347 1128 l 347 1215 l 260 1215 l 174 1215 l 174 1302 m 694 955 l 694 1042 l 608 1042 l 521 1042 l 521 955 l 521 868 l 608 868 l 694 868 l 694 955 z "},"«":{"ha":1389,"x_min":0,"x_max":1215,"o":"m 347 1128 l 347 1215 l 521 1215 l 694 1215 l 694 1128 l 694 1042 l 781 1042 l 868 1042 l 868 1128 l 868 1215 l 1042 1215 l 1215 1215 l 1215 1128 l 1215 1042 l 1128 1042 l 1042 1042 l 1042 955 l 1042 868 l 955 868 l 868 868 l 868 781 l 868 694 l 955 694 l 1042 694 l 1042 608 l 1042 521 l 1128 521 l 1215 521 l 1215 434 l 1215 347 l 1042 347 l 868 347 l 868 434 l 868 521 l 781 521 l 694 521 l 694 434 l 694 347 l 521 347 l 347 347 l 347 434 l 347 521 l 260 521 l 174 521 l 174 608 l 174 694 l 87 694 l 0 694 l 0 781 l 0 868 l 87 868 l 174 868 l 174 955 l 174 1042 l 260 1042 l 347 1042 l 347 1128 m 694 955 l 694 1042 l 608 1042 l 521 1042 l 521 955 l 521 868 l 434 868 l 347 868 l 347 781 l 347 694 l 434 694 l 521 694 l 521 608 l 521 521 l 608 521 l 694 521 l 694 608 l 694 694 l 608 694 l 521 694 l 521 781 l 521 868 l 608 868 l 694 868 l 694 955 z "},"¬":{"ha":1389,"x_min":174,"x_max":1215,"o":"m 174 955 l 174 1042 l 694 1042 l 1215 1042 l 1215 781 l 1215 521 l 1042 521 l 868 521 l 868 694 l 868 868 l 521 868 l 174 868 l 174 955 z "},"­":{"ha":1389,"x_min":174,"x_max":1215,"o":"m 174 781 l 174 868 l 694 868 l 1215 868 l 1215 781 l 1215 694 l 694 694 l 174 694 l 174 781 z "},"®":{"ha":1389,"x_min":0,"x_max":1389,"o":"m 347 694 l 347 1042 l 608 1042 l 868 1042 l 868 955 l 868 868 l 955 868 l 1042 868 l 1042 781 l 1042 694 l 955 694 l 868 694 l 868 608 l 868 521 l 955 521 l 1042 521 l 1042 434 l 1042 347 l 955 347 l 868 347 l 868 434 l 868 521 l 694 521 l 521 521 l 521 434 l 521 347 l 434 347 l 347 347 l 347 694 m 868 781 l 868 868 l 694 868 l 521 868 l 521 781 l 521 694 l 694 694 l 868 694 l 868 781 m 347 1302 l 347 1389 l 694 1389 l 1042 1389 l 1042 1302 l 1042 1215 l 1128 1215 l 1215 1215 l 1215 1128 l 1215 1042 l 1302 1042 l 1389 1042 l 1389 694 l 1389 347 l 1302 347 l 1215 347 l 1215 260 l 1215 174 l 1128 174 l 1042 174 l 1042 87 l 1042 0 l 694 0 l 347 0 l 347 87 l 347 174 l 260 174 l 174 174 l 174 260 l 174 347 l 87 347 l 0 347 l 0 694 l 0 1042 l 87 1042 l 174 1042 l 174 1128 l 174 1215 l 260 1215 l 347 1215 l 347 1302 m 1042 1128 l 1042 1215 l 694 1215 l 347 1215 l 347 1128 l 347 1042 l 260 1042 l 174 1042 l 174 694 l 174 347 l 260 347 l 347 347 l 347 260 l 347 174 l 694 174 l 1042 174 l 1042 260 l 1042 347 l 1128 347 l 1215 347 l 1215 694 l 1215 1042 l 1128 1042 l 1042 1042 l 1042 1128 z "},"¯":{"ha":1389,"x_min":174,"x_max":1042,"o":"m 174 1302 l 174 1389 l 608 1389 l 1042 1389 l 1042 1302 l 1042 1215 l 608 1215 l 174 1215 l 174 1302 z "},"°":{"ha":1389,"x_min":347,"x_max":868,"o":"m 521 1302 l 521 1389 l 608 1389 l 694 1389 l 694 1302 l 694 1215 l 781 1215 l 868 1215 l 868 1128 l 868 1042 l 781 1042 l 694 1042 l 694 955 l 694 868 l 608 868 l 521 868 l 521 955 l 521 1042 l 434 1042 l 347 1042 l 347 1128 l 347 1215 l 434 1215 l 521 1215 l 521 1302 m 694 1128 l 694 1215 l 608 1215 l 521 1215 l 521 1128 l 521 1042 l 608 1042 l 694 1042 l 694 1128 z "},"±":{"ha":1389,"x_min":174,"x_max":1215,"o":"m 174 260 l 174 347 l 694 347 l 1215 347 l 1215 260 l 1215 174 l 694 174 l 174 174 l 174 260 m 521 1215 l 521 1389 l 694 1389 l 868 1389 l 868 1215 l 868 1042 l 1042 1042 l 1215 1042 l 1215 955 l 1215 868 l 1042 868 l 868 868 l 868 694 l 868 521 l 694 521 l 521 521 l 521 694 l 521 868 l 347 868 l 174 868 l 174 955 l 174 1042 l 347 1042 l 521 1042 l 521 1215 z "},"²":{"ha":1389,"x_min":347,"x_max":1042,"o":"m 347 1302 l 347 1389 l 608 1389 l 868 1389 l 868 1302 l 868 1215 l 955 1215 l 1042 1215 l 1042 1128 l 1042 1042 l 955 1042 l 868 1042 l 868 955 l 868 868 l 955 868 l 1042 868 l 1042 781 l 1042 694 l 694 694 l 347 694 l 347 781 l 347 868 l 434 868 l 521 868 l 521 955 l 521 1042 l 608 1042 l 694 1042 l 694 1128 l 694 1215 l 521 1215 l 347 1215 l 347 1302 z "},"³":{"ha":1389,"x_min":347,"x_max":1042,"o":"m 347 1302 l 347 1389 l 694 1389 l 1042 1389 l 1042 1302 l 1042 1215 l 955 1215 l 868 1215 l 868 1128 l 868 1042 l 955 1042 l 1042 1042 l 1042 955 l 1042 868 l 955 868 l 868 868 l 868 781 l 868 694 l 608 694 l 347 694 l 347 781 l 347 868 l 521 868 l 694 868 l 694 955 l 694 1042 l 608 1042 l 521 1042 l 521 1128 l 521 1215 l 434 1215 l 347 1215 l 347 1302 z "},"´":{"ha":1389,"x_min":521,"x_max":868,"o":"m 694 1302 l 694 1389 l 781 1389 l 868 1389 l 868 1302 l 868 1215 l 781 1215 l 694 1215 l 694 1128 l 694 1042 l 608 1042 l 521 1042 l 521 1128 l 521 1215 l 608 1215 l 694 1215 l 694 1302 z "},"µ":{"ha":1389,"x_min":0,"x_max":1215,"o":"m 0 521 l 0 1042 l 174 1042 l 347 1042 l 347 694 l 347 347 l 521 347 l 694 347 l 694 694 l 694 1042 l 868 1042 l 1042 1042 l 1042 694 l 1042 347 l 1128 347 l 1215 347 l 1215 260 l 1215 174 l 1042 174 l 868 174 l 868 260 l 868 347 l 781 347 l 694 347 l 694 260 l 694 174 l 521 174 l 347 174 l 347 87 l 347 0 l 174 0 l 0 0 l 0 521 z "},"¶":{"ha":1389,"x_min":174,"x_max":1215,"o":"m 347 1302 l 347 1389 l 781 1389 l 1215 1389 l 1215 781 l 1215 174 l 1128 174 l 1042 174 l 1042 347 l 1042 521 l 955 521 l 868 521 l 868 347 l 868 174 l 781 174 l 694 174 l 694 347 l 694 521 l 521 521 l 347 521 l 347 608 l 347 694 l 260 694 l 174 694 l 174 955 l 174 1215 l 260 1215 l 347 1215 l 347 1302 m 694 955 l 694 1215 l 608 1215 l 521 1215 l 521 1128 l 521 1042 l 434 1042 l 347 1042 l 347 955 l 347 868 l 434 868 l 521 868 l 521 781 l 521 694 l 608 694 l 694 694 l 694 955 m 1042 955 l 1042 1215 l 955 1215 l 868 1215 l 868 955 l 868 694 l 955 694 l 1042 694 l 1042 955 z "},"·":{"ha":1389,"x_min":347,"x_max":694,"o":"m 347 694 l 347 868 l 521 868 l 694 868 l 694 694 l 694 521 l 521 521 l 347 521 l 347 694 z "},"¸":{"ha":1389,"x_min":347,"x_max":868,"o":"m 694 260 l 694 347 l 781 347 l 868 347 l 868 260 l 868 174 l 781 174 l 694 174 l 694 87 l 694 0 l 521 0 l 347 0 l 347 87 l 347 174 l 521 174 l 694 174 l 694 260 z "},"¹":{"ha":1389,"x_min":347,"x_max":1042,"o":"m 521 1302 l 521 1389 l 694 1389 l 868 1389 l 868 1128 l 868 868 l 955 868 l 1042 868 l 1042 781 l 1042 694 l 694 694 l 347 694 l 347 781 l 347 868 l 434 868 l 521 868 l 521 955 l 521 1042 l 434 1042 l 347 1042 l 347 1128 l 347 1215 l 434 1215 l 521 1215 l 521 1302 z "},"º":{"ha":1389,"x_min":174,"x_max":1042,"o":"m 347 1302 l 347 1389 l 608 1389 l 868 1389 l 868 1302 l 868 1215 l 955 1215 l 1042 1215 l 1042 1042 l 1042 868 l 955 868 l 868 868 l 868 781 l 868 694 l 608 694 l 347 694 l 347 781 l 347 868 l 260 868 l 174 868 l 174 1042 l 174 1215 l 260 1215 l 347 1215 l 347 1302 m 694 1042 l 694 1215 l 608 1215 l 521 1215 l 521 1042 l 521 868 l 608 868 l 694 868 l 694 1042 z "},"»":{"ha":1389,"x_min":0,"x_max":1215,"o":"m 0 1128 l 0 1215 l 174 1215 l 347 1215 l 347 1128 l 347 1042 l 434 1042 l 521 1042 l 521 1128 l 521 1215 l 694 1215 l 868 1215 l 868 1128 l 868 1042 l 955 1042 l 1042 1042 l 1042 955 l 1042 868 l 1128 868 l 1215 868 l 1215 781 l 1215 694 l 1128 694 l 1042 694 l 1042 608 l 1042 521 l 955 521 l 868 521 l 868 434 l 868 347 l 694 347 l 521 347 l 521 434 l 521 521 l 434 521 l 347 521 l 347 434 l 347 347 l 174 347 l 0 347 l 0 434 l 0 521 l 87 521 l 174 521 l 174 608 l 174 694 l 260 694 l 347 694 l 347 781 l 347 868 l 260 868 l 174 868 l 174 955 l 174 1042 l 87 1042 l 0 1042 l 0 1128 m 694 955 l 694 1042 l 608 1042 l 521 1042 l 521 955 l 521 868 l 608 868 l 694 868 l 694 781 l 694 694 l 608 694 l 521 694 l 521 608 l 521 521 l 608 521 l 694 521 l 694 608 l 694 694 l 781 694 l 868 694 l 868 781 l 868 868 l 781 868 l 694 868 l 694 955 z "},"¼":{"ha":1389,"x_min":0,"x_max":1215,"o":"m 1042 781 l 1042 868 l 1128 868 l 1215 868 l 1215 521 l 1215 174 l 1128 174 l 1042 174 l 1042 260 l 1042 347 l 868 347 l 694 347 l 694 434 l 694 521 l 781 521 l 868 521 l 868 608 l 868 694 l 955 694 l 1042 694 l 1042 781 m 174 1302 l 174 1389 l 260 1389 l 347 1389 l 347 1042 l 347 694 l 434 694 l 521 694 l 521 781 l 521 868 l 608 868 l 694 868 l 694 955 l 694 1042 l 781 1042 l 868 1042 l 868 1128 l 868 1215 l 955 1215 l 1042 1215 l 1042 1302 l 1042 1389 l 1128 1389 l 1215 1389 l 1215 1302 l 1215 1215 l 1128 1215 l 1042 1215 l 1042 1128 l 1042 1042 l 955 1042 l 868 1042 l 868 955 l 868 868 l 781 868 l 694 868 l 694 781 l 694 694 l 608 694 l 521 694 l 521 608 l 521 521 l 434 521 l 347 521 l 347 434 l 347 347 l 260 347 l 174 347 l 174 260 l 174 174 l 87 174 l 0 174 l 0 260 l 0 347 l 87 347 l 174 347 l 174 434 l 174 521 l 260 521 l 347 521 l 347 608 l 347 694 l 260 694 l 174 694 l 174 868 l 174 1042 l 87 1042 l 0 1042 l 0 1128 l 0 1215 l 87 1215 l 174 1215 l 174 1302 z "},"½":{"ha":1389,"x_min":0,"x_max":1215,"o":"m 174 1302 l 174 1389 l 260 1389 l 347 1389 l 347 1042 l 347 694 l 434 694 l 521 694 l 521 781 l 521 868 l 608 868 l 694 868 l 694 955 l 694 1042 l 781 1042 l 868 1042 l 868 1128 l 868 1215 l 955 1215 l 1042 1215 l 1042 1302 l 1042 1389 l 1128 1389 l 1215 1389 l 1215 1302 l 1215 1215 l 1128 1215 l 1042 1215 l 1042 1128 l 1042 1042 l 955 1042 l 868 1042 l 868 955 l 868 868 l 1042 868 l 1215 868 l 1215 694 l 1215 521 l 1128 521 l 1042 521 l 1042 434 l 1042 347 l 1128 347 l 1215 347 l 1215 260 l 1215 174 l 955 174 l 694 174 l 694 260 l 694 347 l 781 347 l 868 347 l 868 434 l 868 521 l 955 521 l 1042 521 l 1042 608 l 1042 694 l 955 694 l 868 694 l 868 781 l 868 868 l 781 868 l 694 868 l 694 781 l 694 694 l 608 694 l 521 694 l 521 608 l 521 521 l 434 521 l 347 521 l 347 434 l 347 347 l 260 347 l 174 347 l 174 260 l 174 174 l 87 174 l 0 174 l 0 260 l 0 347 l 87 347 l 174 347 l 174 434 l 174 521 l 260 521 l 347 521 l 347 608 l 347 694 l 260 694 l 174 694 l 174 868 l 174 1042 l 87 1042 l 0 1042 l 0 1128 l 0 1215 l 87 1215 l 174 1215 l 174 1302 z "},"¾":{"ha":1389,"x_min":0,"x_max":1215,"o":"m 1042 781 l 1042 868 l 1128 868 l 1215 868 l 1215 521 l 1215 174 l 1128 174 l 1042 174 l 1042 260 l 1042 347 l 868 347 l 694 347 l 694 434 l 694 521 l 781 521 l 868 521 l 868 608 l 868 694 l 955 694 l 1042 694 l 1042 781 m 0 1302 l 0 1389 l 260 1389 l 521 1389 l 521 1302 l 521 1215 l 434 1215 l 347 1215 l 347 1128 l 347 1042 l 434 1042 l 521 1042 l 521 955 l 521 868 l 608 868 l 694 868 l 694 955 l 694 1042 l 781 1042 l 868 1042 l 868 1128 l 868 1215 l 955 1215 l 1042 1215 l 1042 1302 l 1042 1389 l 1128 1389 l 1215 1389 l 1215 1302 l 1215 1215 l 1128 1215 l 1042 1215 l 1042 1128 l 1042 1042 l 955 1042 l 868 1042 l 868 955 l 868 868 l 781 868 l 694 868 l 694 781 l 694 694 l 608 694 l 521 694 l 521 608 l 521 521 l 434 521 l 347 521 l 347 434 l 347 347 l 260 347 l 174 347 l 174 260 l 174 174 l 87 174 l 0 174 l 0 260 l 0 347 l 87 347 l 174 347 l 174 434 l 174 521 l 260 521 l 347 521 l 347 608 l 347 694 l 174 694 l 0 694 l 0 781 l 0 868 l 174 868 l 347 868 l 347 955 l 347 1042 l 260 1042 l 174 1042 l 174 1128 l 174 1215 l 87 1215 l 0 1215 l 0 1302 m 521 781 l 521 868 l 434 868 l 347 868 l 347 781 l 347 694 l 434 694 l 521 694 l 521 781 z "},"¿":{"ha":1389,"x_min":0,"x_max":1215,"o":"m 347 955 l 347 1042 l 608 1042 l 868 1042 l 868 955 l 868 868 l 694 868 l 521 868 l 521 781 l 521 694 l 434 694 l 347 694 l 347 608 l 347 521 l 608 521 l 868 521 l 868 608 l 868 694 l 1042 694 l 1215 694 l 1215 521 l 1215 347 l 1128 347 l 1042 347 l 1042 260 l 1042 174 l 608 174 l 174 174 l 174 260 l 174 347 l 87 347 l 0 347 l 0 521 l 0 694 l 87 694 l 174 694 l 174 781 l 174 868 l 260 868 l 347 868 l 347 955 m 347 1302 l 347 1389 l 608 1389 l 868 1389 l 868 1302 l 868 1215 l 608 1215 l 347 1215 l 347 1302 z "},"À":{"ha":1389,"x_min":0,"x_max":1215,"o":"m 347 1302 l 347 1389 l 434 1389 l 521 1389 l 521 1302 l 521 1215 l 608 1215 l 694 1215 l 694 1128 l 694 1042 l 781 1042 l 868 1042 l 868 955 l 868 868 l 955 868 l 1042 868 l 1042 781 l 1042 694 l 1128 694 l 1215 694 l 1215 434 l 1215 174 l 1042 174 l 868 174 l 868 260 l 868 347 l 608 347 l 347 347 l 347 260 l 347 174 l 174 174 l 0 174 l 0 434 l 0 694 l 87 694 l 174 694 l 174 781 l 174 868 l 260 868 l 347 868 l 347 955 l 347 1042 l 434 1042 l 521 1042 l 521 1128 l 521 1215 l 434 1215 l 347 1215 l 347 1302 m 694 781 l 694 868 l 608 868 l 521 868 l 521 781 l 521 694 l 434 694 l 347 694 l 347 608 l 347 521 l 608 521 l 868 521 l 868 608 l 868 694 l 781 694 l 694 694 l 694 781 z "},"Á":{"ha":1389,"x_min":0,"x_max":1215,"o":"m 694 1302 l 694 1389 l 781 1389 l 868 1389 l 868 1302 l 868 1215 l 781 1215 l 694 1215 l 694 1128 l 694 1042 l 781 1042 l 868 1042 l 868 955 l 868 868 l 955 868 l 1042 868 l 1042 781 l 1042 694 l 1128 694 l 1215 694 l 1215 434 l 1215 174 l 1042 174 l 868 174 l 868 260 l 868 347 l 608 347 l 347 347 l 347 260 l 347 174 l 174 174 l 0 174 l 0 434 l 0 694 l 87 694 l 174 694 l 174 781 l 174 868 l 260 868 l 347 868 l 347 955 l 347 1042 l 434 1042 l 521 1042 l 521 1128 l 521 1215 l 608 1215 l 694 1215 l 694 1302 m 694 781 l 694 868 l 608 868 l 521 868 l 521 781 l 521 694 l 434 694 l 347 694 l 347 608 l 347 521 l 608 521 l 868 521 l 868 608 l 868 694 l 781 694 l 694 694 l 694 781 z "},"Â":{"ha":1389,"x_min":0,"x_max":1215,"o":"m 347 1302 l 347 1389 l 608 1389 l 868 1389 l 868 1302 l 868 1215 l 955 1215 l 1042 1215 l 1042 1128 l 1042 1042 l 955 1042 l 868 1042 l 868 955 l 868 868 l 955 868 l 1042 868 l 1042 781 l 1042 694 l 1128 694 l 1215 694 l 1215 434 l 1215 174 l 1042 174 l 868 174 l 868 260 l 868 347 l 608 347 l 347 347 l 347 260 l 347 174 l 174 174 l 0 174 l 0 434 l 0 694 l 87 694 l 174 694 l 174 781 l 174 868 l 260 868 l 347 868 l 347 955 l 347 1042 l 260 1042 l 174 1042 l 174 1128 l 174 1215 l 260 1215 l 347 1215 l 347 1302 m 694 1128 l 694 1215 l 608 1215 l 521 1215 l 521 1128 l 521 1042 l 608 1042 l 694 1042 l 694 1128 m 694 781 l 694 868 l 608 868 l 521 868 l 521 781 l 521 694 l 434 694 l 347 694 l 347 608 l 347 521 l 608 521 l 868 521 l 868 608 l 868 694 l 781 694 l 694 694 l 694 781 z "},"Ã":{"ha":1389,"x_min":0,"x_max":1215,"o":"m 347 1302 l 347 1389 l 521 1389 l 694 1389 l 694 1302 l 694 1215 l 781 1215 l 868 1215 l 868 1302 l 868 1389 l 955 1389 l 1042 1389 l 1042 1302 l 1042 1215 l 955 1215 l 868 1215 l 868 1042 l 868 868 l 955 868 l 1042 868 l 1042 781 l 1042 694 l 1128 694 l 1215 694 l 1215 434 l 1215 174 l 1042 174 l 868 174 l 868 260 l 868 347 l 608 347 l 347 347 l 347 260 l 347 174 l 174 174 l 0 174 l 0 434 l 0 694 l 87 694 l 174 694 l 174 781 l 174 868 l 260 868 l 347 868 l 347 955 l 347 1042 l 260 1042 l 174 1042 l 174 1128 l 174 1215 l 260 1215 l 347 1215 l 347 1302 m 521 1128 l 521 1215 l 434 1215 l 347 1215 l 347 1128 l 347 1042 l 434 1042 l 521 1042 l 521 1128 m 694 781 l 694 868 l 608 868 l 521 868 l 521 781 l 521 694 l 434 694 l 347 694 l 347 608 l 347 521 l 608 521 l 868 521 l 868 608 l 868 694 l 781 694 l 694 694 l 694 781 z "},"Ä":{"ha":1389,"x_min":0,"x_max":1215,"o":"m 347 955 l 347 1042 l 608 1042 l 868 1042 l 868 955 l 868 868 l 955 868 l 1042 868 l 1042 781 l 1042 694 l 1128 694 l 1215 694 l 1215 434 l 1215 174 l 1042 174 l 868 174 l 868 260 l 868 347 l 608 347 l 347 347 l 347 260 l 347 174 l 174 174 l 0 174 l 0 434 l 0 694 l 87 694 l 174 694 l 174 781 l 174 868 l 260 868 l 347 868 l 347 955 m 694 781 l 694 868 l 608 868 l 521 868 l 521 781 l 521 694 l 434 694 l 347 694 l 347 608 l 347 521 l 608 521 l 868 521 l 868 608 l 868 694 l 781 694 l 694 694 l 694 781 m 694 1302 l 694 1389 l 868 1389 l 1042 1389 l 1042 1302 l 1042 1215 l 868 1215 l 694 1215 l 694 1302 m 174 1302 l 174 1389 l 347 1389 l 521 1389 l 521 1302 l 521 1215 l 347 1215 l 174 1215 l 174 1302 z "},"Å":{"ha":1389,"x_min":0,"x_max":1215,"o":"m 521 1302 l 521 1389 l 608 1389 l 694 1389 l 694 1302 l 694 1215 l 781 1215 l 868 1215 l 868 1042 l 868 868 l 955 868 l 1042 868 l 1042 781 l 1042 694 l 1128 694 l 1215 694 l 1215 434 l 1215 174 l 1042 174 l 868 174 l 868 260 l 868 347 l 608 347 l 347 347 l 347 260 l 347 174 l 174 174 l 0 174 l 0 434 l 0 694 l 87 694 l 174 694 l 174 781 l 174 868 l 260 868 l 347 868 l 347 1042 l 347 1215 l 434 1215 l 521 1215 l 521 1302 m 694 1128 l 694 1215 l 608 1215 l 521 1215 l 521 1128 l 521 1042 l 608 1042 l 694 1042 l 694 1128 m 694 781 l 694 868 l 608 868 l 521 868 l 521 781 l 521 694 l 434 694 l 347 694 l 347 608 l 347 521 l 608 521 l 868 521 l 868 608 l 868 694 l 781 694 l 694 694 l 694 781 z "},"Æ":{"ha":1389,"x_min":0,"x_max":1215,"o":"m 347 1302 l 347 1389 l 781 1389 l 1215 1389 l 1215 1302 l 1215 1215 l 1042 1215 l 868 1215 l 868 1042 l 868 868 l 1042 868 l 1215 868 l 1215 781 l 1215 694 l 1042 694 l 868 694 l 868 521 l 868 347 l 1042 347 l 1215 347 l 1215 260 l 1215 174 l 868 174 l 521 174 l 521 347 l 521 521 l 434 521 l 347 521 l 347 347 l 347 174 l 174 174 l 0 174 l 0 608 l 0 1042 l 87 1042 l 174 1042 l 174 1128 l 174 1215 l 260 1215 l 347 1215 l 347 1302 m 521 868 l 521 1042 l 434 1042 l 347 1042 l 347 868 l 347 694 l 434 694 l 521 694 l 521 868 z "},"Ç":{"ha":1389,"x_min":0,"x_max":1215,"o":"m 347 1302 l 347 1389 l 694 1389 l 1042 1389 l 1042 1302 l 1042 1215 l 1128 1215 l 1215 1215 l 1215 1128 l 1215 1042 l 1042 1042 l 868 1042 l 868 1128 l 868 1215 l 694 1215 l 521 1215 l 521 1128 l 521 1042 l 434 1042 l 347 1042 l 347 868 l 347 694 l 434 694 l 521 694 l 521 608 l 521 521 l 694 521 l 868 521 l 868 608 l 868 694 l 1042 694 l 1215 694 l 1215 608 l 1215 521 l 1128 521 l 1042 521 l 1042 434 l 1042 347 l 955 347 l 868 347 l 868 260 l 868 174 l 781 174 l 694 174 l 694 87 l 694 0 l 521 0 l 347 0 l 347 87 l 347 174 l 521 174 l 694 174 l 694 260 l 694 347 l 521 347 l 347 347 l 347 434 l 347 521 l 260 521 l 174 521 l 174 608 l 174 694 l 87 694 l 0 694 l 0 868 l 0 1042 l 87 1042 l 174 1042 l 174 1128 l 174 1215 l 260 1215 l 347 1215 l 347 1302 z "},"È":{"ha":1389,"x_min":0,"x_max":1215,"o":"m 347 1302 l 347 1389 l 434 1389 l 521 1389 l 521 1302 l 521 1215 l 608 1215 l 694 1215 l 694 1128 l 694 1042 l 955 1042 l 1215 1042 l 1215 955 l 1215 868 l 781 868 l 347 868 l 347 781 l 347 694 l 694 694 l 1042 694 l 1042 608 l 1042 521 l 694 521 l 347 521 l 347 434 l 347 347 l 781 347 l 1215 347 l 1215 260 l 1215 174 l 608 174 l 0 174 l 0 608 l 0 1042 l 260 1042 l 521 1042 l 521 1128 l 521 1215 l 434 1215 l 347 1215 l 347 1302 z "},"É":{"ha":1389,"x_min":0,"x_max":1215,"o":"m 694 1302 l 694 1389 l 781 1389 l 868 1389 l 868 1302 l 868 1215 l 781 1215 l 694 1215 l 694 1128 l 694 1042 l 955 1042 l 1215 1042 l 1215 955 l 1215 868 l 781 868 l 347 868 l 347 781 l 347 694 l 694 694 l 1042 694 l 1042 608 l 1042 521 l 694 521 l 347 521 l 347 434 l 347 347 l 781 347 l 1215 347 l 1215 260 l 1215 174 l 608 174 l 0 174 l 0 608 l 0 1042 l 260 1042 l 521 1042 l 521 1128 l 521 1215 l 608 1215 l 694 1215 l 694 1302 z "},"Ê":{"ha":1389,"x_min":0,"x_max":1215,"o":"m 347 1302 l 347 1389 l 608 1389 l 868 1389 l 868 1302 l 868 1215 l 955 1215 l 1042 1215 l 1042 1128 l 1042 1042 l 1128 1042 l 1215 1042 l 1215 955 l 1215 868 l 781 868 l 347 868 l 347 781 l 347 694 l 694 694 l 1042 694 l 1042 608 l 1042 521 l 694 521 l 347 521 l 347 434 l 347 347 l 781 347 l 1215 347 l 1215 260 l 1215 174 l 608 174 l 0 174 l 0 608 l 0 1042 l 87 1042 l 174 1042 l 174 1128 l 174 1215 l 260 1215 l 347 1215 l 347 1302 m 694 1128 l 694 1215 l 608 1215 l 521 1215 l 521 1128 l 521 1042 l 608 1042 l 694 1042 l 694 1128 z "},"Ë":{"ha":1389,"x_min":0,"x_max":1215,"o":"m 0 608 l 0 1042 l 608 1042 l 1215 1042 l 1215 955 l 1215 868 l 781 868 l 347 868 l 347 781 l 347 694 l 694 694 l 1042 694 l 1042 608 l 1042 521 l 694 521 l 347 521 l 347 434 l 347 347 l 781 347 l 1215 347 l 1215 260 l 1215 174 l 608 174 l 0 174 l 0 608 m 694 1302 l 694 1389 l 868 1389 l 1042 1389 l 1042 1302 l 1042 1215 l 868 1215 l 694 1215 l 694 1302 m 174 1302 l 174 1389 l 347 1389 l 521 1389 l 521 1302 l 521 1215 l 347 1215 l 174 1215 l 174 1302 z "},"Ì":{"ha":1389,"x_min":174,"x_max":1215,"o":"m 521 1302 l 521 1389 l 608 1389 l 694 1389 l 694 1302 l 694 1215 l 781 1215 l 868 1215 l 868 1128 l 868 1042 l 1042 1042 l 1215 1042 l 1215 955 l 1215 868 l 1042 868 l 868 868 l 868 608 l 868 347 l 1042 347 l 1215 347 l 1215 260 l 1215 174 l 694 174 l 174 174 l 174 260 l 174 347 l 347 347 l 521 347 l 521 608 l 521 868 l 347 868 l 174 868 l 174 955 l 174 1042 l 434 1042 l 694 1042 l 694 1128 l 694 1215 l 608 1215 l 521 1215 l 521 1302 z "},"Í":{"ha":1389,"x_min":174,"x_max":1215,"o":"m 694 1302 l 694 1389 l 781 1389 l 868 1389 l 868 1302 l 868 1215 l 781 1215 l 694 1215 l 694 1128 l 694 1042 l 955 1042 l 1215 1042 l 1215 955 l 1215 868 l 1042 868 l 868 868 l 868 608 l 868 347 l 1042 347 l 1215 347 l 1215 260 l 1215 174 l 694 174 l 174 174 l 174 260 l 174 347 l 347 347 l 521 347 l 521 608 l 521 868 l 347 868 l 174 868 l 174 955 l 174 1042 l 347 1042 l 521 1042 l 521 1128 l 521 1215 l 608 1215 l 694 1215 l 694 1302 z "},"Î":{"ha":1389,"x_min":174,"x_max":1215,"o":"m 521 1302 l 521 1389 l 694 1389 l 868 1389 l 868 1302 l 868 1215 l 955 1215 l 1042 1215 l 1042 1128 l 1042 1042 l 1128 1042 l 1215 1042 l 1215 955 l 1215 868 l 1042 868 l 868 868 l 868 608 l 868 347 l 1042 347 l 1215 347 l 1215 260 l 1215 174 l 694 174 l 174 174 l 174 260 l 174 347 l 347 347 l 521 347 l 521 608 l 521 868 l 347 868 l 174 868 l 174 955 l 174 1042 l 260 1042 l 347 1042 l 347 1128 l 347 1215 l 434 1215 l 521 1215 l 521 1302 z "},"Ï":{"ha":1389,"x_min":174,"x_max":1215,"o":"m 174 955 l 174 1042 l 694 1042 l 1215 1042 l 1215 955 l 1215 868 l 1042 868 l 868 868 l 868 608 l 868 347 l 1042 347 l 1215 347 l 1215 260 l 1215 174 l 694 174 l 174 174 l 174 260 l 174 347 l 347 347 l 521 347 l 521 608 l 521 868 l 347 868 l 174 868 l 174 955 m 868 1302 l 868 1389 l 1042 1389 l 1215 1389 l 1215 1302 l 1215 1215 l 1042 1215 l 868 1215 l 868 1302 m 174 1302 l 174 1389 l 347 1389 l 521 1389 l 521 1302 l 521 1215 l 347 1215 l 174 1215 l 174 1302 z "},"Ð":{"ha":1389,"x_min":0,"x_max":1215,"o":"m 174 1128 l 174 1389 l 521 1389 l 868 1389 l 868 1302 l 868 1215 l 955 1215 l 1042 1215 l 1042 1128 l 1042 1042 l 1128 1042 l 1215 1042 l 1215 781 l 1215 521 l 1128 521 l 1042 521 l 1042 434 l 1042 347 l 955 347 l 868 347 l 868 260 l 868 174 l 521 174 l 174 174 l 174 434 l 174 694 l 87 694 l 0 694 l 0 781 l 0 868 l 87 868 l 174 868 l 174 1128 m 694 1128 l 694 1215 l 608 1215 l 521 1215 l 521 1042 l 521 868 l 608 868 l 694 868 l 694 781 l 694 694 l 608 694 l 521 694 l 521 521 l 521 347 l 608 347 l 694 347 l 694 434 l 694 521 l 781 521 l 868 521 l 868 781 l 868 1042 l 781 1042 l 694 1042 l 694 1128 z "},"Ñ":{"ha":1389,"x_min":0,"x_max":1215,"o":"m 347 1302 l 347 1389 l 521 1389 l 694 1389 l 694 1302 l 694 1215 l 781 1215 l 868 1215 l 868 1302 l 868 1389 l 955 1389 l 1042 1389 l 1042 1302 l 1042 1215 l 955 1215 l 868 1215 l 868 1128 l 868 1042 l 1042 1042 l 1215 1042 l 1215 608 l 1215 174 l 955 174 l 694 174 l 694 260 l 694 347 l 608 347 l 521 347 l 521 434 l 521 521 l 434 521 l 347 521 l 347 347 l 347 174 l 174 174 l 0 174 l 0 608 l 0 1042 l 87 1042 l 174 1042 l 174 1128 l 174 1215 l 260 1215 l 347 1215 l 347 1302 m 521 1128 l 521 1215 l 434 1215 l 347 1215 l 347 1128 l 347 1042 l 434 1042 l 521 1042 l 521 955 l 521 868 l 608 868 l 694 868 l 694 781 l 694 694 l 781 694 l 868 694 l 868 868 l 868 1042 l 694 1042 l 521 1042 l 521 1128 z "},"Ò":{"ha":1389,"x_min":0,"x_max":1215,"o":"m 347 1302 l 347 1389 l 434 1389 l 521 1389 l 521 1302 l 521 1215 l 608 1215 l 694 1215 l 694 1128 l 694 1042 l 868 1042 l 1042 1042 l 1042 955 l 1042 868 l 1128 868 l 1215 868 l 1215 608 l 1215 347 l 1128 347 l 1042 347 l 1042 260 l 1042 174 l 608 174 l 174 174 l 174 260 l 174 347 l 87 347 l 0 347 l 0 608 l 0 868 l 87 868 l 174 868 l 174 955 l 174 1042 l 347 1042 l 521 1042 l 521 1128 l 521 1215 l 434 1215 l 347 1215 l 347 1302 m 868 608 l 868 868 l 608 868 l 347 868 l 347 608 l 347 347 l 608 347 l 868 347 l 868 608 z "},"Ó":{"ha":1389,"x_min":0,"x_max":1215,"o":"m 694 1302 l 694 1389 l 781 1389 l 868 1389 l 868 1302 l 868 1215 l 781 1215 l 694 1215 l 694 1128 l 694 1042 l 868 1042 l 1042 1042 l 1042 955 l 1042 868 l 1128 868 l 1215 868 l 1215 608 l 1215 347 l 1128 347 l 1042 347 l 1042 260 l 1042 174 l 608 174 l 174 174 l 174 260 l 174 347 l 87 347 l 0 347 l 0 608 l 0 868 l 87 868 l 174 868 l 174 955 l 174 1042 l 347 1042 l 521 1042 l 521 1128 l 521 1215 l 608 1215 l 694 1215 l 694 1302 m 868 608 l 868 868 l 608 868 l 347 868 l 347 608 l 347 347 l 608 347 l 868 347 l 868 608 z "},"Ô":{"ha":1389,"x_min":0,"x_max":1215,"o":"m 347 1302 l 347 1389 l 608 1389 l 868 1389 l 868 1302 l 868 1215 l 955 1215 l 1042 1215 l 1042 1042 l 1042 868 l 1128 868 l 1215 868 l 1215 608 l 1215 347 l 1128 347 l 1042 347 l 1042 260 l 1042 174 l 608 174 l 174 174 l 174 260 l 174 347 l 87 347 l 0 347 l 0 608 l 0 868 l 87 868 l 174 868 l 174 1042 l 174 1215 l 260 1215 l 347 1215 l 347 1302 m 694 1128 l 694 1215 l 608 1215 l 521 1215 l 521 1128 l 521 1042 l 608 1042 l 694 1042 l 694 1128 m 868 608 l 868 868 l 608 868 l 347 868 l 347 608 l 347 347 l 608 347 l 868 347 l 868 608 z "},"Õ":{"ha":1389,"x_min":0,"x_max":1215,"o":"m 347 1302 l 347 1389 l 521 1389 l 694 1389 l 694 1302 l 694 1215 l 781 1215 l 868 1215 l 868 1302 l 868 1389 l 955 1389 l 1042 1389 l 1042 1302 l 1042 1215 l 955 1215 l 868 1215 l 868 1128 l 868 1042 l 955 1042 l 1042 1042 l 1042 955 l 1042 868 l 1128 868 l 1215 868 l 1215 608 l 1215 347 l 1128 347 l 1042 347 l 1042 260 l 1042 174 l 608 174 l 174 174 l 174 260 l 174 347 l 87 347 l 0 347 l 0 608 l 0 868 l 87 868 l 174 868 l 174 1042 l 174 1215 l 260 1215 l 347 1215 l 347 1302 m 521 1128 l 521 1215 l 434 1215 l 347 1215 l 347 1128 l 347 1042 l 434 1042 l 521 1042 l 521 1128 m 868 608 l 868 868 l 608 868 l 347 868 l 347 608 l 347 347 l 608 347 l 868 347 l 868 608 z "},"Ö":{"ha":1389,"x_min":0,"x_max":1215,"o":"m 174 955 l 174 1042 l 608 1042 l 1042 1042 l 1042 955 l 1042 868 l 1128 868 l 1215 868 l 1215 608 l 1215 347 l 1128 347 l 1042 347 l 1042 260 l 1042 174 l 608 174 l 174 174 l 174 260 l 174 347 l 87 347 l 0 347 l 0 608 l 0 868 l 87 868 l 174 868 l 174 955 m 868 608 l 868 868 l 608 868 l 347 868 l 347 608 l 347 347 l 608 347 l 868 347 l 868 608 m 694 1302 l 694 1389 l 868 1389 l 1042 1389 l 1042 1302 l 1042 1215 l 868 1215 l 694 1215 l 694 1302 m 174 1302 l 174 1389 l 347 1389 l 521 1389 l 521 1302 l 521 1215 l 347 1215 l 174 1215 l 174 1302 z "},"×":{"ha":1389,"x_min":174,"x_max":1042,"o":"m 174 1128 l 174 1215 l 260 1215 l 347 1215 l 347 1128 l 347 1042 l 434 1042 l 521 1042 l 521 955 l 521 868 l 608 868 l 694 868 l 694 955 l 694 1042 l 781 1042 l 868 1042 l 868 1128 l 868 1215 l 955 1215 l 1042 1215 l 1042 1128 l 1042 1042 l 955 1042 l 868 1042 l 868 955 l 868 868 l 781 868 l 694 868 l 694 781 l 694 694 l 781 694 l 868 694 l 868 608 l 868 521 l 955 521 l 1042 521 l 1042 434 l 1042 347 l 955 347 l 868 347 l 868 434 l 868 521 l 781 521 l 694 521 l 694 608 l 694 694 l 608 694 l 521 694 l 521 608 l 521 521 l 434 521 l 347 521 l 347 434 l 347 347 l 260 347 l 174 347 l 174 434 l 174 521 l 260 521 l 347 521 l 347 608 l 347 694 l 434 694 l 521 694 l 521 781 l 521 868 l 434 868 l 347 868 l 347 955 l 347 1042 l 260 1042 l 174 1042 l 174 1128 z "},"Ø":{"ha":1389,"x_min":0,"x_max":1215,"o":"m 521 781 l 521 868 l 608 868 l 694 868 l 694 781 l 694 694 l 608 694 l 521 694 l 521 781 m 174 1302 l 174 1389 l 608 1389 l 1042 1389 l 1042 1302 l 1042 1215 l 1128 1215 l 1215 1215 l 1215 781 l 1215 347 l 1128 347 l 1042 347 l 1042 260 l 1042 174 l 608 174 l 174 174 l 174 260 l 174 347 l 87 347 l 0 347 l 0 781 l 0 1215 l 87 1215 l 174 1215 l 174 1302 m 868 1128 l 868 1215 l 608 1215 l 347 1215 l 347 955 l 347 694 l 434 694 l 521 694 l 521 608 l 521 521 l 434 521 l 347 521 l 347 434 l 347 347 l 608 347 l 868 347 l 868 608 l 868 868 l 781 868 l 694 868 l 694 955 l 694 1042 l 781 1042 l 868 1042 l 868 1128 z "},"Ù":{"ha":1389,"x_min":0,"x_max":1215,"o":"m 0 694 l 0 1042 l 174 1042 l 347 1042 l 347 694 l 347 347 l 608 347 l 868 347 l 868 694 l 868 1042 l 1042 1042 l 1215 1042 l 1215 694 l 1215 347 l 1128 347 l 1042 347 l 1042 260 l 1042 174 l 608 174 l 174 174 l 174 260 l 174 347 l 87 347 l 0 347 l 0 694 m 347 1302 l 347 1389 l 434 1389 l 521 1389 l 521 1302 l 521 1215 l 608 1215 l 694 1215 l 694 1128 l 694 1042 l 608 1042 l 521 1042 l 521 1128 l 521 1215 l 434 1215 l 347 1215 l 347 1302 z "},"Ú":{"ha":1389,"x_min":0,"x_max":1215,"o":"m 0 694 l 0 1042 l 174 1042 l 347 1042 l 347 694 l 347 347 l 608 347 l 868 347 l 868 694 l 868 1042 l 1042 1042 l 1215 1042 l 1215 694 l 1215 347 l 1128 347 l 1042 347 l 1042 260 l 1042 174 l 608 174 l 174 174 l 174 260 l 174 347 l 87 347 l 0 347 l 0 694 m 694 1302 l 694 1389 l 781 1389 l 868 1389 l 868 1302 l 868 1215 l 781 1215 l 694 1215 l 694 1128 l 694 1042 l 608 1042 l 521 1042 l 521 1128 l 521 1215 l 608 1215 l 694 1215 l 694 1302 z "},"Û":{"ha":1389,"x_min":0,"x_max":1215,"o":"m 0 608 l 0 868 l 174 868 l 347 868 l 347 608 l 347 347 l 608 347 l 868 347 l 868 608 l 868 868 l 1042 868 l 1215 868 l 1215 608 l 1215 347 l 1128 347 l 1042 347 l 1042 260 l 1042 174 l 608 174 l 174 174 l 174 260 l 174 347 l 87 347 l 0 347 l 0 608 m 347 1302 l 347 1389 l 608 1389 l 868 1389 l 868 1302 l 868 1215 l 955 1215 l 1042 1215 l 1042 1128 l 1042 1042 l 868 1042 l 694 1042 l 694 1128 l 694 1215 l 608 1215 l 521 1215 l 521 1128 l 521 1042 l 347 1042 l 174 1042 l 174 1128 l 174 1215 l 260 1215 l 347 1215 l 347 1302 z "},"Ü":{"ha":1389,"x_min":0,"x_max":1215,"o":"m 0 694 l 0 1042 l 174 1042 l 347 1042 l 347 694 l 347 347 l 608 347 l 868 347 l 868 694 l 868 1042 l 1042 1042 l 1215 1042 l 1215 694 l 1215 347 l 1128 347 l 1042 347 l 1042 260 l 1042 174 l 608 174 l 174 174 l 174 260 l 174 347 l 87 347 l 0 347 l 0 694 m 694 1302 l 694 1389 l 868 1389 l 1042 1389 l 1042 1302 l 1042 1215 l 868 1215 l 694 1215 l 694 1302 m 174 1302 l 174 1389 l 347 1389 l 521 1389 l 521 1302 l 521 1215 l 347 1215 l 174 1215 l 174 1302 z "},"Ý":{"ha":1389,"x_min":174,"x_max":1215,"o":"m 694 1302 l 694 1389 l 781 1389 l 868 1389 l 868 1302 l 868 1215 l 781 1215 l 694 1215 l 694 1128 l 694 1042 l 608 1042 l 521 1042 l 521 868 l 521 694 l 694 694 l 868 694 l 868 868 l 868 1042 l 1042 1042 l 1215 1042 l 1215 868 l 1215 694 l 1128 694 l 1042 694 l 1042 608 l 1042 521 l 955 521 l 868 521 l 868 347 l 868 174 l 694 174 l 521 174 l 521 347 l 521 521 l 434 521 l 347 521 l 347 608 l 347 694 l 260 694 l 174 694 l 174 868 l 174 1042 l 347 1042 l 521 1042 l 521 1128 l 521 1215 l 608 1215 l 694 1215 l 694 1302 z "},"Þ":{"ha":1389,"x_min":0,"x_max":1215,"o":"m 0 781 l 0 1389 l 174 1389 l 347 1389 l 347 1302 l 347 1215 l 694 1215 l 1042 1215 l 1042 1128 l 1042 1042 l 1128 1042 l 1215 1042 l 1215 781 l 1215 521 l 1128 521 l 1042 521 l 1042 434 l 1042 347 l 694 347 l 347 347 l 347 260 l 347 174 l 174 174 l 0 174 l 0 781 m 868 781 l 868 1042 l 608 1042 l 347 1042 l 347 781 l 347 521 l 608 521 l 868 521 l 868 781 z "},"ß":{"ha":1389,"x_min":174,"x_max":1215,"o":"m 347 1302 l 347 1389 l 694 1389 l 1042 1389 l 1042 1302 l 1042 1215 l 1128 1215 l 1215 1215 l 1215 1042 l 1215 868 l 1128 868 l 1042 868 l 1042 781 l 1042 694 l 1128 694 l 1215 694 l 1215 521 l 1215 347 l 1128 347 l 1042 347 l 1042 260 l 1042 174 l 868 174 l 694 174 l 694 260 l 694 347 l 608 347 l 521 347 l 521 260 l 521 174 l 347 174 l 174 174 l 174 694 l 174 1215 l 260 1215 l 347 1215 l 347 1302 m 868 1042 l 868 1215 l 694 1215 l 521 1215 l 521 868 l 521 521 l 608 521 l 694 521 l 694 434 l 694 347 l 781 347 l 868 347 l 868 521 l 868 694 l 781 694 l 694 694 l 694 781 l 694 868 l 781 868 l 868 868 l 868 1042 z "},"à":{"ha":1389,"x_min":0,"x_max":1215,"o":"m 347 1302 l 347 1389 l 434 1389 l 521 1389 l 521 1302 l 521 1215 l 608 1215 l 694 1215 l 694 1128 l 694 1042 l 868 1042 l 1042 1042 l 1042 955 l 1042 868 l 1128 868 l 1215 868 l 1215 521 l 1215 174 l 694 174 l 174 174 l 174 260 l 174 347 l 87 347 l 0 347 l 0 434 l 0 521 l 87 521 l 174 521 l 174 608 l 174 694 l 521 694 l 868 694 l 868 781 l 868 868 l 521 868 l 174 868 l 174 955 l 174 1042 l 347 1042 l 521 1042 l 521 1128 l 521 1215 l 434 1215 l 347 1215 l 347 1302 m 868 434 l 868 521 l 608 521 l 347 521 l 347 434 l 347 347 l 608 347 l 868 347 l 868 434 z "},"á":{"ha":1389,"x_min":0,"x_max":1215,"o":"m 694 1302 l 694 1389 l 781 1389 l 868 1389 l 868 1302 l 868 1215 l 781 1215 l 694 1215 l 694 1128 l 694 1042 l 868 1042 l 1042 1042 l 1042 955 l 1042 868 l 1128 868 l 1215 868 l 1215 521 l 1215 174 l 694 174 l 174 174 l 174 260 l 174 347 l 87 347 l 0 347 l 0 434 l 0 521 l 87 521 l 174 521 l 174 608 l 174 694 l 521 694 l 868 694 l 868 781 l 868 868 l 521 868 l 174 868 l 174 955 l 174 1042 l 347 1042 l 521 1042 l 521 1128 l 521 1215 l 608 1215 l 694 1215 l 694 1302 m 868 434 l 868 521 l 608 521 l 347 521 l 347 434 l 347 347 l 608 347 l 868 347 l 868 434 z "},"â":{"ha":1389,"x_min":0,"x_max":1215,"o":"m 347 1302 l 347 1389 l 608 1389 l 868 1389 l 868 1302 l 868 1215 l 955 1215 l 1042 1215 l 1042 1042 l 1042 868 l 1128 868 l 1215 868 l 1215 521 l 1215 174 l 694 174 l 174 174 l 174 260 l 174 347 l 87 347 l 0 347 l 0 434 l 0 521 l 87 521 l 174 521 l 174 608 l 174 694 l 521 694 l 868 694 l 868 781 l 868 868 l 521 868 l 174 868 l 174 1042 l 174 1215 l 260 1215 l 347 1215 l 347 1302 m 694 1128 l 694 1215 l 608 1215 l 521 1215 l 521 1128 l 521 1042 l 608 1042 l 694 1042 l 694 1128 m 868 434 l 868 521 l 608 521 l 347 521 l 347 434 l 347 347 l 608 347 l 868 347 l 868 434 z "},"ã":{"ha":1389,"x_min":0,"x_max":1215,"o":"m 347 1302 l 347 1389 l 521 1389 l 694 1389 l 694 1302 l 694 1215 l 781 1215 l 868 1215 l 868 1302 l 868 1389 l 955 1389 l 1042 1389 l 1042 1302 l 1042 1215 l 955 1215 l 868 1215 l 868 1128 l 868 1042 l 955 1042 l 1042 1042 l 1042 955 l 1042 868 l 1128 868 l 1215 868 l 1215 521 l 1215 174 l 694 174 l 174 174 l 174 260 l 174 347 l 87 347 l 0 347 l 0 434 l 0 521 l 87 521 l 174 521 l 174 608 l 174 694 l 521 694 l 868 694 l 868 781 l 868 868 l 521 868 l 174 868 l 174 1042 l 174 1215 l 260 1215 l 347 1215 l 347 1302 m 521 1128 l 521 1215 l 434 1215 l 347 1215 l 347 1128 l 347 1042 l 434 1042 l 521 1042 l 521 1128 m 868 434 l 868 521 l 608 521 l 347 521 l 347 434 l 347 347 l 608 347 l 868 347 l 868 434 z "},"ä":{"ha":1389,"x_min":0,"x_max":1215,"o":"m 174 955 l 174 1042 l 608 1042 l 1042 1042 l 1042 955 l 1042 868 l 1128 868 l 1215 868 l 1215 521 l 1215 174 l 694 174 l 174 174 l 174 260 l 174 347 l 87 347 l 0 347 l 0 434 l 0 521 l 87 521 l 174 521 l 174 608 l 174 694 l 521 694 l 868 694 l 868 781 l 868 868 l 521 868 l 174 868 l 174 955 m 868 434 l 868 521 l 608 521 l 347 521 l 347 434 l 347 347 l 608 347 l 868 347 l 868 434 m 694 1302 l 694 1389 l 868 1389 l 1042 1389 l 1042 1302 l 1042 1215 l 868 1215 l 694 1215 l 694 1302 m 174 1302 l 174 1389 l 347 1389 l 521 1389 l 521 1302 l 521 1215 l 347 1215 l 174 1215 l 174 1302 z "},"å":{"ha":1389,"x_min":0,"x_max":1215,"o":"m 521 1302 l 521 1389 l 608 1389 l 694 1389 l 694 1302 l 694 1215 l 781 1215 l 868 1215 l 868 1128 l 868 1042 l 955 1042 l 1042 1042 l 1042 955 l 1042 868 l 1128 868 l 1215 868 l 1215 521 l 1215 174 l 694 174 l 174 174 l 174 260 l 174 347 l 87 347 l 0 347 l 0 434 l 0 521 l 87 521 l 174 521 l 174 608 l 174 694 l 521 694 l 868 694 l 868 781 l 868 868 l 521 868 l 174 868 l 174 955 l 174 1042 l 260 1042 l 347 1042 l 347 1128 l 347 1215 l 434 1215 l 521 1215 l 521 1302 m 694 1128 l 694 1215 l 608 1215 l 521 1215 l 521 1128 l 521 1042 l 608 1042 l 694 1042 l 694 1128 m 868 434 l 868 521 l 608 521 l 347 521 l 347 434 l 347 347 l 608 347 l 868 347 l 868 434 z "},"æ":{"ha":1389,"x_min":0,"x_max":1215,"o":"m 174 955 l 174 1042 l 608 1042 l 1042 1042 l 1042 955 l 1042 868 l 1128 868 l 1215 868 l 1215 694 l 1215 521 l 955 521 l 694 521 l 694 434 l 694 347 l 868 347 l 1042 347 l 1042 260 l 1042 174 l 608 174 l 174 174 l 174 260 l 174 347 l 87 347 l 0 347 l 0 434 l 0 521 l 87 521 l 174 521 l 174 608 l 174 694 l 347 694 l 521 694 l 521 781 l 521 868 l 347 868 l 174 868 l 174 955 m 868 781 l 868 868 l 781 868 l 694 868 l 694 781 l 694 694 l 781 694 l 868 694 l 868 781 m 521 434 l 521 521 l 434 521 l 347 521 l 347 434 l 347 347 l 434 347 l 521 347 l 521 434 z "},"ç":{"ha":1389,"x_min":0,"x_max":1215,"o":"m 174 955 l 174 1042 l 694 1042 l 1215 1042 l 1215 955 l 1215 868 l 781 868 l 347 868 l 347 694 l 347 521 l 781 521 l 1215 521 l 1215 434 l 1215 347 l 1042 347 l 868 347 l 868 260 l 868 174 l 781 174 l 694 174 l 694 87 l 694 0 l 521 0 l 347 0 l 347 87 l 347 174 l 521 174 l 694 174 l 694 260 l 694 347 l 434 347 l 174 347 l 174 434 l 174 521 l 87 521 l 0 521 l 0 694 l 0 868 l 87 868 l 174 868 l 174 955 z "},"è":{"ha":1389,"x_min":0,"x_max":1215,"o":"m 347 1302 l 347 1389 l 434 1389 l 521 1389 l 521 1302 l 521 1215 l 608 1215 l 694 1215 l 694 1128 l 694 1042 l 868 1042 l 1042 1042 l 1042 955 l 1042 868 l 1128 868 l 1215 868 l 1215 694 l 1215 521 l 781 521 l 347 521 l 347 434 l 347 347 l 694 347 l 1042 347 l 1042 260 l 1042 174 l 608 174 l 174 174 l 174 260 l 174 347 l 87 347 l 0 347 l 0 608 l 0 868 l 87 868 l 174 868 l 174 955 l 174 1042 l 347 1042 l 521 1042 l 521 1128 l 521 1215 l 434 1215 l 347 1215 l 347 1302 m 868 781 l 868 868 l 608 868 l 347 868 l 347 781 l 347 694 l 608 694 l 868 694 l 868 781 z "},"é":{"ha":1389,"x_min":0,"x_max":1215,"o":"m 694 1302 l 694 1389 l 781 1389 l 868 1389 l 868 1302 l 868 1215 l 781 1215 l 694 1215 l 694 1128 l 694 1042 l 868 1042 l 1042 1042 l 1042 955 l 1042 868 l 1128 868 l 1215 868 l 1215 694 l 1215 521 l 781 521 l 347 521 l 347 434 l 347 347 l 694 347 l 1042 347 l 1042 260 l 1042 174 l 608 174 l 174 174 l 174 260 l 174 347 l 87 347 l 0 347 l 0 608 l 0 868 l 87 868 l 174 868 l 174 955 l 174 1042 l 347 1042 l 521 1042 l 521 1128 l 521 1215 l 608 1215 l 694 1215 l 694 1302 m 868 781 l 868 868 l 608 868 l 347 868 l 347 781 l 347 694 l 608 694 l 868 694 l 868 781 z "},"ê":{"ha":1389,"x_min":0,"x_max":1215,"o":"m 347 1302 l 347 1389 l 608 1389 l 868 1389 l 868 1302 l 868 1215 l 955 1215 l 1042 1215 l 1042 1042 l 1042 868 l 1128 868 l 1215 868 l 1215 694 l 1215 521 l 781 521 l 347 521 l 347 434 l 347 347 l 694 347 l 1042 347 l 1042 260 l 1042 174 l 608 174 l 174 174 l 174 260 l 174 347 l 87 347 l 0 347 l 0 608 l 0 868 l 87 868 l 174 868 l 174 1042 l 174 1215 l 260 1215 l 347 1215 l 347 1302 m 694 1128 l 694 1215 l 608 1215 l 521 1215 l 521 1128 l 521 1042 l 608 1042 l 694 1042 l 694 1128 m 868 781 l 868 868 l 608 868 l 347 868 l 347 781 l 347 694 l 608 694 l 868 694 l 868 781 z "},"ë":{"ha":1389,"x_min":0,"x_max":1215,"o":"m 174 955 l 174 1042 l 608 1042 l 1042 1042 l 1042 955 l 1042 868 l 1128 868 l 1215 868 l 1215 694 l 1215 521 l 781 521 l 347 521 l 347 434 l 347 347 l 694 347 l 1042 347 l 1042 260 l 1042 174 l 608 174 l 174 174 l 174 260 l 174 347 l 87 347 l 0 347 l 0 608 l 0 868 l 87 868 l 174 868 l 174 955 m 868 781 l 868 868 l 608 868 l 347 868 l 347 781 l 347 694 l 608 694 l 868 694 l 868 781 m 694 1302 l 694 1389 l 868 1389 l 1042 1389 l 1042 1302 l 1042 1215 l 868 1215 l 694 1215 l 694 1302 m 174 1302 l 174 1389 l 347 1389 l 521 1389 l 521 1302 l 521 1215 l 347 1215 l 174 1215 l 174 1302 z "},"ì":{"ha":1389,"x_min":174,"x_max":1215,"o":"m 347 781 l 347 868 l 608 868 l 868 868 l 868 608 l 868 347 l 1042 347 l 1215 347 l 1215 260 l 1215 174 l 694 174 l 174 174 l 174 260 l 174 347 l 347 347 l 521 347 l 521 521 l 521 694 l 434 694 l 347 694 l 347 781 m 347 1302 l 347 1389 l 434 1389 l 521 1389 l 521 1302 l 521 1215 l 608 1215 l 694 1215 l 694 1128 l 694 1042 l 608 1042 l 521 1042 l 521 1128 l 521 1215 l 434 1215 l 347 1215 l 347 1302 z "},"í":{"ha":1389,"x_min":174,"x_max":1215,"o":"m 347 781 l 347 868 l 608 868 l 868 868 l 868 608 l 868 347 l 1042 347 l 1215 347 l 1215 260 l 1215 174 l 694 174 l 174 174 l 174 260 l 174 347 l 347 347 l 521 347 l 521 521 l 521 694 l 434 694 l 347 694 l 347 781 m 694 1302 l 694 1389 l 781 1389 l 868 1389 l 868 1302 l 868 1215 l 781 1215 l 694 1215 l 694 1128 l 694 1042 l 608 1042 l 521 1042 l 521 1128 l 521 1215 l 608 1215 l 694 1215 l 694 1302 z "},"î":{"ha":1389,"x_min":174,"x_max":1215,"o":"m 347 781 l 347 868 l 608 868 l 868 868 l 868 608 l 868 347 l 1042 347 l 1215 347 l 1215 260 l 1215 174 l 694 174 l 174 174 l 174 260 l 174 347 l 347 347 l 521 347 l 521 521 l 521 694 l 434 694 l 347 694 l 347 781 m 347 1302 l 347 1389 l 608 1389 l 868 1389 l 868 1302 l 868 1215 l 955 1215 l 1042 1215 l 1042 1128 l 1042 1042 l 868 1042 l 694 1042 l 694 1128 l 694 1215 l 608 1215 l 521 1215 l 521 1128 l 521 1042 l 347 1042 l 174 1042 l 174 1128 l 174 1215 l 260 1215 l 347 1215 l 347 1302 z "},"ï":{"ha":1389,"x_min":174,"x_max":1215,"o":"m 347 955 l 347 1042 l 608 1042 l 868 1042 l 868 694 l 868 347 l 1042 347 l 1215 347 l 1215 260 l 1215 174 l 694 174 l 174 174 l 174 260 l 174 347 l 347 347 l 521 347 l 521 608 l 521 868 l 434 868 l 347 868 l 347 955 m 694 1302 l 694 1389 l 868 1389 l 1042 1389 l 1042 1302 l 1042 1215 l 868 1215 l 694 1215 l 694 1302 m 174 1302 l 174 1389 l 347 1389 l 521 1389 l 521 1302 l 521 1215 l 347 1215 l 174 1215 l 174 1302 z "},"ð":{"ha":1389,"x_min":0,"x_max":1215,"o":"m 174 1215 l 174 1389 l 347 1389 l 521 1389 l 521 1302 l 521 1215 l 694 1215 l 868 1215 l 868 1302 l 868 1389 l 955 1389 l 1042 1389 l 1042 1302 l 1042 1215 l 955 1215 l 868 1215 l 868 1042 l 868 868 l 955 868 l 1042 868 l 1042 781 l 1042 694 l 1128 694 l 1215 694 l 1215 521 l 1215 347 l 1128 347 l 1042 347 l 1042 260 l 1042 174 l 608 174 l 174 174 l 174 260 l 174 347 l 87 347 l 0 347 l 0 521 l 0 694 l 87 694 l 174 694 l 174 781 l 174 868 l 87 868 l 0 868 l 0 955 l 0 1042 l 87 1042 l 174 1042 l 174 1215 m 521 955 l 521 1042 l 347 1042 l 174 1042 l 174 955 l 174 868 l 347 868 l 521 868 l 521 955 m 868 521 l 868 694 l 608 694 l 347 694 l 347 521 l 347 347 l 608 347 l 868 347 l 868 521 z "},"ñ":{"ha":1389,"x_min":0,"x_max":1215,"o":"m 347 1302 l 347 1389 l 521 1389 l 694 1389 l 694 1302 l 694 1215 l 781 1215 l 868 1215 l 868 1302 l 868 1389 l 955 1389 l 1042 1389 l 1042 1302 l 1042 1215 l 955 1215 l 868 1215 l 868 1128 l 868 1042 l 955 1042 l 1042 1042 l 1042 955 l 1042 868 l 1128 868 l 1215 868 l 1215 521 l 1215 174 l 1042 174 l 868 174 l 868 521 l 868 868 l 608 868 l 347 868 l 347 521 l 347 174 l 174 174 l 0 174 l 0 608 l 0 1042 l 87 1042 l 174 1042 l 174 1128 l 174 1215 l 260 1215 l 347 1215 l 347 1302 m 521 1128 l 521 1215 l 434 1215 l 347 1215 l 347 1128 l 347 1042 l 434 1042 l 521 1042 l 521 1128 z "},"ò":{"ha":1389,"x_min":0,"x_max":1215,"o":"m 347 1302 l 347 1389 l 434 1389 l 521 1389 l 521 1302 l 521 1215 l 608 1215 l 694 1215 l 694 1128 l 694 1042 l 868 1042 l 1042 1042 l 1042 955 l 1042 868 l 1128 868 l 1215 868 l 1215 608 l 1215 347 l 1128 347 l 1042 347 l 1042 260 l 1042 174 l 608 174 l 174 174 l 174 260 l 174 347 l 87 347 l 0 347 l 0 608 l 0 868 l 87 868 l 174 868 l 174 955 l 174 1042 l 347 1042 l 521 1042 l 521 1128 l 521 1215 l 434 1215 l 347 1215 l 347 1302 m 868 608 l 868 868 l 608 868 l 347 868 l 347 608 l 347 347 l 608 347 l 868 347 l 868 608 z "},"ó":{"ha":1389,"x_min":0,"x_max":1215,"o":"m 694 1302 l 694 1389 l 781 1389 l 868 1389 l 868 1302 l 868 1215 l 781 1215 l 694 1215 l 694 1128 l 694 1042 l 868 1042 l 1042 1042 l 1042 955 l 1042 868 l 1128 868 l 1215 868 l 1215 608 l 1215 347 l 1128 347 l 1042 347 l 1042 260 l 1042 174 l 608 174 l 174 174 l 174 260 l 174 347 l 87 347 l 0 347 l 0 608 l 0 868 l 87 868 l 174 868 l 174 955 l 174 1042 l 347 1042 l 521 1042 l 521 1128 l 521 1215 l 608 1215 l 694 1215 l 694 1302 m 868 608 l 868 868 l 608 868 l 347 868 l 347 608 l 347 347 l 608 347 l 868 347 l 868 608 z "},"ô":{"ha":1389,"x_min":0,"x_max":1215,"o":"m 347 1302 l 347 1389 l 608 1389 l 868 1389 l 868 1302 l 868 1215 l 955 1215 l 1042 1215 l 1042 1042 l 1042 868 l 1128 868 l 1215 868 l 1215 608 l 1215 347 l 1128 347 l 1042 347 l 1042 260 l 1042 174 l 608 174 l 174 174 l 174 260 l 174 347 l 87 347 l 0 347 l 0 608 l 0 868 l 87 868 l 174 868 l 174 1042 l 174 1215 l 260 1215 l 347 1215 l 347 1302 m 694 1128 l 694 1215 l 608 1215 l 521 1215 l 521 1128 l 521 1042 l 608 1042 l 694 1042 l 694 1128 m 868 608 l 868 868 l 608 868 l 347 868 l 347 608 l 347 347 l 608 347 l 868 347 l 868 608 z "},"õ":{"ha":1389,"x_min":0,"x_max":1215,"o":"m 347 1302 l 347 1389 l 521 1389 l 694 1389 l 694 1302 l 694 1215 l 781 1215 l 868 1215 l 868 1302 l 868 1389 l 955 1389 l 1042 1389 l 1042 1302 l 1042 1215 l 955 1215 l 868 1215 l 868 1128 l 868 1042 l 955 1042 l 1042 1042 l 1042 955 l 1042 868 l 1128 868 l 1215 868 l 1215 608 l 1215 347 l 1128 347 l 1042 347 l 1042 260 l 1042 174 l 608 174 l 174 174 l 174 260 l 174 347 l 87 347 l 0 347 l 0 608 l 0 868 l 87 868 l 174 868 l 174 1042 l 174 1215 l 260 1215 l 347 1215 l 347 1302 m 521 1128 l 521 1215 l 434 1215 l 347 1215 l 347 1128 l 347 1042 l 434 1042 l 521 1042 l 521 1128 m 868 608 l 868 868 l 608 868 l 347 868 l 347 608 l 347 347 l 608 347 l 868 347 l 868 608 z "},"ö":{"ha":1389,"x_min":0,"x_max":1215,"o":"m 174 955 l 174 1042 l 608 1042 l 1042 1042 l 1042 955 l 1042 868 l 1128 868 l 1215 868 l 1215 608 l 1215 347 l 1128 347 l 1042 347 l 1042 260 l 1042 174 l 608 174 l 174 174 l 174 260 l 174 347 l 87 347 l 0 347 l 0 608 l 0 868 l 87 868 l 174 868 l 174 955 m 868 608 l 868 868 l 608 868 l 347 868 l 347 608 l 347 347 l 608 347 l 868 347 l 868 608 m 694 1302 l 694 1389 l 868 1389 l 1042 1389 l 1042 1302 l 1042 1215 l 868 1215 l 694 1215 l 694 1302 m 174 1302 l 174 1389 l 347 1389 l 521 1389 l 521 1302 l 521 1215 l 347 1215 l 174 1215 l 174 1302 z "},"÷":{"ha":1389,"x_min":174,"x_max":1215,"o":"m 521 434 l 521 521 l 694 521 l 868 521 l 868 434 l 868 347 l 694 347 l 521 347 l 521 434 m 174 781 l 174 868 l 694 868 l 1215 868 l 1215 781 l 1215 694 l 694 694 l 174 694 l 174 781 m 521 1128 l 521 1215 l 694 1215 l 868 1215 l 868 1128 l 868 1042 l 694 1042 l 521 1042 l 521 1128 z "},"ø":{"ha":1389,"x_min":0,"x_max":1215,"o":"m 521 608 l 521 694 l 608 694 l 694 694 l 694 608 l 694 521 l 608 521 l 521 521 l 521 608 m 174 955 l 174 1042 l 608 1042 l 1042 1042 l 1042 955 l 1042 868 l 1128 868 l 1215 868 l 1215 608 l 1215 347 l 1128 347 l 1042 347 l 1042 260 l 1042 174 l 608 174 l 174 174 l 174 260 l 174 347 l 87 347 l 0 347 l 0 608 l 0 868 l 87 868 l 174 868 l 174 955 m 694 781 l 694 868 l 521 868 l 347 868 l 347 694 l 347 521 l 434 521 l 521 521 l 521 434 l 521 347 l 694 347 l 868 347 l 868 521 l 868 694 l 781 694 l 694 694 l 694 781 z "},"ù":{"ha":1389,"x_min":0,"x_max":1215,"o":"m 0 694 l 0 1042 l 174 1042 l 347 1042 l 347 694 l 347 347 l 608 347 l 868 347 l 868 694 l 868 1042 l 1042 1042 l 1215 1042 l 1215 608 l 1215 174 l 694 174 l 174 174 l 174 260 l 174 347 l 87 347 l 0 347 l 0 694 m 347 1302 l 347 1389 l 434 1389 l 521 1389 l 521 1302 l 521 1215 l 608 1215 l 694 1215 l 694 1128 l 694 1042 l 608 1042 l 521 1042 l 521 1128 l 521 1215 l 434 1215 l 347 1215 l 347 1302 z "},"ú":{"ha":1389,"x_min":0,"x_max":1215,"o":"m 0 694 l 0 1042 l 174 1042 l 347 1042 l 347 694 l 347 347 l 608 347 l 868 347 l 868 694 l 868 1042 l 1042 1042 l 1215 1042 l 1215 608 l 1215 174 l 694 174 l 174 174 l 174 260 l 174 347 l 87 347 l 0 347 l 0 694 m 694 1302 l 694 1389 l 781 1389 l 868 1389 l 868 1302 l 868 1215 l 781 1215 l 694 1215 l 694 1128 l 694 1042 l 608 1042 l 521 1042 l 521 1128 l 521 1215 l 608 1215 l 694 1215 l 694 1302 z "},"û":{"ha":1389,"x_min":0,"x_max":1215,"o":"m 0 608 l 0 868 l 174 868 l 347 868 l 347 608 l 347 347 l 608 347 l 868 347 l 868 608 l 868 868 l 1042 868 l 1215 868 l 1215 521 l 1215 174 l 694 174 l 174 174 l 174 260 l 174 347 l 87 347 l 0 347 l 0 608 m 347 1302 l 347 1389 l 608 1389 l 868 1389 l 868 1302 l 868 1215 l 955 1215 l 1042 1215 l 1042 1128 l 1042 1042 l 868 1042 l 694 1042 l 694 1128 l 694 1215 l 608 1215 l 521 1215 l 521 1128 l 521 1042 l 347 1042 l 174 1042 l 174 1128 l 174 1215 l 260 1215 l 347 1215 l 347 1302 z "},"ü":{"ha":1389,"x_min":0,"x_max":1215,"o":"m 0 694 l 0 1042 l 174 1042 l 347 1042 l 347 694 l 347 347 l 608 347 l 868 347 l 868 694 l 868 1042 l 1042 1042 l 1215 1042 l 1215 608 l 1215 174 l 694 174 l 174 174 l 174 260 l 174 347 l 87 347 l 0 347 l 0 694 m 694 1302 l 694 1389 l 868 1389 l 1042 1389 l 1042 1302 l 1042 1215 l 868 1215 l 694 1215 l 694 1302 m 174 1302 l 174 1389 l 347 1389 l 521 1389 l 521 1302 l 521 1215 l 347 1215 l 174 1215 l 174 1302 z "},"ý":{"ha":1389,"x_min":0,"x_max":1215,"o":"m 0 781 l 0 1042 l 174 1042 l 347 1042 l 347 781 l 347 521 l 608 521 l 868 521 l 868 781 l 868 1042 l 1042 1042 l 1215 1042 l 1215 608 l 1215 174 l 1128 174 l 1042 174 l 1042 87 l 1042 0 l 608 0 l 174 0 l 174 87 l 174 174 l 521 174 l 868 174 l 868 260 l 868 347 l 521 347 l 174 347 l 174 434 l 174 521 l 87 521 l 0 521 l 0 781 m 694 1302 l 694 1389 l 781 1389 l 868 1389 l 868 1302 l 868 1215 l 781 1215 l 694 1215 l 694 1128 l 694 1042 l 608 1042 l 521 1042 l 521 1128 l 521 1215 l 608 1215 l 694 1215 l 694 1302 z "},"þ":{"ha":1389,"x_min":0,"x_max":1215,"o":"m 0 694 l 0 1389 l 174 1389 l 347 1389 l 347 1215 l 347 1042 l 694 1042 l 1042 1042 l 1042 955 l 1042 868 l 1128 868 l 1215 868 l 1215 694 l 1215 521 l 1128 521 l 1042 521 l 1042 434 l 1042 347 l 694 347 l 347 347 l 347 174 l 347 0 l 174 0 l 0 0 l 0 694 m 868 694 l 868 868 l 608 868 l 347 868 l 347 694 l 347 521 l 608 521 l 868 521 l 868 694 z "},"ÿ":{"ha":1389,"x_min":0,"x_max":1215,"o":"m 0 781 l 0 1042 l 174 1042 l 347 1042 l 347 781 l 347 521 l 608 521 l 868 521 l 868 781 l 868 1042 l 1042 1042 l 1215 1042 l 1215 608 l 1215 174 l 1128 174 l 1042 174 l 1042 87 l 1042 0 l 608 0 l 174 0 l 174 87 l 174 174 l 521 174 l 868 174 l 868 260 l 868 347 l 521 347 l 174 347 l 174 434 l 174 521 l 87 521 l 0 521 l 0 781 m 694 1302 l 694 1389 l 868 1389 l 1042 1389 l 1042 1302 l 1042 1215 l 868 1215 l 694 1215 l 694 1302 m 174 1302 l 174 1389 l 347 1389 l 521 1389 l 521 1302 l 521 1215 l 347 1215 l 174 1215 l 174 1302 z "},"Ā":{"ha":1389,"x_min":0,"x_max":1215,"o":"m 347 955 l 347 1042 l 608 1042 l 868 1042 l 868 955 l 868 868 l 955 868 l 1042 868 l 1042 781 l 1042 694 l 1128 694 l 1215 694 l 1215 434 l 1215 174 l 1042 174 l 868 174 l 868 260 l 868 347 l 608 347 l 347 347 l 347 260 l 347 174 l 174 174 l 0 174 l 0 434 l 0 694 l 87 694 l 174 694 l 174 781 l 174 868 l 260 868 l 347 868 l 347 955 m 694 781 l 694 868 l 608 868 l 521 868 l 521 781 l 521 694 l 434 694 l 347 694 l 347 608 l 347 521 l 608 521 l 868 521 l 868 608 l 868 694 l 781 694 l 694 694 l 694 781 m 174 1302 l 174 1389 l 608 1389 l 1042 1389 l 1042 1302 l 1042 1215 l 608 1215 l 174 1215 l 174 1302 z "},"ā":{"ha":1389,"x_min":0,"x_max":1215,"o":"m 174 955 l 174 1042 l 608 1042 l 1042 1042 l 1042 955 l 1042 868 l 1128 868 l 1215 868 l 1215 521 l 1215 174 l 694 174 l 174 174 l 174 260 l 174 347 l 87 347 l 0 347 l 0 434 l 0 521 l 87 521 l 174 521 l 174 608 l 174 694 l 521 694 l 868 694 l 868 781 l 868 868 l 521 868 l 174 868 l 174 955 m 868 434 l 868 521 l 608 521 l 347 521 l 347 434 l 347 347 l 608 347 l 868 347 l 868 434 m 174 1302 l 174 1389 l 608 1389 l 1042 1389 l 1042 1302 l 1042 1215 l 608 1215 l 174 1215 l 174 1302 z "},"Ă":{"ha":1389,"x_min":0,"x_max":1215,"o":"m 174 1302 l 174 1389 l 260 1389 l 347 1389 l 347 1302 l 347 1215 l 608 1215 l 868 1215 l 868 1302 l 868 1389 l 955 1389 l 1042 1389 l 1042 1302 l 1042 1215 l 955 1215 l 868 1215 l 868 1042 l 868 868 l 955 868 l 1042 868 l 1042 781 l 1042 694 l 1128 694 l 1215 694 l 1215 434 l 1215 174 l 1042 174 l 868 174 l 868 260 l 868 347 l 608 347 l 347 347 l 347 260 l 347 174 l 174 174 l 0 174 l 0 434 l 0 694 l 87 694 l 174 694 l 174 781 l 174 868 l 260 868 l 347 868 l 347 1042 l 347 1215 l 260 1215 l 174 1215 l 174 1302 m 694 781 l 694 868 l 608 868 l 521 868 l 521 781 l 521 694 l 434 694 l 347 694 l 347 608 l 347 521 l 608 521 l 868 521 l 868 608 l 868 694 l 781 694 l 694 694 l 694 781 z "},"ă":{"ha":1389,"x_min":0,"x_max":1215,"o":"m 174 1302 l 174 1389 l 260 1389 l 347 1389 l 347 1302 l 347 1215 l 608 1215 l 868 1215 l 868 1302 l 868 1389 l 955 1389 l 1042 1389 l 1042 1302 l 1042 1215 l 955 1215 l 868 1215 l 868 1128 l 868 1042 l 955 1042 l 1042 1042 l 1042 955 l 1042 868 l 1128 868 l 1215 868 l 1215 521 l 1215 174 l 694 174 l 174 174 l 174 260 l 174 347 l 87 347 l 0 347 l 0 434 l 0 521 l 87 521 l 174 521 l 174 608 l 174 694 l 521 694 l 868 694 l 868 781 l 868 868 l 521 868 l 174 868 l 174 955 l 174 1042 l 260 1042 l 347 1042 l 347 1128 l 347 1215 l 260 1215 l 174 1215 l 174 1302 m 868 434 l 868 521 l 608 521 l 347 521 l 347 434 l 347 347 l 608 347 l 868 347 l 868 434 z "},"Ą":{"ha":1389,"x_min":0,"x_max":1215,"o":"m 347 1302 l 347 1389 l 608 1389 l 868 1389 l 868 1302 l 868 1215 l 955 1215 l 1042 1215 l 1042 1128 l 1042 1042 l 1128 1042 l 1215 1042 l 1215 781 l 1215 521 l 1128 521 l 1042 521 l 1042 434 l 1042 347 l 955 347 l 868 347 l 868 260 l 868 174 l 1042 174 l 1215 174 l 1215 87 l 1215 0 l 1042 0 l 868 0 l 868 87 l 868 174 l 781 174 l 694 174 l 694 260 l 694 347 l 781 347 l 868 347 l 868 521 l 868 694 l 608 694 l 347 694 l 347 608 l 347 521 l 174 521 l 0 521 l 0 781 l 0 1042 l 87 1042 l 174 1042 l 174 1128 l 174 1215 l 260 1215 l 347 1215 l 347 1302 m 694 1128 l 694 1215 l 608 1215 l 521 1215 l 521 1128 l 521 1042 l 434 1042 l 347 1042 l 347 955 l 347 868 l 608 868 l 868 868 l 868 955 l 868 1042 l 781 1042 l 694 1042 l 694 1128 z "},"ą":{"ha":1389,"x_min":0,"x_max":1215,"o":"m 174 1302 l 174 1389 l 608 1389 l 1042 1389 l 1042 1302 l 1042 1215 l 1128 1215 l 1215 1215 l 1215 868 l 1215 521 l 955 521 l 694 521 l 694 434 l 694 347 l 608 347 l 521 347 l 521 260 l 521 174 l 694 174 l 868 174 l 868 87 l 868 0 l 694 0 l 521 0 l 521 87 l 521 174 l 434 174 l 347 174 l 347 260 l 347 347 l 434 347 l 521 347 l 521 434 l 521 521 l 347 521 l 174 521 l 174 608 l 174 694 l 87 694 l 0 694 l 0 781 l 0 868 l 87 868 l 174 868 l 174 955 l 174 1042 l 521 1042 l 868 1042 l 868 1128 l 868 1215 l 521 1215 l 174 1215 l 174 1302 m 868 781 l 868 868 l 608 868 l 347 868 l 347 781 l 347 694 l 608 694 l 868 694 l 868 781 z "},"Ć":{"ha":1389,"x_min":0,"x_max":1215,"o":"m 694 1302 l 694 1389 l 781 1389 l 868 1389 l 868 1302 l 868 1215 l 781 1215 l 694 1215 l 694 1128 l 694 1042 l 868 1042 l 1042 1042 l 1042 955 l 1042 868 l 1128 868 l 1215 868 l 1215 781 l 1215 694 l 1042 694 l 868 694 l 868 781 l 868 868 l 694 868 l 521 868 l 521 781 l 521 694 l 434 694 l 347 694 l 347 608 l 347 521 l 434 521 l 521 521 l 521 434 l 521 347 l 694 347 l 868 347 l 868 434 l 868 521 l 1042 521 l 1215 521 l 1215 434 l 1215 347 l 1128 347 l 1042 347 l 1042 260 l 1042 174 l 694 174 l 347 174 l 347 260 l 347 347 l 260 347 l 174 347 l 174 434 l 174 521 l 87 521 l 0 521 l 0 608 l 0 694 l 87 694 l 174 694 l 174 781 l 174 868 l 260 868 l 347 868 l 347 955 l 347 1042 l 434 1042 l 521 1042 l 521 1128 l 521 1215 l 608 1215 l 694 1215 l 694 1302 z "},"ć":{"ha":1389,"x_min":0,"x_max":1215,"o":"m 694 1302 l 694 1389 l 781 1389 l 868 1389 l 868 1302 l 868 1215 l 781 1215 l 694 1215 l 694 1128 l 694 1042 l 955 1042 l 1215 1042 l 1215 955 l 1215 868 l 781 868 l 347 868 l 347 608 l 347 347 l 781 347 l 1215 347 l 1215 260 l 1215 174 l 694 174 l 174 174 l 174 260 l 174 347 l 87 347 l 0 347 l 0 608 l 0 868 l 87 868 l 174 868 l 174 955 l 174 1042 l 347 1042 l 521 1042 l 521 1128 l 521 1215 l 608 1215 l 694 1215 l 694 1302 z "},"Ĉ":{"ha":1389,"x_min":0,"x_max":1215,"o":"m 347 1302 l 347 1389 l 608 1389 l 868 1389 l 868 1302 l 868 1215 l 955 1215 l 1042 1215 l 1042 1042 l 1042 868 l 1128 868 l 1215 868 l 1215 781 l 1215 694 l 1042 694 l 868 694 l 868 781 l 868 868 l 694 868 l 521 868 l 521 781 l 521 694 l 434 694 l 347 694 l 347 608 l 347 521 l 434 521 l 521 521 l 521 434 l 521 347 l 694 347 l 868 347 l 868 434 l 868 521 l 1042 521 l 1215 521 l 1215 434 l 1215 347 l 1128 347 l 1042 347 l 1042 260 l 1042 174 l 694 174 l 347 174 l 347 260 l 347 347 l 260 347 l 174 347 l 174 434 l 174 521 l 87 521 l 0 521 l 0 608 l 0 694 l 87 694 l 174 694 l 174 781 l 174 868 l 260 868 l 347 868 l 347 955 l 347 1042 l 260 1042 l 174 1042 l 174 1128 l 174 1215 l 260 1215 l 347 1215 l 347 1302 m 694 1128 l 694 1215 l 608 1215 l 521 1215 l 521 1128 l 521 1042 l 608 1042 l 694 1042 l 694 1128 z "},"ĉ":{"ha":1389,"x_min":0,"x_max":1215,"o":"m 347 1302 l 347 1389 l 608 1389 l 868 1389 l 868 1302 l 868 1215 l 955 1215 l 1042 1215 l 1042 1128 l 1042 1042 l 1128 1042 l 1215 1042 l 1215 955 l 1215 868 l 781 868 l 347 868 l 347 608 l 347 347 l 781 347 l 1215 347 l 1215 260 l 1215 174 l 694 174 l 174 174 l 174 260 l 174 347 l 87 347 l 0 347 l 0 608 l 0 868 l 87 868 l 174 868 l 174 1042 l 174 1215 l 260 1215 l 347 1215 l 347 1302 m 694 1128 l 694 1215 l 608 1215 l 521 1215 l 521 1128 l 521 1042 l 608 1042 l 694 1042 l 694 1128 z "},"Ċ":{"ha":1389,"x_min":0,"x_max":1215,"o":"m 347 955 l 347 1042 l 694 1042 l 1042 1042 l 1042 955 l 1042 868 l 1128 868 l 1215 868 l 1215 781 l 1215 694 l 1042 694 l 868 694 l 868 781 l 868 868 l 694 868 l 521 868 l 521 781 l 521 694 l 434 694 l 347 694 l 347 608 l 347 521 l 434 521 l 521 521 l 521 434 l 521 347 l 694 347 l 868 347 l 868 434 l 868 521 l 1042 521 l 1215 521 l 1215 434 l 1215 347 l 1128 347 l 1042 347 l 1042 260 l 1042 174 l 694 174 l 347 174 l 347 260 l 347 347 l 260 347 l 174 347 l 174 434 l 174 521 l 87 521 l 0 521 l 0 608 l 0 694 l 87 694 l 174 694 l 174 781 l 174 868 l 260 868 l 347 868 l 347 955 m 521 1302 l 521 1389 l 694 1389 l 868 1389 l 868 1302 l 868 1215 l 694 1215 l 521 1215 l 521 1302 z "},"ċ":{"ha":1389,"x_min":0,"x_max":1215,"o":"m 174 955 l 174 1042 l 694 1042 l 1215 1042 l 1215 955 l 1215 868 l 781 868 l 347 868 l 347 608 l 347 347 l 781 347 l 1215 347 l 1215 260 l 1215 174 l 694 174 l 174 174 l 174 260 l 174 347 l 87 347 l 0 347 l 0 608 l 0 868 l 87 868 l 174 868 l 174 955 m 521 1302 l 521 1389 l 694 1389 l 868 1389 l 868 1302 l 868 1215 l 694 1215 l 521 1215 l 521 1302 z "},"Č":{"ha":1389,"x_min":0,"x_max":1215,"o":"m 174 1302 l 174 1389 l 347 1389 l 521 1389 l 521 1302 l 521 1215 l 694 1215 l 868 1215 l 868 1302 l 868 1389 l 1042 1389 l 1215 1389 l 1215 1302 l 1215 1215 l 1128 1215 l 1042 1215 l 1042 1042 l 1042 868 l 1128 868 l 1215 868 l 1215 781 l 1215 694 l 1042 694 l 868 694 l 868 781 l 868 868 l 694 868 l 521 868 l 521 781 l 521 694 l 434 694 l 347 694 l 347 608 l 347 521 l 434 521 l 521 521 l 521 434 l 521 347 l 694 347 l 868 347 l 868 434 l 868 521 l 1042 521 l 1215 521 l 1215 434 l 1215 347 l 1128 347 l 1042 347 l 1042 260 l 1042 174 l 694 174 l 347 174 l 347 260 l 347 347 l 260 347 l 174 347 l 174 434 l 174 521 l 87 521 l 0 521 l 0 608 l 0 694 l 87 694 l 174 694 l 174 781 l 174 868 l 260 868 l 347 868 l 347 1042 l 347 1215 l 260 1215 l 174 1215 l 174 1302 z "},"č":{"ha":1389,"x_min":0,"x_max":1215,"o":"m 174 1302 l 174 1389 l 347 1389 l 521 1389 l 521 1302 l 521 1215 l 608 1215 l 694 1215 l 694 1302 l 694 1389 l 868 1389 l 1042 1389 l 1042 1302 l 1042 1215 l 955 1215 l 868 1215 l 868 1128 l 868 1042 l 1042 1042 l 1215 1042 l 1215 955 l 1215 868 l 781 868 l 347 868 l 347 608 l 347 347 l 781 347 l 1215 347 l 1215 260 l 1215 174 l 694 174 l 174 174 l 174 260 l 174 347 l 87 347 l 0 347 l 0 608 l 0 868 l 87 868 l 174 868 l 174 955 l 174 1042 l 260 1042 l 347 1042 l 347 1128 l 347 1215 l 260 1215 l 174 1215 l 174 1302 z "},"Ď":{"ha":1389,"x_min":0,"x_max":1215,"o":"m 174 1302 l 174 1389 l 347 1389 l 521 1389 l 521 1302 l 521 1215 l 608 1215 l 694 1215 l 694 1302 l 694 1389 l 868 1389 l 1042 1389 l 1042 1302 l 1042 1215 l 955 1215 l 868 1215 l 868 1042 l 868 868 l 955 868 l 1042 868 l 1042 781 l 1042 694 l 1128 694 l 1215 694 l 1215 608 l 1215 521 l 1128 521 l 1042 521 l 1042 434 l 1042 347 l 955 347 l 868 347 l 868 260 l 868 174 l 434 174 l 0 174 l 0 608 l 0 1042 l 174 1042 l 347 1042 l 347 1128 l 347 1215 l 260 1215 l 174 1215 l 174 1302 m 694 781 l 694 868 l 521 868 l 347 868 l 347 608 l 347 347 l 521 347 l 694 347 l 694 434 l 694 521 l 781 521 l 868 521 l 868 608 l 868 694 l 781 694 l 694 694 l 694 781 z "},"ď":{"ha":1389,"x_min":0,"x_max":1389,"o":"m 1042 1128 l 1042 1389 l 1215 1389 l 1389 1389 l 1389 1215 l 1389 1042 l 1302 1042 l 1215 1042 l 1215 955 l 1215 868 l 1128 868 l 1042 868 l 1042 1128 m 521 1215 l 521 1389 l 694 1389 l 868 1389 l 868 781 l 868 174 l 521 174 l 174 174 l 174 260 l 174 347 l 87 347 l 0 347 l 0 608 l 0 868 l 87 868 l 174 868 l 174 955 l 174 1042 l 347 1042 l 521 1042 l 521 1215 m 521 608 l 521 868 l 434 868 l 347 868 l 347 608 l 347 347 l 434 347 l 521 347 l 521 608 z "},"Đ":{"ha":1389,"x_min":0,"x_max":1215,"o":"m 174 1128 l 174 1389 l 521 1389 l 868 1389 l 868 1302 l 868 1215 l 955 1215 l 1042 1215 l 1042 1128 l 1042 1042 l 1128 1042 l 1215 1042 l 1215 781 l 1215 521 l 1128 521 l 1042 521 l 1042 434 l 1042 347 l 955 347 l 868 347 l 868 260 l 868 174 l 521 174 l 174 174 l 174 434 l 174 694 l 87 694 l 0 694 l 0 781 l 0 868 l 87 868 l 174 868 l 174 1128 m 694 1128 l 694 1215 l 608 1215 l 521 1215 l 521 1042 l 521 868 l 608 868 l 694 868 l 694 781 l 694 694 l 608 694 l 521 694 l 521 521 l 521 347 l 608 347 l 694 347 l 694 434 l 694 521 l 781 521 l 868 521 l 868 781 l 868 1042 l 781 1042 l 694 1042 l 694 1128 z "},"đ":{"ha":1389,"x_min":0,"x_max":1215,"o":"m 694 1302 l 694 1389 l 868 1389 l 1042 1389 l 1042 1302 l 1042 1215 l 1128 1215 l 1215 1215 l 1215 1128 l 1215 1042 l 1128 1042 l 1042 1042 l 1042 608 l 1042 174 l 608 174 l 174 174 l 174 260 l 174 347 l 87 347 l 0 347 l 0 608 l 0 868 l 87 868 l 174 868 l 174 955 l 174 1042 l 347 1042 l 521 1042 l 521 1128 l 521 1215 l 608 1215 l 694 1215 l 694 1302 m 694 608 l 694 868 l 521 868 l 347 868 l 347 608 l 347 347 l 521 347 l 694 347 l 694 608 z "},"Ē":{"ha":1389,"x_min":0,"x_max":1215,"o":"m 0 608 l 0 1042 l 608 1042 l 1215 1042 l 1215 955 l 1215 868 l 781 868 l 347 868 l 347 781 l 347 694 l 694 694 l 1042 694 l 1042 608 l 1042 521 l 694 521 l 347 521 l 347 434 l 347 347 l 781 347 l 1215 347 l 1215 260 l 1215 174 l 608 174 l 0 174 l 0 608 m 174 1302 l 174 1389 l 608 1389 l 1042 1389 l 1042 1302 l 1042 1215 l 608 1215 l 174 1215 l 174 1302 z "},"ē":{"ha":1389,"x_min":0,"x_max":1215,"o":"m 174 955 l 174 1042 l 608 1042 l 1042 1042 l 1042 955 l 1042 868 l 1128 868 l 1215 868 l 1215 694 l 1215 521 l 781 521 l 347 521 l 347 434 l 347 347 l 694 347 l 1042 347 l 1042 260 l 1042 174 l 608 174 l 174 174 l 174 260 l 174 347 l 87 347 l 0 347 l 0 608 l 0 868 l 87 868 l 174 868 l 174 955 m 868 781 l 868 868 l 608 868 l 347 868 l 347 781 l 347 694 l 608 694 l 868 694 l 868 781 m 174 1302 l 174 1389 l 608 1389 l 1042 1389 l 1042 1302 l 1042 1215 l 608 1215 l 174 1215 l 174 1302 z "},"Ĕ":{"ha":1389,"x_min":0,"x_max":1215,"o":"m 174 1302 l 174 1389 l 260 1389 l 347 1389 l 347 1302 l 347 1215 l 608 1215 l 868 1215 l 868 1302 l 868 1389 l 955 1389 l 1042 1389 l 1042 1302 l 1042 1215 l 955 1215 l 868 1215 l 868 1128 l 868 1042 l 1042 1042 l 1215 1042 l 1215 955 l 1215 868 l 781 868 l 347 868 l 347 781 l 347 694 l 694 694 l 1042 694 l 1042 608 l 1042 521 l 694 521 l 347 521 l 347 434 l 347 347 l 781 347 l 1215 347 l 1215 260 l 1215 174 l 608 174 l 0 174 l 0 608 l 0 1042 l 174 1042 l 347 1042 l 347 1128 l 347 1215 l 260 1215 l 174 1215 l 174 1302 z "},"ĕ":{"ha":1389,"x_min":0,"x_max":1215,"o":"m 174 1302 l 174 1389 l 260 1389 l 347 1389 l 347 1302 l 347 1215 l 608 1215 l 868 1215 l 868 1302 l 868 1389 l 955 1389 l 1042 1389 l 1042 1302 l 1042 1215 l 955 1215 l 868 1215 l 868 1128 l 868 1042 l 955 1042 l 1042 1042 l 1042 955 l 1042 868 l 1128 868 l 1215 868 l 1215 694 l 1215 521 l 781 521 l 347 521 l 347 434 l 347 347 l 694 347 l 1042 347 l 1042 260 l 1042 174 l 608 174 l 174 174 l 174 260 l 174 347 l 87 347 l 0 347 l 0 608 l 0 868 l 87 868 l 174 868 l 174 955 l 174 1042 l 260 1042 l 347 1042 l 347 1128 l 347 1215 l 260 1215 l 174 1215 l 174 1302 m 868 781 l 868 868 l 608 868 l 347 868 l 347 781 l 347 694 l 608 694 l 868 694 l 868 781 z "},"Ė":{"ha":1389,"x_min":0,"x_max":1215,"o":"m 0 608 l 0 1042 l 608 1042 l 1215 1042 l 1215 955 l 1215 868 l 781 868 l 347 868 l 347 781 l 347 694 l 694 694 l 1042 694 l 1042 608 l 1042 521 l 694 521 l 347 521 l 347 434 l 347 347 l 781 347 l 1215 347 l 1215 260 l 1215 174 l 608 174 l 0 174 l 0 608 m 521 1302 l 521 1389 l 694 1389 l 868 1389 l 868 1302 l 868 1215 l 694 1215 l 521 1215 l 521 1302 z "},"ė":{"ha":1389,"x_min":0,"x_max":1215,"o":"m 174 955 l 174 1042 l 608 1042 l 1042 1042 l 1042 955 l 1042 868 l 1128 868 l 1215 868 l 1215 694 l 1215 521 l 781 521 l 347 521 l 347 434 l 347 347 l 694 347 l 1042 347 l 1042 260 l 1042 174 l 608 174 l 174 174 l 174 260 l 174 347 l 87 347 l 0 347 l 0 608 l 0 868 l 87 868 l 174 868 l 174 955 m 868 781 l 868 868 l 608 868 l 347 868 l 347 781 l 347 694 l 608 694 l 868 694 l 868 781 m 521 1302 l 521 1389 l 694 1389 l 868 1389 l 868 1302 l 868 1215 l 694 1215 l 521 1215 l 521 1302 z "},"Ę":{"ha":1389,"x_min":0,"x_max":1215,"o":"m 0 955 l 0 1389 l 608 1389 l 1215 1389 l 1215 1302 l 1215 1215 l 781 1215 l 347 1215 l 347 1128 l 347 1042 l 694 1042 l 1042 1042 l 1042 955 l 1042 868 l 694 868 l 347 868 l 347 781 l 347 694 l 781 694 l 1215 694 l 1215 608 l 1215 521 l 955 521 l 694 521 l 694 434 l 694 347 l 608 347 l 521 347 l 521 260 l 521 174 l 694 174 l 868 174 l 868 87 l 868 0 l 694 0 l 521 0 l 521 87 l 521 174 l 434 174 l 347 174 l 347 260 l 347 347 l 434 347 l 521 347 l 521 434 l 521 521 l 260 521 l 0 521 l 0 955 z "},"ę":{"ha":1389,"x_min":0,"x_max":1215,"o":"m 174 1302 l 174 1389 l 608 1389 l 1042 1389 l 1042 1302 l 1042 1215 l 1128 1215 l 1215 1215 l 1215 1042 l 1215 868 l 781 868 l 347 868 l 347 781 l 347 694 l 694 694 l 1042 694 l 1042 608 l 1042 521 l 868 521 l 694 521 l 694 434 l 694 347 l 608 347 l 521 347 l 521 260 l 521 174 l 694 174 l 868 174 l 868 87 l 868 0 l 694 0 l 521 0 l 521 87 l 521 174 l 434 174 l 347 174 l 347 260 l 347 347 l 434 347 l 521 347 l 521 434 l 521 521 l 347 521 l 174 521 l 174 608 l 174 694 l 87 694 l 0 694 l 0 955 l 0 1215 l 87 1215 l 174 1215 l 174 1302 m 868 1128 l 868 1215 l 608 1215 l 347 1215 l 347 1128 l 347 1042 l 608 1042 l 868 1042 l 868 1128 z "},"Ě":{"ha":1389,"x_min":0,"x_max":1215,"o":"m 174 1302 l 174 1389 l 347 1389 l 521 1389 l 521 1302 l 521 1215 l 608 1215 l 694 1215 l 694 1302 l 694 1389 l 868 1389 l 1042 1389 l 1042 1302 l 1042 1215 l 955 1215 l 868 1215 l 868 1128 l 868 1042 l 1042 1042 l 1215 1042 l 1215 955 l 1215 868 l 781 868 l 347 868 l 347 781 l 347 694 l 694 694 l 1042 694 l 1042 608 l 1042 521 l 694 521 l 347 521 l 347 434 l 347 347 l 781 347 l 1215 347 l 1215 260 l 1215 174 l 608 174 l 0 174 l 0 608 l 0 1042 l 174 1042 l 347 1042 l 347 1128 l 347 1215 l 260 1215 l 174 1215 l 174 1302 z "},"ě":{"ha":1389,"x_min":0,"x_max":1215,"o":"m 174 1302 l 174 1389 l 347 1389 l 521 1389 l 521 1302 l 521 1215 l 608 1215 l 694 1215 l 694 1302 l 694 1389 l 868 1389 l 1042 1389 l 1042 1302 l 1042 1215 l 955 1215 l 868 1215 l 868 1128 l 868 1042 l 955 1042 l 1042 1042 l 1042 955 l 1042 868 l 1128 868 l 1215 868 l 1215 694 l 1215 521 l 781 521 l 347 521 l 347 434 l 347 347 l 694 347 l 1042 347 l 1042 260 l 1042 174 l 608 174 l 174 174 l 174 260 l 174 347 l 87 347 l 0 347 l 0 608 l 0 868 l 87 868 l 174 868 l 174 955 l 174 1042 l 260 1042 l 347 1042 l 347 1128 l 347 1215 l 260 1215 l 174 1215 l 174 1302 m 868 781 l 868 868 l 608 868 l 347 868 l 347 781 l 347 694 l 608 694 l 868 694 l 868 781 z "},"Ĝ":{"ha":1389,"x_min":0,"x_max":1215,"o":"m 347 1302 l 347 1389 l 608 1389 l 868 1389 l 868 1302 l 868 1215 l 955 1215 l 1042 1215 l 1042 1128 l 1042 1042 l 1128 1042 l 1215 1042 l 1215 955 l 1215 868 l 781 868 l 347 868 l 347 608 l 347 347 l 608 347 l 868 347 l 868 434 l 868 521 l 781 521 l 694 521 l 694 608 l 694 694 l 955 694 l 1215 694 l 1215 434 l 1215 174 l 694 174 l 174 174 l 174 260 l 174 347 l 87 347 l 0 347 l 0 608 l 0 868 l 87 868 l 174 868 l 174 1042 l 174 1215 l 260 1215 l 347 1215 l 347 1302 m 694 1128 l 694 1215 l 608 1215 l 521 1215 l 521 1128 l 521 1042 l 608 1042 l 694 1042 l 694 1128 z "},"ĝ":{"ha":1389,"x_min":0,"x_max":1215,"o":"m 347 1302 l 347 1389 l 608 1389 l 868 1389 l 868 1302 l 868 1215 l 955 1215 l 1042 1215 l 1042 1128 l 1042 1042 l 1128 1042 l 1215 1042 l 1215 608 l 1215 174 l 1128 174 l 1042 174 l 1042 87 l 1042 0 l 608 0 l 174 0 l 174 87 l 174 174 l 521 174 l 868 174 l 868 260 l 868 347 l 521 347 l 174 347 l 174 434 l 174 521 l 87 521 l 0 521 l 0 694 l 0 868 l 87 868 l 174 868 l 174 1042 l 174 1215 l 260 1215 l 347 1215 l 347 1302 m 694 1128 l 694 1215 l 608 1215 l 521 1215 l 521 1128 l 521 1042 l 608 1042 l 694 1042 l 694 1128 m 868 694 l 868 868 l 608 868 l 347 868 l 347 694 l 347 521 l 608 521 l 868 521 l 868 694 z "},"Ğ":{"ha":1389,"x_min":0,"x_max":1215,"o":"m 174 1302 l 174 1389 l 260 1389 l 347 1389 l 347 1302 l 347 1215 l 608 1215 l 868 1215 l 868 1302 l 868 1389 l 955 1389 l 1042 1389 l 1042 1302 l 1042 1215 l 955 1215 l 868 1215 l 868 1128 l 868 1042 l 1042 1042 l 1215 1042 l 1215 955 l 1215 868 l 781 868 l 347 868 l 347 608 l 347 347 l 608 347 l 868 347 l 868 434 l 868 521 l 781 521 l 694 521 l 694 608 l 694 694 l 955 694 l 1215 694 l 1215 434 l 1215 174 l 694 174 l 174 174 l 174 260 l 174 347 l 87 347 l 0 347 l 0 608 l 0 868 l 87 868 l 174 868 l 174 955 l 174 1042 l 260 1042 l 347 1042 l 347 1128 l 347 1215 l 260 1215 l 174 1215 l 174 1302 z "},"ğ":{"ha":1389,"x_min":0,"x_max":1215,"o":"m 174 1302 l 174 1389 l 260 1389 l 347 1389 l 347 1302 l 347 1215 l 608 1215 l 868 1215 l 868 1302 l 868 1389 l 955 1389 l 1042 1389 l 1042 1302 l 1042 1215 l 955 1215 l 868 1215 l 868 1128 l 868 1042 l 1042 1042 l 1215 1042 l 1215 608 l 1215 174 l 1128 174 l 1042 174 l 1042 87 l 1042 0 l 608 0 l 174 0 l 174 87 l 174 174 l 521 174 l 868 174 l 868 260 l 868 347 l 521 347 l 174 347 l 174 434 l 174 521 l 87 521 l 0 521 l 0 694 l 0 868 l 87 868 l 174 868 l 174 955 l 174 1042 l 260 1042 l 347 1042 l 347 1128 l 347 1215 l 260 1215 l 174 1215 l 174 1302 m 868 694 l 868 868 l 608 868 l 347 868 l 347 694 l 347 521 l 608 521 l 868 521 l 868 694 z "},"Ġ":{"ha":1389,"x_min":0,"x_max":1215,"o":"m 174 955 l 174 1042 l 694 1042 l 1215 1042 l 1215 955 l 1215 868 l 781 868 l 347 868 l 347 608 l 347 347 l 608 347 l 868 347 l 868 434 l 868 521 l 781 521 l 694 521 l 694 608 l 694 694 l 955 694 l 1215 694 l 1215 434 l 1215 174 l 694 174 l 174 174 l 174 260 l 174 347 l 87 347 l 0 347 l 0 608 l 0 868 l 87 868 l 174 868 l 174 955 m 521 1302 l 521 1389 l 694 1389 l 868 1389 l 868 1302 l 868 1215 l 694 1215 l 521 1215 l 521 1302 z "},"ġ":{"ha":1389,"x_min":0,"x_max":1215,"o":"m 174 955 l 174 1042 l 694 1042 l 1215 1042 l 1215 608 l 1215 174 l 1128 174 l 1042 174 l 1042 87 l 1042 0 l 608 0 l 174 0 l 174 87 l 174 174 l 521 174 l 868 174 l 868 260 l 868 347 l 521 347 l 174 347 l 174 434 l 174 521 l 87 521 l 0 521 l 0 694 l 0 868 l 87 868 l 174 868 l 174 955 m 868 694 l 868 868 l 608 868 l 347 868 l 347 694 l 347 521 l 608 521 l 868 521 l 868 694 m 521 1302 l 521 1389 l 694 1389 l 868 1389 l 868 1302 l 868 1215 l 694 1215 l 521 1215 l 521 1302 z "},"Ģ":{"ha":1389,"x_min":0,"x_max":1215,"o":"m 347 1302 l 347 1389 l 781 1389 l 1215 1389 l 1215 1302 l 1215 1215 l 868 1215 l 521 1215 l 521 1128 l 521 1042 l 434 1042 l 347 1042 l 347 868 l 347 694 l 434 694 l 521 694 l 521 608 l 521 521 l 694 521 l 868 521 l 868 608 l 868 694 l 781 694 l 694 694 l 694 781 l 694 868 l 955 868 l 1215 868 l 1215 608 l 1215 347 l 1042 347 l 868 347 l 868 260 l 868 174 l 781 174 l 694 174 l 694 87 l 694 0 l 521 0 l 347 0 l 347 87 l 347 174 l 434 174 l 521 174 l 521 260 l 521 347 l 434 347 l 347 347 l 347 434 l 347 521 l 260 521 l 174 521 l 174 608 l 174 694 l 87 694 l 0 694 l 0 868 l 0 1042 l 87 1042 l 174 1042 l 174 1128 l 174 1215 l 260 1215 l 347 1215 l 347 1302 z "},"ģ":{"ha":1389,"x_min":0,"x_max":1215,"o":"m 521 1302 l 521 1389 l 694 1389 l 868 1389 l 868 1302 l 868 1215 l 781 1215 l 694 1215 l 694 1128 l 694 1042 l 955 1042 l 1215 1042 l 1215 608 l 1215 174 l 1128 174 l 1042 174 l 1042 87 l 1042 0 l 608 0 l 174 0 l 174 87 l 174 174 l 521 174 l 868 174 l 868 260 l 868 347 l 521 347 l 174 347 l 174 434 l 174 521 l 87 521 l 0 521 l 0 694 l 0 868 l 87 868 l 174 868 l 174 955 l 174 1042 l 260 1042 l 347 1042 l 347 1128 l 347 1215 l 434 1215 l 521 1215 l 521 1302 m 868 694 l 868 868 l 608 868 l 347 868 l 347 694 l 347 521 l 608 521 l 868 521 l 868 694 z "},"Ĥ":{"ha":1389,"x_min":0,"x_max":1215,"o":"m 347 1302 l 347 1389 l 608 1389 l 868 1389 l 868 1302 l 868 1215 l 1042 1215 l 1215 1215 l 1215 694 l 1215 174 l 1042 174 l 868 174 l 868 347 l 868 521 l 608 521 l 347 521 l 347 347 l 347 174 l 174 174 l 0 174 l 0 694 l 0 1215 l 174 1215 l 347 1215 l 347 1302 m 694 1128 l 694 1215 l 608 1215 l 521 1215 l 521 1128 l 521 1042 l 434 1042 l 347 1042 l 347 868 l 347 694 l 608 694 l 868 694 l 868 868 l 868 1042 l 781 1042 l 694 1042 l 694 1128 z "},"ĥ":{"ha":1389,"x_min":0,"x_max":1215,"o":"m 347 1302 l 347 1389 l 608 1389 l 868 1389 l 868 1302 l 868 1215 l 955 1215 l 1042 1215 l 1042 1128 l 1042 1042 l 868 1042 l 694 1042 l 694 1128 l 694 1215 l 608 1215 l 521 1215 l 521 1128 l 521 1042 l 434 1042 l 347 1042 l 347 955 l 347 868 l 694 868 l 1042 868 l 1042 781 l 1042 694 l 1128 694 l 1215 694 l 1215 434 l 1215 174 l 1042 174 l 868 174 l 868 434 l 868 694 l 608 694 l 347 694 l 347 434 l 347 174 l 174 174 l 0 174 l 0 694 l 0 1215 l 174 1215 l 347 1215 l 347 1302 z "},"Ħ":{"ha":1389,"x_min":0,"x_max":1215,"o":"m 0 781 l 0 1389 l 174 1389 l 347 1389 l 347 1302 l 347 1215 l 608 1215 l 868 1215 l 868 1302 l 868 1389 l 1042 1389 l 1215 1389 l 1215 781 l 1215 174 l 1042 174 l 868 174 l 868 434 l 868 694 l 608 694 l 347 694 l 347 434 l 347 174 l 174 174 l 0 174 l 0 781 m 868 955 l 868 1042 l 608 1042 l 347 1042 l 347 955 l 347 868 l 608 868 l 868 868 l 868 955 z "},"ħ":{"ha":1389,"x_min":0,"x_max":1215,"o":"m 174 1302 l 174 1389 l 347 1389 l 521 1389 l 521 1302 l 521 1215 l 608 1215 l 694 1215 l 694 1128 l 694 1042 l 868 1042 l 1042 1042 l 1042 955 l 1042 868 l 1128 868 l 1215 868 l 1215 521 l 1215 174 l 1042 174 l 868 174 l 868 521 l 868 868 l 694 868 l 521 868 l 521 521 l 521 174 l 347 174 l 174 174 l 174 608 l 174 1042 l 87 1042 l 0 1042 l 0 1128 l 0 1215 l 87 1215 l 174 1215 l 174 1302 z "},"Ĩ":{"ha":1389,"x_min":174,"x_max":1215,"o":"m 347 1302 l 347 1389 l 521 1389 l 694 1389 l 694 1302 l 694 1215 l 868 1215 l 1042 1215 l 1042 1302 l 1042 1389 l 1128 1389 l 1215 1389 l 1215 1302 l 1215 1215 l 1128 1215 l 1042 1215 l 1042 1128 l 1042 1042 l 1128 1042 l 1215 1042 l 1215 955 l 1215 868 l 1042 868 l 868 868 l 868 608 l 868 347 l 1042 347 l 1215 347 l 1215 260 l 1215 174 l 694 174 l 174 174 l 174 260 l 174 347 l 347 347 l 521 347 l 521 608 l 521 868 l 347 868 l 174 868 l 174 1042 l 174 1215 l 260 1215 l 347 1215 l 347 1302 m 694 1128 l 694 1215 l 521 1215 l 347 1215 l 347 1128 l 347 1042 l 521 1042 l 694 1042 l 694 1128 z "},"ĩ":{"ha":1389,"x_min":174,"x_max":1215,"o":"m 347 781 l 347 868 l 608 868 l 868 868 l 868 608 l 868 347 l 1042 347 l 1215 347 l 1215 260 l 1215 174 l 694 174 l 174 174 l 174 260 l 174 347 l 347 347 l 521 347 l 521 521 l 521 694 l 434 694 l 347 694 l 347 781 m 347 1302 l 347 1389 l 521 1389 l 694 1389 l 694 1302 l 694 1215 l 868 1215 l 1042 1215 l 1042 1302 l 1042 1389 l 1128 1389 l 1215 1389 l 1215 1302 l 1215 1215 l 1128 1215 l 1042 1215 l 1042 1128 l 1042 1042 l 868 1042 l 694 1042 l 694 1128 l 694 1215 l 521 1215 l 347 1215 l 347 1128 l 347 1042 l 260 1042 l 174 1042 l 174 1128 l 174 1215 l 260 1215 l 347 1215 l 347 1302 z "},"Ī":{"ha":1389,"x_min":174,"x_max":1215,"o":"m 174 955 l 174 1042 l 694 1042 l 1215 1042 l 1215 955 l 1215 868 l 1042 868 l 868 868 l 868 608 l 868 347 l 1042 347 l 1215 347 l 1215 260 l 1215 174 l 694 174 l 174 174 l 174 260 l 174 347 l 347 347 l 521 347 l 521 608 l 521 868 l 347 868 l 174 868 l 174 955 m 174 1302 l 174 1389 l 694 1389 l 1215 1389 l 1215 1302 l 1215 1215 l 694 1215 l 174 1215 l 174 1302 z "},"ī":{"ha":1389,"x_min":174,"x_max":1215,"o":"m 347 955 l 347 1042 l 608 1042 l 868 1042 l 868 694 l 868 347 l 1042 347 l 1215 347 l 1215 260 l 1215 174 l 694 174 l 174 174 l 174 260 l 174 347 l 347 347 l 521 347 l 521 608 l 521 868 l 434 868 l 347 868 l 347 955 m 174 1302 l 174 1389 l 608 1389 l 1042 1389 l 1042 1302 l 1042 1215 l 608 1215 l 174 1215 l 174 1302 z "},"Ĭ":{"ha":1389,"x_min":174,"x_max":1215,"o":"m 347 1302 l 347 1389 l 434 1389 l 521 1389 l 521 1302 l 521 1215 l 694 1215 l 868 1215 l 868 1302 l 868 1389 l 955 1389 l 1042 1389 l 1042 1302 l 1042 1215 l 955 1215 l 868 1215 l 868 1128 l 868 1042 l 1042 1042 l 1215 1042 l 1215 955 l 1215 868 l 1042 868 l 868 868 l 868 608 l 868 347 l 1042 347 l 1215 347 l 1215 260 l 1215 174 l 694 174 l 174 174 l 174 260 l 174 347 l 347 347 l 521 347 l 521 608 l 521 868 l 347 868 l 174 868 l 174 955 l 174 1042 l 347 1042 l 521 1042 l 521 1128 l 521 1215 l 434 1215 l 347 1215 l 347 1302 z "},"ĭ":{"ha":1389,"x_min":174,"x_max":1215,"o":"m 174 1302 l 174 1389 l 260 1389 l 347 1389 l 347 1302 l 347 1215 l 608 1215 l 868 1215 l 868 1302 l 868 1389 l 955 1389 l 1042 1389 l 1042 1302 l 1042 1215 l 955 1215 l 868 1215 l 868 781 l 868 347 l 1042 347 l 1215 347 l 1215 260 l 1215 174 l 694 174 l 174 174 l 174 260 l 174 347 l 347 347 l 521 347 l 521 608 l 521 868 l 434 868 l 347 868 l 347 1042 l 347 1215 l 260 1215 l 174 1215 l 174 1302 z "},"Į":{"ha":1389,"x_min":174,"x_max":1215,"o":"m 174 1302 l 174 1389 l 694 1389 l 1215 1389 l 1215 1302 l 1215 1215 l 1042 1215 l 868 1215 l 868 955 l 868 694 l 1042 694 l 1215 694 l 1215 608 l 1215 521 l 955 521 l 694 521 l 694 434 l 694 347 l 608 347 l 521 347 l 521 260 l 521 174 l 694 174 l 868 174 l 868 87 l 868 0 l 694 0 l 521 0 l 521 87 l 521 174 l 434 174 l 347 174 l 347 260 l 347 347 l 434 347 l 521 347 l 521 434 l 521 521 l 347 521 l 174 521 l 174 608 l 174 694 l 347 694 l 521 694 l 521 955 l 521 1215 l 347 1215 l 174 1215 l 174 1302 z "},"į":{"ha":1389,"x_min":174,"x_max":1215,"o":"m 347 955 l 347 1042 l 608 1042 l 868 1042 l 868 868 l 868 694 l 1042 694 l 1215 694 l 1215 608 l 1215 521 l 955 521 l 694 521 l 694 434 l 694 347 l 608 347 l 521 347 l 521 260 l 521 174 l 694 174 l 868 174 l 868 87 l 868 0 l 694 0 l 521 0 l 521 87 l 521 174 l 434 174 l 347 174 l 347 260 l 347 347 l 434 347 l 521 347 l 521 434 l 521 521 l 347 521 l 174 521 l 174 608 l 174 694 l 347 694 l 521 694 l 521 781 l 521 868 l 434 868 l 347 868 l 347 955 m 521 1302 l 521 1389 l 694 1389 l 868 1389 l 868 1302 l 868 1215 l 694 1215 l 521 1215 l 521 1302 z "},"İ":{"ha":1389,"x_min":174,"x_max":1215,"o":"m 174 955 l 174 1042 l 694 1042 l 1215 1042 l 1215 955 l 1215 868 l 1042 868 l 868 868 l 868 608 l 868 347 l 1042 347 l 1215 347 l 1215 260 l 1215 174 l 694 174 l 174 174 l 174 260 l 174 347 l 347 347 l 521 347 l 521 608 l 521 868 l 347 868 l 174 868 l 174 955 m 521 1302 l 521 1389 l 694 1389 l 868 1389 l 868 1302 l 868 1215 l 694 1215 l 521 1215 l 521 1302 z "},"ı":{"ha":1389,"x_min":174,"x_max":1215,"o":"m 347 955 l 347 1042 l 608 1042 l 868 1042 l 868 694 l 868 347 l 1042 347 l 1215 347 l 1215 260 l 1215 174 l 694 174 l 174 174 l 174 260 l 174 347 l 347 347 l 521 347 l 521 608 l 521 868 l 434 868 l 347 868 l 347 955 z "},"Ĳ":{"ha":1389,"x_min":0,"x_max":1215,"o":"m 868 868 l 868 1389 l 1042 1389 l 1215 1389 l 1215 868 l 1215 347 l 1128 347 l 1042 347 l 1042 260 l 1042 174 l 608 174 l 174 174 l 174 260 l 174 347 l 521 347 l 868 347 l 868 868 m 0 1302 l 0 1389 l 347 1389 l 694 1389 l 694 1302 l 694 1215 l 608 1215 l 521 1215 l 521 955 l 521 694 l 608 694 l 694 694 l 694 608 l 694 521 l 347 521 l 0 521 l 0 608 l 0 694 l 87 694 l 174 694 l 174 955 l 174 1215 l 87 1215 l 0 1215 l 0 1302 z "},"ĳ":{"ha":1389,"x_min":0,"x_max":1215,"o":"m 694 955 l 694 1042 l 955 1042 l 1215 1042 l 1215 608 l 1215 174 l 1128 174 l 1042 174 l 1042 87 l 1042 0 l 694 0 l 347 0 l 347 87 l 347 174 l 608 174 l 868 174 l 868 521 l 868 868 l 781 868 l 694 868 l 694 955 m 0 955 l 0 1042 l 260 1042 l 521 1042 l 521 694 l 521 347 l 347 347 l 174 347 l 174 608 l 174 868 l 87 868 l 0 868 l 0 955 m 868 1302 l 868 1389 l 1042 1389 l 1215 1389 l 1215 1302 l 1215 1215 l 1042 1215 l 868 1215 l 868 1302 m 174 1302 l 174 1389 l 347 1389 l 521 1389 l 521 1302 l 521 1215 l 347 1215 l 174 1215 l 174 1302 z "},"Ĵ":{"ha":1389,"x_min":0,"x_max":1215,"o":"m 521 1302 l 521 1389 l 781 1389 l 1042 1389 l 1042 1302 l 1042 1215 l 1128 1215 l 1215 1215 l 1215 781 l 1215 347 l 1128 347 l 1042 347 l 1042 260 l 1042 174 l 608 174 l 174 174 l 174 260 l 174 347 l 87 347 l 0 347 l 0 434 l 0 521 l 174 521 l 347 521 l 347 434 l 347 347 l 608 347 l 868 347 l 868 781 l 868 1215 l 781 1215 l 694 1215 l 694 1128 l 694 1042 l 521 1042 l 347 1042 l 347 1128 l 347 1215 l 434 1215 l 521 1215 l 521 1302 z "},"ĵ":{"ha":1389,"x_min":174,"x_max":1215,"o":"m 521 781 l 521 868 l 781 868 l 1042 868 l 1042 521 l 1042 174 l 955 174 l 868 174 l 868 87 l 868 0 l 521 0 l 174 0 l 174 87 l 174 174 l 434 174 l 694 174 l 694 434 l 694 694 l 608 694 l 521 694 l 521 781 m 521 1302 l 521 1389 l 781 1389 l 1042 1389 l 1042 1302 l 1042 1215 l 1128 1215 l 1215 1215 l 1215 1128 l 1215 1042 l 1042 1042 l 868 1042 l 868 1128 l 868 1215 l 781 1215 l 694 1215 l 694 1128 l 694 1042 l 521 1042 l 347 1042 l 347 1128 l 347 1215 l 434 1215 l 521 1215 l 521 1302 z "},"Ķ":{"ha":1389,"x_min":0,"x_max":1215,"o":"m 0 868 l 0 1389 l 174 1389 l 347 1389 l 347 1215 l 347 1042 l 434 1042 l 521 1042 l 521 1128 l 521 1215 l 608 1215 l 694 1215 l 694 1302 l 694 1389 l 868 1389 l 1042 1389 l 1042 1302 l 1042 1215 l 955 1215 l 868 1215 l 868 1128 l 868 1042 l 781 1042 l 694 1042 l 694 955 l 694 868 l 781 868 l 868 868 l 868 781 l 868 694 l 955 694 l 1042 694 l 1042 608 l 1042 521 l 1128 521 l 1215 521 l 1215 434 l 1215 347 l 955 347 l 694 347 l 694 260 l 694 174 l 608 174 l 521 174 l 521 87 l 521 0 l 347 0 l 174 0 l 174 87 l 174 174 l 260 174 l 347 174 l 347 260 l 347 347 l 174 347 l 0 347 l 0 868 m 521 608 l 521 694 l 434 694 l 347 694 l 347 521 l 347 347 l 521 347 l 694 347 l 694 434 l 694 521 l 608 521 l 521 521 l 521 608 z "},"ķ":{"ha":1389,"x_min":0,"x_max":1215,"o":"m 0 868 l 0 1389 l 174 1389 l 347 1389 l 347 1215 l 347 1042 l 521 1042 l 694 1042 l 694 1128 l 694 1215 l 955 1215 l 1215 1215 l 1215 1128 l 1215 1042 l 1128 1042 l 1042 1042 l 1042 955 l 1042 868 l 955 868 l 868 868 l 868 781 l 868 694 l 955 694 l 1042 694 l 1042 608 l 1042 521 l 1128 521 l 1215 521 l 1215 434 l 1215 347 l 955 347 l 694 347 l 694 260 l 694 174 l 608 174 l 521 174 l 521 87 l 521 0 l 347 0 l 174 0 l 174 87 l 174 174 l 260 174 l 347 174 l 347 260 l 347 347 l 174 347 l 0 347 l 0 868 m 521 608 l 521 694 l 434 694 l 347 694 l 347 521 l 347 347 l 521 347 l 694 347 l 694 434 l 694 521 l 608 521 l 521 521 l 521 608 z "},"ĸ":{"ha":1389,"x_min":0,"x_max":1215,"o":"m 0 608 l 0 1042 l 174 1042 l 347 1042 l 347 868 l 347 694 l 521 694 l 694 694 l 694 781 l 694 868 l 781 868 l 868 868 l 868 955 l 868 1042 l 1042 1042 l 1215 1042 l 1215 955 l 1215 868 l 1128 868 l 1042 868 l 1042 781 l 1042 694 l 955 694 l 868 694 l 868 608 l 868 521 l 955 521 l 1042 521 l 1042 434 l 1042 347 l 1128 347 l 1215 347 l 1215 260 l 1215 174 l 1042 174 l 868 174 l 868 260 l 868 347 l 781 347 l 694 347 l 694 434 l 694 521 l 521 521 l 347 521 l 347 347 l 347 174 l 174 174 l 0 174 l 0 608 z "},"Ĺ":{"ha":1389,"x_min":174,"x_max":1215,"o":"m 694 1302 l 694 1389 l 781 1389 l 868 1389 l 868 1302 l 868 1215 l 781 1215 l 694 1215 l 694 1128 l 694 1042 l 608 1042 l 521 1042 l 521 694 l 521 347 l 868 347 l 1215 347 l 1215 260 l 1215 174 l 694 174 l 174 174 l 174 694 l 174 1215 l 434 1215 l 694 1215 l 694 1302 z "},"ĺ":{"ha":1389,"x_min":0,"x_max":1042,"o":"m 521 1302 l 521 1389 l 608 1389 l 694 1389 l 694 1302 l 694 1215 l 608 1215 l 521 1215 l 521 1128 l 521 1042 l 608 1042 l 694 1042 l 694 694 l 694 347 l 868 347 l 1042 347 l 1042 260 l 1042 174 l 521 174 l 0 174 l 0 260 l 0 347 l 174 347 l 347 347 l 347 608 l 347 868 l 260 868 l 174 868 l 174 955 l 174 1042 l 260 1042 l 347 1042 l 347 1128 l 347 1215 l 434 1215 l 521 1215 l 521 1302 z "},"Ļ":{"ha":1389,"x_min":174,"x_max":1215,"o":"m 174 868 l 174 1389 l 347 1389 l 521 1389 l 521 955 l 521 521 l 868 521 l 1215 521 l 1215 434 l 1215 347 l 1042 347 l 868 347 l 868 260 l 868 174 l 781 174 l 694 174 l 694 87 l 694 0 l 521 0 l 347 0 l 347 87 l 347 174 l 434 174 l 521 174 l 521 260 l 521 347 l 347 347 l 174 347 l 174 868 z "},"ļ":{"ha":1389,"x_min":174,"x_max":1215,"o":"m 347 1302 l 347 1389 l 608 1389 l 868 1389 l 868 955 l 868 521 l 1042 521 l 1215 521 l 1215 434 l 1215 347 l 1042 347 l 868 347 l 868 260 l 868 174 l 781 174 l 694 174 l 694 87 l 694 0 l 521 0 l 347 0 l 347 87 l 347 174 l 434 174 l 521 174 l 521 260 l 521 347 l 347 347 l 174 347 l 174 434 l 174 521 l 347 521 l 521 521 l 521 868 l 521 1215 l 434 1215 l 347 1215 l 347 1302 z "},"Ľ":{"ha":1389,"x_min":174,"x_max":1215,"o":"m 868 1128 l 868 1389 l 1042 1389 l 1215 1389 l 1215 1215 l 1215 1042 l 1128 1042 l 1042 1042 l 1042 955 l 1042 868 l 955 868 l 868 868 l 868 1128 m 174 781 l 174 1389 l 347 1389 l 521 1389 l 521 868 l 521 347 l 868 347 l 1215 347 l 1215 260 l 1215 174 l 694 174 l 174 174 l 174 781 z "},"ľ":{"ha":1389,"x_min":0,"x_max":1215,"o":"m 868 1128 l 868 1389 l 1042 1389 l 1215 1389 l 1215 1215 l 1215 1042 l 1128 1042 l 1042 1042 l 1042 955 l 1042 868 l 955 868 l 868 868 l 868 1128 m 174 1302 l 174 1389 l 434 1389 l 694 1389 l 694 868 l 694 347 l 868 347 l 1042 347 l 1042 260 l 1042 174 l 521 174 l 0 174 l 0 260 l 0 347 l 174 347 l 347 347 l 347 781 l 347 1215 l 260 1215 l 174 1215 l 174 1302 z "},"Ŀ":{"ha":1389,"x_min":174,"x_max":1215,"o":"m 694 868 l 694 1042 l 868 1042 l 1042 1042 l 1042 868 l 1042 694 l 868 694 l 694 694 l 694 868 m 174 781 l 174 1389 l 347 1389 l 521 1389 l 521 868 l 521 347 l 868 347 l 1215 347 l 1215 260 l 1215 174 l 694 174 l 174 174 l 174 781 z "},"ŀ":{"ha":1389,"x_min":0,"x_max":1215,"o":"m 868 868 l 868 1042 l 1042 1042 l 1215 1042 l 1215 868 l 1215 694 l 1042 694 l 868 694 l 868 868 m 174 1302 l 174 1389 l 434 1389 l 694 1389 l 694 868 l 694 347 l 868 347 l 1042 347 l 1042 260 l 1042 174 l 521 174 l 0 174 l 0 260 l 0 347 l 174 347 l 347 347 l 347 781 l 347 1215 l 260 1215 l 174 1215 l 174 1302 z "},"Ł":{"ha":1389,"x_min":0,"x_max":1215,"o":"m 174 1128 l 174 1389 l 347 1389 l 521 1389 l 521 1215 l 521 1042 l 608 1042 l 694 1042 l 694 955 l 694 868 l 608 868 l 521 868 l 521 608 l 521 347 l 868 347 l 1215 347 l 1215 260 l 1215 174 l 694 174 l 174 174 l 174 434 l 174 694 l 87 694 l 0 694 l 0 781 l 0 868 l 87 868 l 174 868 l 174 1128 z "},"ł":{"ha":1389,"x_min":174,"x_max":1215,"o":"m 347 1302 l 347 1389 l 608 1389 l 868 1389 l 868 1215 l 868 1042 l 955 1042 l 1042 1042 l 1042 955 l 1042 868 l 955 868 l 868 868 l 868 608 l 868 347 l 1042 347 l 1215 347 l 1215 260 l 1215 174 l 694 174 l 174 174 l 174 260 l 174 347 l 347 347 l 521 347 l 521 521 l 521 694 l 434 694 l 347 694 l 347 781 l 347 868 l 434 868 l 521 868 l 521 1042 l 521 1215 l 434 1215 l 347 1215 l 347 1302 z "},"Ń":{"ha":1389,"x_min":0,"x_max":1215,"o":"m 694 1302 l 694 1389 l 781 1389 l 868 1389 l 868 1302 l 868 1215 l 781 1215 l 694 1215 l 694 1128 l 694 1042 l 608 1042 l 521 1042 l 521 955 l 521 868 l 608 868 l 694 868 l 694 781 l 694 694 l 781 694 l 868 694 l 868 868 l 868 1042 l 1042 1042 l 1215 1042 l 1215 608 l 1215 174 l 955 174 l 694 174 l 694 260 l 694 347 l 608 347 l 521 347 l 521 434 l 521 521 l 434 521 l 347 521 l 347 347 l 347 174 l 174 174 l 0 174 l 0 608 l 0 1042 l 260 1042 l 521 1042 l 521 1128 l 521 1215 l 608 1215 l 694 1215 l 694 1302 z "},"ń":{"ha":1389,"x_min":0,"x_max":1215,"o":"m 694 1302 l 694 1389 l 781 1389 l 868 1389 l 868 1302 l 868 1215 l 781 1215 l 694 1215 l 694 1128 l 694 1042 l 868 1042 l 1042 1042 l 1042 955 l 1042 868 l 1128 868 l 1215 868 l 1215 521 l 1215 174 l 1042 174 l 868 174 l 868 521 l 868 868 l 608 868 l 347 868 l 347 521 l 347 174 l 174 174 l 0 174 l 0 608 l 0 1042 l 260 1042 l 521 1042 l 521 1128 l 521 1215 l 608 1215 l 694 1215 l 694 1302 z "},"Ņ":{"ha":1389,"x_min":0,"x_max":1215,"o":"m 0 868 l 0 1389 l 260 1389 l 521 1389 l 521 1302 l 521 1215 l 608 1215 l 694 1215 l 694 1128 l 694 1042 l 781 1042 l 868 1042 l 868 1215 l 868 1389 l 1042 1389 l 1215 1389 l 1215 868 l 1215 347 l 1042 347 l 868 347 l 868 260 l 868 174 l 781 174 l 694 174 l 694 87 l 694 0 l 521 0 l 347 0 l 347 87 l 347 174 l 434 174 l 521 174 l 521 260 l 521 347 l 694 347 l 868 347 l 868 434 l 868 521 l 781 521 l 694 521 l 694 608 l 694 694 l 608 694 l 521 694 l 521 781 l 521 868 l 434 868 l 347 868 l 347 608 l 347 347 l 174 347 l 0 347 l 0 868 z "},"ņ":{"ha":1389,"x_min":0,"x_max":1215,"o":"m 0 781 l 0 1215 l 521 1215 l 1042 1215 l 1042 1128 l 1042 1042 l 1128 1042 l 1215 1042 l 1215 694 l 1215 347 l 1042 347 l 868 347 l 868 260 l 868 174 l 781 174 l 694 174 l 694 87 l 694 0 l 521 0 l 347 0 l 347 87 l 347 174 l 434 174 l 521 174 l 521 260 l 521 347 l 694 347 l 868 347 l 868 694 l 868 1042 l 608 1042 l 347 1042 l 347 694 l 347 347 l 174 347 l 0 347 l 0 781 z "},"Ň":{"ha":1389,"x_min":0,"x_max":1215,"o":"m 174 1302 l 174 1389 l 347 1389 l 521 1389 l 521 1302 l 521 1215 l 608 1215 l 694 1215 l 694 1302 l 694 1389 l 868 1389 l 1042 1389 l 1042 1302 l 1042 1215 l 955 1215 l 868 1215 l 868 1128 l 868 1042 l 1042 1042 l 1215 1042 l 1215 608 l 1215 174 l 955 174 l 694 174 l 694 260 l 694 347 l 608 347 l 521 347 l 521 434 l 521 521 l 434 521 l 347 521 l 347 347 l 347 174 l 174 174 l 0 174 l 0 608 l 0 1042 l 174 1042 l 347 1042 l 347 1128 l 347 1215 l 260 1215 l 174 1215 l 174 1302 m 868 868 l 868 1042 l 694 1042 l 521 1042 l 521 955 l 521 868 l 608 868 l 694 868 l 694 781 l 694 694 l 781 694 l 868 694 l 868 868 z "},"ň":{"ha":1389,"x_min":0,"x_max":1215,"o":"m 174 1302 l 174 1389 l 347 1389 l 521 1389 l 521 1302 l 521 1215 l 608 1215 l 694 1215 l 694 1302 l 694 1389 l 868 1389 l 1042 1389 l 1042 1302 l 1042 1215 l 955 1215 l 868 1215 l 868 1128 l 868 1042 l 955 1042 l 1042 1042 l 1042 955 l 1042 868 l 1128 868 l 1215 868 l 1215 521 l 1215 174 l 1042 174 l 868 174 l 868 521 l 868 868 l 608 868 l 347 868 l 347 521 l 347 174 l 174 174 l 0 174 l 0 608 l 0 1042 l 174 1042 l 347 1042 l 347 1128 l 347 1215 l 260 1215 l 174 1215 l 174 1302 z "},"ŉ":{"ha":1389,"x_min":0,"x_max":1215,"o":"m 0 1128 l 0 1389 l 174 1389 l 347 1389 l 347 1215 l 347 1042 l 694 1042 l 1042 1042 l 1042 955 l 1042 868 l 1128 868 l 1215 868 l 1215 521 l 1215 174 l 1042 174 l 868 174 l 868 521 l 868 868 l 781 868 l 694 868 l 694 521 l 694 174 l 521 174 l 347 174 l 347 608 l 347 1042 l 260 1042 l 174 1042 l 174 955 l 174 868 l 87 868 l 0 868 l 0 1128 z "},"Ŋ":{"ha":1389,"x_min":0,"x_max":1215,"o":"m 0 868 l 0 1389 l 260 1389 l 521 1389 l 521 1302 l 521 1215 l 608 1215 l 694 1215 l 694 1128 l 694 1042 l 781 1042 l 868 1042 l 868 1215 l 868 1389 l 1042 1389 l 1215 1389 l 1215 781 l 1215 174 l 1128 174 l 1042 174 l 1042 87 l 1042 0 l 694 0 l 347 0 l 347 87 l 347 174 l 608 174 l 868 174 l 868 347 l 868 521 l 781 521 l 694 521 l 694 608 l 694 694 l 608 694 l 521 694 l 521 781 l 521 868 l 434 868 l 347 868 l 347 608 l 347 347 l 174 347 l 0 347 l 0 868 z "},"ŋ":{"ha":1389,"x_min":0,"x_max":1215,"o":"m 0 781 l 0 1215 l 521 1215 l 1042 1215 l 1042 1128 l 1042 1042 l 1128 1042 l 1215 1042 l 1215 608 l 1215 174 l 1128 174 l 1042 174 l 1042 87 l 1042 0 l 694 0 l 347 0 l 347 87 l 347 174 l 608 174 l 868 174 l 868 608 l 868 1042 l 608 1042 l 347 1042 l 347 694 l 347 347 l 174 347 l 0 347 l 0 781 z "},"Ō":{"ha":1389,"x_min":0,"x_max":1215,"o":"m 174 955 l 174 1042 l 608 1042 l 1042 1042 l 1042 955 l 1042 868 l 1128 868 l 1215 868 l 1215 608 l 1215 347 l 1128 347 l 1042 347 l 1042 260 l 1042 174 l 608 174 l 174 174 l 174 260 l 174 347 l 87 347 l 0 347 l 0 608 l 0 868 l 87 868 l 174 868 l 174 955 m 868 608 l 868 868 l 608 868 l 347 868 l 347 608 l 347 347 l 608 347 l 868 347 l 868 608 m 174 1302 l 174 1389 l 608 1389 l 1042 1389 l 1042 1302 l 1042 1215 l 608 1215 l 174 1215 l 174 1302 z "},"ō":{"ha":1389,"x_min":0,"x_max":1215,"o":"m 174 955 l 174 1042 l 608 1042 l 1042 1042 l 1042 955 l 1042 868 l 1128 868 l 1215 868 l 1215 608 l 1215 347 l 1128 347 l 1042 347 l 1042 260 l 1042 174 l 608 174 l 174 174 l 174 260 l 174 347 l 87 347 l 0 347 l 0 608 l 0 868 l 87 868 l 174 868 l 174 955 m 868 608 l 868 868 l 608 868 l 347 868 l 347 608 l 347 347 l 608 347 l 868 347 l 868 608 m 174 1302 l 174 1389 l 608 1389 l 1042 1389 l 1042 1302 l 1042 1215 l 608 1215 l 174 1215 l 174 1302 z "},"Ŏ":{"ha":1389,"x_min":0,"x_max":1215,"o":"m 174 1302 l 174 1389 l 260 1389 l 347 1389 l 347 1302 l 347 1215 l 608 1215 l 868 1215 l 868 1302 l 868 1389 l 955 1389 l 1042 1389 l 1042 1302 l 1042 1215 l 955 1215 l 868 1215 l 868 1128 l 868 1042 l 955 1042 l 1042 1042 l 1042 955 l 1042 868 l 1128 868 l 1215 868 l 1215 608 l 1215 347 l 1128 347 l 1042 347 l 1042 260 l 1042 174 l 608 174 l 174 174 l 174 260 l 174 347 l 87 347 l 0 347 l 0 608 l 0 868 l 87 868 l 174 868 l 174 955 l 174 1042 l 260 1042 l 347 1042 l 347 1128 l 347 1215 l 260 1215 l 174 1215 l 174 1302 m 868 608 l 868 868 l 608 868 l 347 868 l 347 608 l 347 347 l 608 347 l 868 347 l 868 608 z "},"ŏ":{"ha":1389,"x_min":0,"x_max":1215,"o":"m 174 1302 l 174 1389 l 260 1389 l 347 1389 l 347 1302 l 347 1215 l 608 1215 l 868 1215 l 868 1302 l 868 1389 l 955 1389 l 1042 1389 l 1042 1302 l 1042 1215 l 955 1215 l 868 1215 l 868 1128 l 868 1042 l 955 1042 l 1042 1042 l 1042 955 l 1042 868 l 1128 868 l 1215 868 l 1215 608 l 1215 347 l 1128 347 l 1042 347 l 1042 260 l 1042 174 l 608 174 l 174 174 l 174 260 l 174 347 l 87 347 l 0 347 l 0 608 l 0 868 l 87 868 l 174 868 l 174 955 l 174 1042 l 260 1042 l 347 1042 l 347 1128 l 347 1215 l 260 1215 l 174 1215 l 174 1302 m 868 608 l 868 868 l 608 868 l 347 868 l 347 608 l 347 347 l 608 347 l 868 347 l 868 608 z "},"Ő":{"ha":1389,"x_min":0,"x_max":1215,"o":"m 347 1302 l 347 1389 l 434 1389 l 521 1389 l 521 1302 l 521 1215 l 434 1215 l 347 1215 l 347 1128 l 347 1042 l 521 1042 l 694 1042 l 694 1128 l 694 1215 l 781 1215 l 868 1215 l 868 1302 l 868 1389 l 955 1389 l 1042 1389 l 1042 1302 l 1042 1215 l 955 1215 l 868 1215 l 868 1128 l 868 1042 l 955 1042 l 1042 1042 l 1042 955 l 1042 868 l 1128 868 l 1215 868 l 1215 608 l 1215 347 l 1128 347 l 1042 347 l 1042 260 l 1042 174 l 608 174 l 174 174 l 174 260 l 174 347 l 87 347 l 0 347 l 0 608 l 0 868 l 87 868 l 174 868 l 174 1042 l 174 1215 l 260 1215 l 347 1215 l 347 1302 m 868 608 l 868 868 l 608 868 l 347 868 l 347 608 l 347 347 l 608 347 l 868 347 l 868 608 z "},"ő":{"ha":1389,"x_min":0,"x_max":1215,"o":"m 347 1302 l 347 1389 l 434 1389 l 521 1389 l 521 1302 l 521 1215 l 434 1215 l 347 1215 l 347 1128 l 347 1042 l 521 1042 l 694 1042 l 694 1128 l 694 1215 l 781 1215 l 868 1215 l 868 1302 l 868 1389 l 955 1389 l 1042 1389 l 1042 1302 l 1042 1215 l 955 1215 l 868 1215 l 868 1128 l 868 1042 l 955 1042 l 1042 1042 l 1042 955 l 1042 868 l 1128 868 l 1215 868 l 1215 608 l 1215 347 l 1128 347 l 1042 347 l 1042 260 l 1042 174 l 608 174 l 174 174 l 174 260 l 174 347 l 87 347 l 0 347 l 0 608 l 0 868 l 87 868 l 174 868 l 174 1042 l 174 1215 l 260 1215 l 347 1215 l 347 1302 m 868 608 l 868 868 l 608 868 l 347 868 l 347 608 l 347 347 l 608 347 l 868 347 l 868 608 z "},"Œ":{"ha":1389,"x_min":0,"x_max":1215,"o":"m 174 1302 l 174 1389 l 694 1389 l 1215 1389 l 1215 1302 l 1215 1215 l 1042 1215 l 868 1215 l 868 1042 l 868 868 l 1042 868 l 1215 868 l 1215 781 l 1215 694 l 1042 694 l 868 694 l 868 521 l 868 347 l 1042 347 l 1215 347 l 1215 260 l 1215 174 l 694 174 l 174 174 l 174 260 l 174 347 l 87 347 l 0 347 l 0 781 l 0 1215 l 87 1215 l 174 1215 l 174 1302 m 521 781 l 521 1215 l 434 1215 l 347 1215 l 347 781 l 347 347 l 434 347 l 521 347 l 521 781 z "},"œ":{"ha":1389,"x_min":0,"x_max":1215,"o":"m 174 955 l 174 1042 l 608 1042 l 1042 1042 l 1042 955 l 1042 868 l 1128 868 l 1215 868 l 1215 694 l 1215 521 l 955 521 l 694 521 l 694 434 l 694 347 l 868 347 l 1042 347 l 1042 260 l 1042 174 l 608 174 l 174 174 l 174 260 l 174 347 l 87 347 l 0 347 l 0 608 l 0 868 l 87 868 l 174 868 l 174 955 m 521 608 l 521 868 l 434 868 l 347 868 l 347 608 l 347 347 l 434 347 l 521 347 l 521 608 m 868 781 l 868 868 l 781 868 l 694 868 l 694 781 l 694 694 l 781 694 l 868 694 l 868 781 z "},"Ŕ":{"ha":1389,"x_min":0,"x_max":1215,"o":"m 694 1302 l 694 1389 l 781 1389 l 868 1389 l 868 1302 l 868 1215 l 781 1215 l 694 1215 l 694 1128 l 694 1042 l 868 1042 l 1042 1042 l 1042 955 l 1042 868 l 1128 868 l 1215 868 l 1215 781 l 1215 694 l 1042 694 l 868 694 l 868 608 l 868 521 l 955 521 l 1042 521 l 1042 434 l 1042 347 l 1128 347 l 1215 347 l 1215 260 l 1215 174 l 955 174 l 694 174 l 694 260 l 694 347 l 608 347 l 521 347 l 521 434 l 521 521 l 434 521 l 347 521 l 347 347 l 347 174 l 174 174 l 0 174 l 0 608 l 0 1042 l 260 1042 l 521 1042 l 521 1128 l 521 1215 l 608 1215 l 694 1215 l 694 1302 m 694 781 l 694 868 l 521 868 l 347 868 l 347 781 l 347 694 l 521 694 l 694 694 l 694 781 z "},"ŕ":{"ha":1389,"x_min":174,"x_max":1215,"o":"m 694 1302 l 694 1389 l 781 1389 l 868 1389 l 868 1302 l 868 1215 l 781 1215 l 694 1215 l 694 1128 l 694 1042 l 955 1042 l 1215 1042 l 1215 955 l 1215 868 l 955 868 l 694 868 l 694 781 l 694 694 l 608 694 l 521 694 l 521 434 l 521 174 l 347 174 l 174 174 l 174 608 l 174 1042 l 347 1042 l 521 1042 l 521 1128 l 521 1215 l 608 1215 l 694 1215 l 694 1302 m 694 955 l 694 1042 l 608 1042 l 521 1042 l 521 955 l 521 868 l 608 868 l 694 868 l 694 955 z "},"Ŗ":{"ha":1389,"x_min":0,"x_max":1215,"o":"m 0 868 l 0 1389 l 521 1389 l 1042 1389 l 1042 1302 l 1042 1215 l 1128 1215 l 1215 1215 l 1215 1042 l 1215 868 l 1042 868 l 868 868 l 868 781 l 868 694 l 955 694 l 1042 694 l 1042 608 l 1042 521 l 1128 521 l 1215 521 l 1215 434 l 1215 347 l 1042 347 l 868 347 l 868 260 l 868 174 l 781 174 l 694 174 l 694 87 l 694 0 l 521 0 l 347 0 l 347 87 l 347 174 l 434 174 l 521 174 l 521 260 l 521 347 l 608 347 l 694 347 l 694 434 l 694 521 l 608 521 l 521 521 l 521 608 l 521 694 l 434 694 l 347 694 l 347 521 l 347 347 l 174 347 l 0 347 l 0 868 m 868 1128 l 868 1215 l 608 1215 l 347 1215 l 347 1042 l 347 868 l 521 868 l 694 868 l 694 955 l 694 1042 l 781 1042 l 868 1042 l 868 1128 z "},"ŗ":{"ha":1389,"x_min":174,"x_max":1215,"o":"m 174 781 l 174 1215 l 347 1215 l 521 1215 l 521 1128 l 521 1042 l 608 1042 l 694 1042 l 694 1128 l 694 1215 l 955 1215 l 1215 1215 l 1215 1128 l 1215 1042 l 955 1042 l 694 1042 l 694 955 l 694 868 l 608 868 l 521 868 l 521 608 l 521 347 l 608 347 l 694 347 l 694 260 l 694 174 l 608 174 l 521 174 l 521 87 l 521 0 l 347 0 l 174 0 l 174 87 l 174 174 l 260 174 l 347 174 l 347 260 l 347 347 l 260 347 l 174 347 l 174 781 z "},"Ř":{"ha":1389,"x_min":0,"x_max":1215,"o":"m 347 1302 l 347 1389 l 434 1389 l 521 1389 l 521 1302 l 521 1215 l 608 1215 l 694 1215 l 694 1302 l 694 1389 l 781 1389 l 868 1389 l 868 1302 l 868 1215 l 781 1215 l 694 1215 l 694 1128 l 694 1042 l 868 1042 l 1042 1042 l 1042 955 l 1042 868 l 1128 868 l 1215 868 l 1215 781 l 1215 694 l 1042 694 l 868 694 l 868 608 l 868 521 l 955 521 l 1042 521 l 1042 434 l 1042 347 l 1128 347 l 1215 347 l 1215 260 l 1215 174 l 955 174 l 694 174 l 694 260 l 694 347 l 608 347 l 521 347 l 521 434 l 521 521 l 434 521 l 347 521 l 347 347 l 347 174 l 174 174 l 0 174 l 0 608 l 0 1042 l 260 1042 l 521 1042 l 521 1128 l 521 1215 l 434 1215 l 347 1215 l 347 1302 m 694 781 l 694 868 l 521 868 l 347 868 l 347 781 l 347 694 l 521 694 l 694 694 l 694 781 z "},"ř":{"ha":1389,"x_min":174,"x_max":1215,"o":"m 347 1302 l 347 1389 l 521 1389 l 694 1389 l 694 1302 l 694 1215 l 781 1215 l 868 1215 l 868 1302 l 868 1389 l 1042 1389 l 1215 1389 l 1215 1302 l 1215 1215 l 1128 1215 l 1042 1215 l 1042 1128 l 1042 1042 l 1128 1042 l 1215 1042 l 1215 955 l 1215 868 l 955 868 l 694 868 l 694 781 l 694 694 l 608 694 l 521 694 l 521 434 l 521 174 l 347 174 l 174 174 l 174 608 l 174 1042 l 347 1042 l 521 1042 l 521 1128 l 521 1215 l 434 1215 l 347 1215 l 347 1302 m 694 955 l 694 1042 l 608 1042 l 521 1042 l 521 955 l 521 868 l 608 868 l 694 868 l 694 955 z "},"Ś":{"ha":1389,"x_min":0,"x_max":1215,"o":"m 694 1302 l 694 1389 l 781 1389 l 868 1389 l 868 1302 l 868 1215 l 781 1215 l 694 1215 l 694 1128 l 694 1042 l 868 1042 l 1042 1042 l 1042 955 l 1042 868 l 694 868 l 347 868 l 347 781 l 347 694 l 694 694 l 1042 694 l 1042 608 l 1042 521 l 1128 521 l 1215 521 l 1215 434 l 1215 347 l 1128 347 l 1042 347 l 1042 260 l 1042 174 l 521 174 l 0 174 l 0 260 l 0 347 l 434 347 l 868 347 l 868 434 l 868 521 l 521 521 l 174 521 l 174 608 l 174 694 l 87 694 l 0 694 l 0 781 l 0 868 l 87 868 l 174 868 l 174 955 l 174 1042 l 347 1042 l 521 1042 l 521 1128 l 521 1215 l 608 1215 l 694 1215 l 694 1302 z "},"ś":{"ha":1389,"x_min":0,"x_max":1215,"o":"m 694 1302 l 694 1389 l 781 1389 l 868 1389 l 868 1302 l 868 1215 l 781 1215 l 694 1215 l 694 1128 l 694 1042 l 868 1042 l 1042 1042 l 1042 955 l 1042 868 l 694 868 l 347 868 l 347 781 l 347 694 l 694 694 l 1042 694 l 1042 608 l 1042 521 l 1128 521 l 1215 521 l 1215 434 l 1215 347 l 1128 347 l 1042 347 l 1042 260 l 1042 174 l 521 174 l 0 174 l 0 260 l 0 347 l 434 347 l 868 347 l 868 434 l 868 521 l 521 521 l 174 521 l 174 608 l 174 694 l 87 694 l 0 694 l 0 781 l 0 868 l 87 868 l 174 868 l 174 955 l 174 1042 l 347 1042 l 521 1042 l 521 1128 l 521 1215 l 608 1215 l 694 1215 l 694 1302 z "},"Ŝ":{"ha":1389,"x_min":0,"x_max":1215,"o":"m 347 1302 l 347 1389 l 608 1389 l 868 1389 l 868 1302 l 868 1215 l 955 1215 l 1042 1215 l 1042 1042 l 1042 868 l 694 868 l 347 868 l 347 781 l 347 694 l 694 694 l 1042 694 l 1042 608 l 1042 521 l 1128 521 l 1215 521 l 1215 434 l 1215 347 l 1128 347 l 1042 347 l 1042 260 l 1042 174 l 521 174 l 0 174 l 0 260 l 0 347 l 434 347 l 868 347 l 868 434 l 868 521 l 521 521 l 174 521 l 174 608 l 174 694 l 87 694 l 0 694 l 0 781 l 0 868 l 87 868 l 174 868 l 174 1042 l 174 1215 l 260 1215 l 347 1215 l 347 1302 m 694 1128 l 694 1215 l 608 1215 l 521 1215 l 521 1128 l 521 1042 l 608 1042 l 694 1042 l 694 1128 z "},"ŝ":{"ha":1389,"x_min":0,"x_max":1215,"o":"m 347 1302 l 347 1389 l 608 1389 l 868 1389 l 868 1302 l 868 1215 l 955 1215 l 1042 1215 l 1042 1042 l 1042 868 l 694 868 l 347 868 l 347 781 l 347 694 l 694 694 l 1042 694 l 1042 608 l 1042 521 l 1128 521 l 1215 521 l 1215 434 l 1215 347 l 1128 347 l 1042 347 l 1042 260 l 1042 174 l 521 174 l 0 174 l 0 260 l 0 347 l 434 347 l 868 347 l 868 434 l 868 521 l 521 521 l 174 521 l 174 608 l 174 694 l 87 694 l 0 694 l 0 781 l 0 868 l 87 868 l 174 868 l 174 1042 l 174 1215 l 260 1215 l 347 1215 l 347 1302 m 694 1128 l 694 1215 l 608 1215 l 521 1215 l 521 1128 l 521 1042 l 608 1042 l 694 1042 l 694 1128 z "},"Ş":{"ha":1389,"x_min":0,"x_max":1215,"o":"m 174 1302 l 174 1389 l 608 1389 l 1042 1389 l 1042 1302 l 1042 1215 l 694 1215 l 347 1215 l 347 1128 l 347 1042 l 694 1042 l 1042 1042 l 1042 955 l 1042 868 l 1128 868 l 1215 868 l 1215 694 l 1215 521 l 1128 521 l 1042 521 l 1042 434 l 1042 347 l 955 347 l 868 347 l 868 260 l 868 174 l 781 174 l 694 174 l 694 87 l 694 0 l 521 0 l 347 0 l 347 87 l 347 174 l 521 174 l 694 174 l 694 260 l 694 347 l 434 347 l 174 347 l 174 434 l 174 521 l 87 521 l 0 521 l 0 608 l 0 694 l 174 694 l 347 694 l 347 608 l 347 521 l 608 521 l 868 521 l 868 694 l 868 868 l 521 868 l 174 868 l 174 955 l 174 1042 l 87 1042 l 0 1042 l 0 1128 l 0 1215 l 87 1215 l 174 1215 l 174 1302 z "},"ş":{"ha":1389,"x_min":0,"x_max":1215,"o":"m 174 1128 l 174 1215 l 608 1215 l 1042 1215 l 1042 1128 l 1042 1042 l 694 1042 l 347 1042 l 347 955 l 347 868 l 694 868 l 1042 868 l 1042 781 l 1042 694 l 1128 694 l 1215 694 l 1215 608 l 1215 521 l 1128 521 l 1042 521 l 1042 434 l 1042 347 l 955 347 l 868 347 l 868 260 l 868 174 l 781 174 l 694 174 l 694 87 l 694 0 l 521 0 l 347 0 l 347 87 l 347 174 l 521 174 l 694 174 l 694 260 l 694 347 l 347 347 l 0 347 l 0 434 l 0 521 l 434 521 l 868 521 l 868 608 l 868 694 l 521 694 l 174 694 l 174 781 l 174 868 l 87 868 l 0 868 l 0 955 l 0 1042 l 87 1042 l 174 1042 l 174 1128 z "},"Š":{"ha":1389,"x_min":0,"x_max":1215,"o":"m 174 1302 l 174 1389 l 347 1389 l 521 1389 l 521 1302 l 521 1215 l 608 1215 l 694 1215 l 694 1302 l 694 1389 l 868 1389 l 1042 1389 l 1042 1302 l 1042 1215 l 955 1215 l 868 1215 l 868 1128 l 868 1042 l 955 1042 l 1042 1042 l 1042 955 l 1042 868 l 694 868 l 347 868 l 347 781 l 347 694 l 694 694 l 1042 694 l 1042 608 l 1042 521 l 1128 521 l 1215 521 l 1215 434 l 1215 347 l 1128 347 l 1042 347 l 1042 260 l 1042 174 l 521 174 l 0 174 l 0 260 l 0 347 l 434 347 l 868 347 l 868 434 l 868 521 l 521 521 l 174 521 l 174 608 l 174 694 l 87 694 l 0 694 l 0 781 l 0 868 l 87 868 l 174 868 l 174 955 l 174 1042 l 260 1042 l 347 1042 l 347 1128 l 347 1215 l 260 1215 l 174 1215 l 174 1302 z "},"š":{"ha":1389,"x_min":0,"x_max":1215,"o":"m 174 1302 l 174 1389 l 347 1389 l 521 1389 l 521 1302 l 521 1215 l 608 1215 l 694 1215 l 694 1302 l 694 1389 l 868 1389 l 1042 1389 l 1042 1302 l 1042 1215 l 955 1215 l 868 1215 l 868 1128 l 868 1042 l 955 1042 l 1042 1042 l 1042 955 l 1042 868 l 694 868 l 347 868 l 347 781 l 347 694 l 694 694 l 1042 694 l 1042 608 l 1042 521 l 1128 521 l 1215 521 l 1215 434 l 1215 347 l 1128 347 l 1042 347 l 1042 260 l 1042 174 l 521 174 l 0 174 l 0 260 l 0 347 l 434 347 l 868 347 l 868 434 l 868 521 l 521 521 l 174 521 l 174 608 l 174 694 l 87 694 l 0 694 l 0 781 l 0 868 l 87 868 l 174 868 l 174 955 l 174 1042 l 260 1042 l 347 1042 l 347 1128 l 347 1215 l 260 1215 l 174 1215 l 174 1302 z "},"Ţ":{"ha":1389,"x_min":174,"x_max":1215,"o":"m 174 1302 l 174 1389 l 694 1389 l 1215 1389 l 1215 1302 l 1215 1215 l 1042 1215 l 868 1215 l 868 694 l 868 174 l 781 174 l 694 174 l 694 87 l 694 0 l 521 0 l 347 0 l 347 87 l 347 174 l 521 174 l 694 174 l 694 260 l 694 347 l 608 347 l 521 347 l 521 781 l 521 1215 l 347 1215 l 174 1215 l 174 1302 z "},"ţ":{"ha":1389,"x_min":174,"x_max":1215,"o":"m 521 1215 l 521 1389 l 694 1389 l 868 1389 l 868 1215 l 868 1042 l 1042 1042 l 1215 1042 l 1215 955 l 1215 868 l 1042 868 l 868 868 l 868 521 l 868 174 l 781 174 l 694 174 l 694 87 l 694 0 l 521 0 l 347 0 l 347 87 l 347 174 l 521 174 l 694 174 l 694 260 l 694 347 l 608 347 l 521 347 l 521 608 l 521 868 l 347 868 l 174 868 l 174 955 l 174 1042 l 347 1042 l 521 1042 l 521 1215 z "},"Ť":{"ha":1389,"x_min":174,"x_max":1215,"o":"m 347 1302 l 347 1389 l 434 1389 l 521 1389 l 521 1302 l 521 1215 l 694 1215 l 868 1215 l 868 1302 l 868 1389 l 955 1389 l 1042 1389 l 1042 1302 l 1042 1215 l 955 1215 l 868 1215 l 868 1128 l 868 1042 l 1042 1042 l 1215 1042 l 1215 955 l 1215 868 l 1042 868 l 868 868 l 868 521 l 868 174 l 694 174 l 521 174 l 521 521 l 521 868 l 347 868 l 174 868 l 174 955 l 174 1042 l 347 1042 l 521 1042 l 521 1128 l 521 1215 l 434 1215 l 347 1215 l 347 1302 z "},"ť":{"ha":1389,"x_min":174,"x_max":1215,"o":"m 347 1302 l 347 1389 l 434 1389 l 521 1389 l 521 1302 l 521 1215 l 694 1215 l 868 1215 l 868 1302 l 868 1389 l 955 1389 l 1042 1389 l 1042 1302 l 1042 1215 l 955 1215 l 868 1215 l 868 1042 l 868 868 l 1042 868 l 1215 868 l 1215 781 l 1215 694 l 1042 694 l 868 694 l 868 434 l 868 174 l 694 174 l 521 174 l 521 434 l 521 694 l 347 694 l 174 694 l 174 781 l 174 868 l 347 868 l 521 868 l 521 1042 l 521 1215 l 434 1215 l 347 1215 l 347 1302 z "},"Ŧ":{"ha":1389,"x_min":174,"x_max":1215,"o":"m 174 1302 l 174 1389 l 694 1389 l 1215 1389 l 1215 1302 l 1215 1215 l 1042 1215 l 868 1215 l 868 1042 l 868 868 l 955 868 l 1042 868 l 1042 781 l 1042 694 l 955 694 l 868 694 l 868 434 l 868 174 l 694 174 l 521 174 l 521 347 l 521 521 l 434 521 l 347 521 l 347 608 l 347 694 l 434 694 l 521 694 l 521 955 l 521 1215 l 347 1215 l 174 1215 l 174 1302 z "},"ŧ":{"ha":1389,"x_min":174,"x_max":1215,"o":"m 521 1215 l 521 1389 l 694 1389 l 868 1389 l 868 1215 l 868 1042 l 1042 1042 l 1215 1042 l 1215 955 l 1215 868 l 1042 868 l 868 868 l 868 781 l 868 694 l 955 694 l 1042 694 l 1042 608 l 1042 521 l 955 521 l 868 521 l 868 347 l 868 174 l 694 174 l 521 174 l 521 260 l 521 347 l 434 347 l 347 347 l 347 434 l 347 521 l 434 521 l 521 521 l 521 694 l 521 868 l 347 868 l 174 868 l 174 955 l 174 1042 l 347 1042 l 521 1042 l 521 1215 z "},"Ũ":{"ha":1389,"x_min":0,"x_max":1215,"o":"m 347 1302 l 347 1389 l 521 1389 l 694 1389 l 694 1302 l 694 1215 l 781 1215 l 868 1215 l 868 1302 l 868 1389 l 955 1389 l 1042 1389 l 1042 1302 l 1042 1215 l 955 1215 l 868 1215 l 868 1128 l 868 1042 l 1042 1042 l 1215 1042 l 1215 694 l 1215 347 l 1128 347 l 1042 347 l 1042 260 l 1042 174 l 608 174 l 174 174 l 174 260 l 174 347 l 87 347 l 0 347 l 0 694 l 0 1042 l 87 1042 l 174 1042 l 174 1128 l 174 1215 l 260 1215 l 347 1215 l 347 1302 m 521 1128 l 521 1215 l 434 1215 l 347 1215 l 347 781 l 347 347 l 608 347 l 868 347 l 868 694 l 868 1042 l 694 1042 l 521 1042 l 521 1128 z "},"ũ":{"ha":1389,"x_min":0,"x_max":1215,"o":"m 347 1302 l 347 1389 l 521 1389 l 694 1389 l 694 1302 l 694 1215 l 781 1215 l 868 1215 l 868 1302 l 868 1389 l 955 1389 l 1042 1389 l 1042 1302 l 1042 1215 l 955 1215 l 868 1215 l 868 1128 l 868 1042 l 1042 1042 l 1215 1042 l 1215 608 l 1215 174 l 694 174 l 174 174 l 174 260 l 174 347 l 87 347 l 0 347 l 0 694 l 0 1042 l 87 1042 l 174 1042 l 174 1128 l 174 1215 l 260 1215 l 347 1215 l 347 1302 m 521 1128 l 521 1215 l 434 1215 l 347 1215 l 347 781 l 347 347 l 608 347 l 868 347 l 868 694 l 868 1042 l 694 1042 l 521 1042 l 521 1128 z "},"Ū":{"ha":1389,"x_min":0,"x_max":1215,"o":"m 0 694 l 0 1042 l 174 1042 l 347 1042 l 347 694 l 347 347 l 608 347 l 868 347 l 868 694 l 868 1042 l 1042 1042 l 1215 1042 l 1215 694 l 1215 347 l 1128 347 l 1042 347 l 1042 260 l 1042 174 l 608 174 l 174 174 l 174 260 l 174 347 l 87 347 l 0 347 l 0 694 m 174 1302 l 174 1389 l 608 1389 l 1042 1389 l 1042 1302 l 1042 1215 l 608 1215 l 174 1215 l 174 1302 z "},"ū":{"ha":1389,"x_min":0,"x_max":1215,"o":"m 0 694 l 0 1042 l 174 1042 l 347 1042 l 347 694 l 347 347 l 608 347 l 868 347 l 868 694 l 868 1042 l 1042 1042 l 1215 1042 l 1215 608 l 1215 174 l 694 174 l 174 174 l 174 260 l 174 347 l 87 347 l 0 347 l 0 694 m 174 1302 l 174 1389 l 608 1389 l 1042 1389 l 1042 1302 l 1042 1215 l 608 1215 l 174 1215 l 174 1302 z "},"Ŭ":{"ha":1389,"x_min":0,"x_max":1215,"o":"m 174 1302 l 174 1389 l 260 1389 l 347 1389 l 347 1302 l 347 1215 l 608 1215 l 868 1215 l 868 1302 l 868 1389 l 955 1389 l 1042 1389 l 1042 1302 l 1042 1215 l 955 1215 l 868 1215 l 868 1128 l 868 1042 l 1042 1042 l 1215 1042 l 1215 694 l 1215 347 l 1128 347 l 1042 347 l 1042 260 l 1042 174 l 608 174 l 174 174 l 174 260 l 174 347 l 87 347 l 0 347 l 0 694 l 0 1042 l 174 1042 l 347 1042 l 347 1128 l 347 1215 l 260 1215 l 174 1215 l 174 1302 m 868 694 l 868 1042 l 608 1042 l 347 1042 l 347 694 l 347 347 l 608 347 l 868 347 l 868 694 z "},"ŭ":{"ha":1389,"x_min":0,"x_max":1215,"o":"m 174 1302 l 174 1389 l 260 1389 l 347 1389 l 347 1302 l 347 1215 l 608 1215 l 868 1215 l 868 1302 l 868 1389 l 955 1389 l 1042 1389 l 1042 1302 l 1042 1215 l 955 1215 l 868 1215 l 868 1128 l 868 1042 l 1042 1042 l 1215 1042 l 1215 608 l 1215 174 l 694 174 l 174 174 l 174 260 l 174 347 l 87 347 l 0 347 l 0 694 l 0 1042 l 174 1042 l 347 1042 l 347 1128 l 347 1215 l 260 1215 l 174 1215 l 174 1302 m 868 694 l 868 1042 l 608 1042 l 347 1042 l 347 694 l 347 347 l 608 347 l 868 347 l 868 694 z "},"Ů":{"ha":1389,"x_min":0,"x_max":1215,"o":"m 347 1302 l 347 1389 l 608 1389 l 868 1389 l 868 1302 l 868 1215 l 955 1215 l 1042 1215 l 1042 1128 l 1042 1042 l 1128 1042 l 1215 1042 l 1215 694 l 1215 347 l 1128 347 l 1042 347 l 1042 260 l 1042 174 l 608 174 l 174 174 l 174 260 l 174 347 l 87 347 l 0 347 l 0 694 l 0 1042 l 87 1042 l 174 1042 l 174 1128 l 174 1215 l 260 1215 l 347 1215 l 347 1302 m 694 1128 l 694 1215 l 608 1215 l 521 1215 l 521 1128 l 521 1042 l 608 1042 l 694 1042 l 694 1128 m 347 955 l 347 1042 l 260 1042 l 174 1042 l 174 955 l 174 868 l 260 868 l 347 868 l 347 608 l 347 347 l 608 347 l 868 347 l 868 608 l 868 868 l 955 868 l 1042 868 l 1042 955 l 1042 1042 l 955 1042 l 868 1042 l 868 955 l 868 868 l 608 868 l 347 868 l 347 955 z "},"ů":{"ha":1389,"x_min":0,"x_max":1215,"o":"m 347 1302 l 347 1389 l 608 1389 l 868 1389 l 868 1302 l 868 1215 l 955 1215 l 1042 1215 l 1042 1128 l 1042 1042 l 1128 1042 l 1215 1042 l 1215 608 l 1215 174 l 694 174 l 174 174 l 174 260 l 174 347 l 87 347 l 0 347 l 0 694 l 0 1042 l 87 1042 l 174 1042 l 174 1128 l 174 1215 l 260 1215 l 347 1215 l 347 1302 m 694 1128 l 694 1215 l 608 1215 l 521 1215 l 521 1128 l 521 1042 l 608 1042 l 694 1042 l 694 1128 m 347 955 l 347 1042 l 260 1042 l 174 1042 l 174 955 l 174 868 l 260 868 l 347 868 l 347 608 l 347 347 l 608 347 l 868 347 l 868 608 l 868 868 l 955 868 l 1042 868 l 1042 955 l 1042 1042 l 955 1042 l 868 1042 l 868 955 l 868 868 l 608 868 l 347 868 l 347 955 z "},"Ű":{"ha":1389,"x_min":0,"x_max":1215,"o":"m 347 1302 l 347 1389 l 434 1389 l 521 1389 l 521 1302 l 521 1215 l 434 1215 l 347 1215 l 347 781 l 347 347 l 608 347 l 868 347 l 868 694 l 868 1042 l 781 1042 l 694 1042 l 694 1128 l 694 1215 l 781 1215 l 868 1215 l 868 1302 l 868 1389 l 955 1389 l 1042 1389 l 1042 1302 l 1042 1215 l 955 1215 l 868 1215 l 868 1128 l 868 1042 l 1042 1042 l 1215 1042 l 1215 694 l 1215 347 l 1128 347 l 1042 347 l 1042 260 l 1042 174 l 608 174 l 174 174 l 174 260 l 174 347 l 87 347 l 0 347 l 0 694 l 0 1042 l 87 1042 l 174 1042 l 174 1128 l 174 1215 l 260 1215 l 347 1215 l 347 1302 z "},"ű":{"ha":1389,"x_min":0,"x_max":1215,"o":"m 347 1302 l 347 1389 l 434 1389 l 521 1389 l 521 1302 l 521 1215 l 434 1215 l 347 1215 l 347 781 l 347 347 l 608 347 l 868 347 l 868 694 l 868 1042 l 781 1042 l 694 1042 l 694 1128 l 694 1215 l 781 1215 l 868 1215 l 868 1302 l 868 1389 l 955 1389 l 1042 1389 l 1042 1302 l 1042 1215 l 955 1215 l 868 1215 l 868 1128 l 868 1042 l 1042 1042 l 1215 1042 l 1215 608 l 1215 174 l 694 174 l 174 174 l 174 260 l 174 347 l 87 347 l 0 347 l 0 694 l 0 1042 l 87 1042 l 174 1042 l 174 1128 l 174 1215 l 260 1215 l 347 1215 l 347 1302 z "},"Ų":{"ha":1389,"x_min":0,"x_max":1215,"o":"m 0 1042 l 0 1389 l 174 1389 l 347 1389 l 347 1042 l 347 694 l 608 694 l 868 694 l 868 1042 l 868 1389 l 1042 1389 l 1215 1389 l 1215 1042 l 1215 694 l 1128 694 l 1042 694 l 1042 608 l 1042 521 l 868 521 l 694 521 l 694 434 l 694 347 l 608 347 l 521 347 l 521 260 l 521 174 l 694 174 l 868 174 l 868 87 l 868 0 l 694 0 l 521 0 l 521 87 l 521 174 l 434 174 l 347 174 l 347 260 l 347 347 l 434 347 l 521 347 l 521 434 l 521 521 l 347 521 l 174 521 l 174 608 l 174 694 l 87 694 l 0 694 l 0 1042 z "},"ų":{"ha":1389,"x_min":0,"x_max":1215,"o":"m 0 1042 l 0 1389 l 174 1389 l 347 1389 l 347 1042 l 347 694 l 608 694 l 868 694 l 868 1042 l 868 1389 l 1042 1389 l 1215 1389 l 1215 955 l 1215 521 l 955 521 l 694 521 l 694 434 l 694 347 l 608 347 l 521 347 l 521 260 l 521 174 l 694 174 l 868 174 l 868 87 l 868 0 l 694 0 l 521 0 l 521 87 l 521 174 l 434 174 l 347 174 l 347 260 l 347 347 l 434 347 l 521 347 l 521 434 l 521 521 l 347 521 l 174 521 l 174 608 l 174 694 l 87 694 l 0 694 l 0 1042 z "},"Ŵ":{"ha":1389,"x_min":0,"x_max":1215,"o":"m 347 1302 l 347 1389 l 608 1389 l 868 1389 l 868 1302 l 868 1215 l 955 1215 l 1042 1215 l 1042 1128 l 1042 1042 l 1128 1042 l 1215 1042 l 1215 608 l 1215 174 l 955 174 l 694 174 l 694 260 l 694 347 l 608 347 l 521 347 l 521 260 l 521 174 l 260 174 l 0 174 l 0 608 l 0 1042 l 87 1042 l 174 1042 l 174 1128 l 174 1215 l 260 1215 l 347 1215 l 347 1302 m 694 1128 l 694 1215 l 608 1215 l 521 1215 l 521 1128 l 521 1042 l 434 1042 l 347 1042 l 347 868 l 347 694 l 434 694 l 521 694 l 521 781 l 521 868 l 608 868 l 694 868 l 694 781 l 694 694 l 781 694 l 868 694 l 868 868 l 868 1042 l 781 1042 l 694 1042 l 694 1128 z "},"ŵ":{"ha":1389,"x_min":0,"x_max":1215,"o":"m 347 1302 l 347 1389 l 608 1389 l 868 1389 l 868 1302 l 868 1215 l 955 1215 l 1042 1215 l 1042 1128 l 1042 1042 l 1128 1042 l 1215 1042 l 1215 608 l 1215 174 l 694 174 l 174 174 l 174 260 l 174 347 l 87 347 l 0 347 l 0 694 l 0 1042 l 87 1042 l 174 1042 l 174 1128 l 174 1215 l 260 1215 l 347 1215 l 347 1302 m 694 1128 l 694 1215 l 608 1215 l 521 1215 l 521 1128 l 521 1042 l 608 1042 l 694 1042 l 694 694 l 694 347 l 781 347 l 868 347 l 868 694 l 868 1042 l 781 1042 l 694 1042 l 694 1128 m 347 694 l 347 1042 l 260 1042 l 174 1042 l 174 694 l 174 347 l 260 347 l 347 347 l 347 694 z "},"Ŷ":{"ha":1389,"x_min":174,"x_max":1215,"o":"m 521 1302 l 521 1389 l 694 1389 l 868 1389 l 868 1302 l 868 1215 l 955 1215 l 1042 1215 l 1042 1128 l 1042 1042 l 1128 1042 l 1215 1042 l 1215 868 l 1215 694 l 1128 694 l 1042 694 l 1042 608 l 1042 521 l 955 521 l 868 521 l 868 347 l 868 174 l 694 174 l 521 174 l 521 347 l 521 521 l 434 521 l 347 521 l 347 608 l 347 694 l 260 694 l 174 694 l 174 868 l 174 1042 l 260 1042 l 347 1042 l 347 1128 l 347 1215 l 434 1215 l 521 1215 l 521 1302 m 868 955 l 868 1215 l 694 1215 l 521 1215 l 521 955 l 521 694 l 694 694 l 868 694 l 868 955 z "},"ŷ":{"ha":1389,"x_min":0,"x_max":1215,"o":"m 347 1302 l 347 1389 l 608 1389 l 868 1389 l 868 1302 l 868 1215 l 955 1215 l 1042 1215 l 1042 1128 l 1042 1042 l 1128 1042 l 1215 1042 l 1215 608 l 1215 174 l 1128 174 l 1042 174 l 1042 87 l 1042 0 l 608 0 l 174 0 l 174 87 l 174 174 l 521 174 l 868 174 l 868 260 l 868 347 l 521 347 l 174 347 l 174 434 l 174 521 l 87 521 l 0 521 l 0 781 l 0 1042 l 87 1042 l 174 1042 l 174 1128 l 174 1215 l 260 1215 l 347 1215 l 347 1302 m 694 1128 l 694 1215 l 608 1215 l 521 1215 l 521 1128 l 521 1042 l 434 1042 l 347 1042 l 347 781 l 347 521 l 608 521 l 868 521 l 868 781 l 868 1042 l 781 1042 l 694 1042 l 694 1128 z "},"Ÿ":{"ha":1389,"x_min":174,"x_max":1215,"o":"m 174 868 l 174 1042 l 347 1042 l 521 1042 l 521 868 l 521 694 l 694 694 l 868 694 l 868 868 l 868 1042 l 1042 1042 l 1215 1042 l 1215 868 l 1215 694 l 1128 694 l 1042 694 l 1042 608 l 1042 521 l 955 521 l 868 521 l 868 347 l 868 174 l 694 174 l 521 174 l 521 347 l 521 521 l 434 521 l 347 521 l 347 608 l 347 694 l 260 694 l 174 694 l 174 868 m 868 1302 l 868 1389 l 1042 1389 l 1215 1389 l 1215 1302 l 1215 1215 l 1042 1215 l 868 1215 l 868 1302 m 174 1302 l 174 1389 l 347 1389 l 521 1389 l 521 1302 l 521 1215 l 347 1215 l 174 1215 l 174 1302 z "},"Ź":{"ha":1389,"x_min":0,"x_max":1215,"o":"m 694 1302 l 694 1389 l 781 1389 l 868 1389 l 868 1302 l 868 1215 l 781 1215 l 694 1215 l 694 1128 l 694 1042 l 955 1042 l 1215 1042 l 1215 955 l 1215 868 l 1128 868 l 1042 868 l 1042 781 l 1042 694 l 955 694 l 868 694 l 868 608 l 868 521 l 781 521 l 694 521 l 694 434 l 694 347 l 955 347 l 1215 347 l 1215 260 l 1215 174 l 608 174 l 0 174 l 0 260 l 0 347 l 87 347 l 174 347 l 174 434 l 174 521 l 260 521 l 347 521 l 347 608 l 347 694 l 434 694 l 521 694 l 521 781 l 521 868 l 260 868 l 0 868 l 0 955 l 0 1042 l 260 1042 l 521 1042 l 521 1128 l 521 1215 l 608 1215 l 694 1215 l 694 1302 z "},"ź":{"ha":1389,"x_min":0,"x_max":1215,"o":"m 694 1302 l 694 1389 l 781 1389 l 868 1389 l 868 1302 l 868 1215 l 781 1215 l 694 1215 l 694 1128 l 694 1042 l 955 1042 l 1215 1042 l 1215 955 l 1215 868 l 1128 868 l 1042 868 l 1042 781 l 1042 694 l 955 694 l 868 694 l 868 608 l 868 521 l 781 521 l 694 521 l 694 434 l 694 347 l 955 347 l 1215 347 l 1215 260 l 1215 174 l 608 174 l 0 174 l 0 260 l 0 347 l 87 347 l 174 347 l 174 434 l 174 521 l 260 521 l 347 521 l 347 608 l 347 694 l 434 694 l 521 694 l 521 781 l 521 868 l 260 868 l 0 868 l 0 955 l 0 1042 l 260 1042 l 521 1042 l 521 1128 l 521 1215 l 608 1215 l 694 1215 l 694 1302 z "},"Ż":{"ha":1389,"x_min":0,"x_max":1215,"o":"m 0 955 l 0 1042 l 608 1042 l 1215 1042 l 1215 955 l 1215 868 l 1128 868 l 1042 868 l 1042 781 l 1042 694 l 955 694 l 868 694 l 868 608 l 868 521 l 781 521 l 694 521 l 694 434 l 694 347 l 955 347 l 1215 347 l 1215 260 l 1215 174 l 608 174 l 0 174 l 0 260 l 0 347 l 87 347 l 174 347 l 174 434 l 174 521 l 260 521 l 347 521 l 347 608 l 347 694 l 434 694 l 521 694 l 521 781 l 521 868 l 260 868 l 0 868 l 0 955 m 521 1302 l 521 1389 l 694 1389 l 868 1389 l 868 1302 l 868 1215 l 694 1215 l 521 1215 l 521 1302 z "},"ż":{"ha":1389,"x_min":0,"x_max":1215,"o":"m 0 955 l 0 1042 l 608 1042 l 1215 1042 l 1215 955 l 1215 868 l 1128 868 l 1042 868 l 1042 781 l 1042 694 l 955 694 l 868 694 l 868 608 l 868 521 l 781 521 l 694 521 l 694 434 l 694 347 l 955 347 l 1215 347 l 1215 260 l 1215 174 l 608 174 l 0 174 l 0 260 l 0 347 l 87 347 l 174 347 l 174 434 l 174 521 l 260 521 l 347 521 l 347 608 l 347 694 l 434 694 l 521 694 l 521 781 l 521 868 l 260 868 l 0 868 l 0 955 m 521 1302 l 521 1389 l 694 1389 l 868 1389 l 868 1302 l 868 1215 l 694 1215 l 521 1215 l 521 1302 z "},"Ž":{"ha":1389,"x_min":0,"x_max":1215,"o":"m 174 1302 l 174 1389 l 347 1389 l 521 1389 l 521 1302 l 521 1215 l 608 1215 l 694 1215 l 694 1302 l 694 1389 l 868 1389 l 1042 1389 l 1042 1302 l 1042 1215 l 955 1215 l 868 1215 l 868 1128 l 868 1042 l 1042 1042 l 1215 1042 l 1215 955 l 1215 868 l 1128 868 l 1042 868 l 1042 781 l 1042 694 l 955 694 l 868 694 l 868 608 l 868 521 l 781 521 l 694 521 l 694 434 l 694 347 l 955 347 l 1215 347 l 1215 260 l 1215 174 l 608 174 l 0 174 l 0 260 l 0 347 l 87 347 l 174 347 l 174 434 l 174 521 l 260 521 l 347 521 l 347 608 l 347 694 l 434 694 l 521 694 l 521 781 l 521 868 l 260 868 l 0 868 l 0 955 l 0 1042 l 174 1042 l 347 1042 l 347 1128 l 347 1215 l 260 1215 l 174 1215 l 174 1302 z "},"ž":{"ha":1389,"x_min":0,"x_max":1215,"o":"m 174 1302 l 174 1389 l 347 1389 l 521 1389 l 521 1302 l 521 1215 l 608 1215 l 694 1215 l 694 1302 l 694 1389 l 868 1389 l 1042 1389 l 1042 1302 l 1042 1215 l 955 1215 l 868 1215 l 868 1128 l 868 1042 l 1042 1042 l 1215 1042 l 1215 955 l 1215 868 l 1128 868 l 1042 868 l 1042 781 l 1042 694 l 955 694 l 868 694 l 868 608 l 868 521 l 781 521 l 694 521 l 694 434 l 694 347 l 955 347 l 1215 347 l 1215 260 l 1215 174 l 608 174 l 0 174 l 0 260 l 0 347 l 87 347 l 174 347 l 174 434 l 174 521 l 260 521 l 347 521 l 347 608 l 347 694 l 434 694 l 521 694 l 521 781 l 521 868 l 260 868 l 0 868 l 0 955 l 0 1042 l 174 1042 l 347 1042 l 347 1128 l 347 1215 l 260 1215 l 174 1215 l 174 1302 z "},"ſ":{"ha":1389,"x_min":521,"x_max":1215,"o":"m 694 1302 l 694 1389 l 955 1389 l 1215 1389 l 1215 1302 l 1215 1215 l 1042 1215 l 868 1215 l 868 694 l 868 174 l 694 174 l 521 174 l 521 694 l 521 1215 l 608 1215 l 694 1215 l 694 1302 z "},"ƒ":{"ha":1389,"x_min":174,"x_max":1215,"o":"m 694 1302 l 694 1389 l 955 1389 l 1215 1389 l 1215 1302 l 1215 1215 l 1042 1215 l 868 1215 l 868 1128 l 868 1042 l 1042 1042 l 1215 1042 l 1215 955 l 1215 868 l 1042 868 l 868 868 l 868 608 l 868 347 l 781 347 l 694 347 l 694 260 l 694 174 l 434 174 l 174 174 l 174 260 l 174 347 l 347 347 l 521 347 l 521 608 l 521 868 l 347 868 l 174 868 l 174 955 l 174 1042 l 347 1042 l 521 1042 l 521 1128 l 521 1215 l 608 1215 l 694 1215 l 694 1302 z "},"ˆ":{"ha":1389,"x_min":174,"x_max":1042,"o":"m 347 1302 l 347 1389 l 608 1389 l 868 1389 l 868 1302 l 868 1215 l 955 1215 l 1042 1215 l 1042 1128 l 1042 1042 l 868 1042 l 694 1042 l 694 1128 l 694 1215 l 608 1215 l 521 1215 l 521 1128 l 521 1042 l 347 1042 l 174 1042 l 174 1128 l 174 1215 l 260 1215 l 347 1215 l 347 1302 z "},"ˇ":{"ha":1389,"x_min":174,"x_max":1042,"o":"m 174 1302 l 174 1389 l 347 1389 l 521 1389 l 521 1302 l 521 1215 l 608 1215 l 694 1215 l 694 1302 l 694 1389 l 868 1389 l 1042 1389 l 1042 1302 l 1042 1215 l 955 1215 l 868 1215 l 868 1128 l 868 1042 l 608 1042 l 347 1042 l 347 1128 l 347 1215 l 260 1215 l 174 1215 l 174 1302 z "},"ˉ":{"ha":1389,"x_min":174,"x_max":1042,"o":"m 174 1302 l 174 1389 l 608 1389 l 1042 1389 l 1042 1302 l 1042 1215 l 608 1215 l 174 1215 l 174 1302 z "},"ˊ":{"ha":1389,"x_min":521,"x_max":868,"o":"m 694 1302 l 694 1389 l 781 1389 l 868 1389 l 868 1302 l 868 1215 l 781 1215 l 694 1215 l 694 1128 l 694 1042 l 608 1042 l 521 1042 l 521 1128 l 521 1215 l 608 1215 l 694 1215 l 694 1302 z "},"ˋ":{"ha":1389,"x_min":521,"x_max":868,"o":"m 521 1302 l 521 1389 l 608 1389 l 694 1389 l 694 1302 l 694 1215 l 781 1215 l 868 1215 l 868 1128 l 868 1042 l 781 1042 l 694 1042 l 694 1128 l 694 1215 l 608 1215 l 521 1215 l 521 1302 z "},"˗":{"ha":1389,"x_min":174,"x_max":1042,"o":"m 174 781 l 174 868 l 608 868 l 1042 868 l 1042 781 l 1042 694 l 608 694 l 174 694 l 174 781 z "},"˘":{"ha":1389,"x_min":174,"x_max":1042,"o":"m 174 1302 l 174 1389 l 260 1389 l 347 1389 l 347 1302 l 347 1215 l 608 1215 l 868 1215 l 868 1302 l 868 1389 l 955 1389 l 1042 1389 l 1042 1302 l 1042 1215 l 955 1215 l 868 1215 l 868 1128 l 868 1042 l 608 1042 l 347 1042 l 347 1128 l 347 1215 l 260 1215 l 174 1215 l 174 1302 z "},"˙":{"ha":1389,"x_min":521,"x_max":868,"o":"m 521 1302 l 521 1389 l 694 1389 l 868 1389 l 868 1302 l 868 1215 l 694 1215 l 521 1215 l 521 1302 z "},"˚":{"ha":1389,"x_min":174,"x_max":1042,"o":"m 347 1302 l 347 1389 l 608 1389 l 868 1389 l 868 1302 l 868 1215 l 955 1215 l 1042 1215 l 1042 1128 l 1042 1042 l 955 1042 l 868 1042 l 868 955 l 868 868 l 608 868 l 347 868 l 347 955 l 347 1042 l 260 1042 l 174 1042 l 174 1128 l 174 1215 l 260 1215 l 347 1215 l 347 1302 m 694 1128 l 694 1215 l 608 1215 l 521 1215 l 521 1128 l 521 1042 l 608 1042 l 694 1042 l 694 1128 z "},"˛":{"ha":1389,"x_min":347,"x_max":868,"o":"m 521 434 l 521 521 l 608 521 l 694 521 l 694 434 l 694 347 l 608 347 l 521 347 l 521 260 l 521 174 l 694 174 l 868 174 l 868 87 l 868 0 l 694 0 l 521 0 l 521 87 l 521 174 l 434 174 l 347 174 l 347 260 l 347 347 l 434 347 l 521 347 l 521 434 z "},"˜":{"ha":1389,"x_min":174,"x_max":1042,"o":"m 347 1302 l 347 1389 l 521 1389 l 694 1389 l 694 1302 l 694 1215 l 781 1215 l 868 1215 l 868 1302 l 868 1389 l 955 1389 l 1042 1389 l 1042 1302 l 1042 1215 l 955 1215 l 868 1215 l 868 1128 l 868 1042 l 694 1042 l 521 1042 l 521 1128 l 521 1215 l 434 1215 l 347 1215 l 347 1128 l 347 1042 l 260 1042 l 174 1042 l 174 1128 l 174 1215 l 260 1215 l 347 1215 l 347 1302 z "},"˝":{"ha":1389,"x_min":174,"x_max":1042,"o":"m 868 1302 l 868 1389 l 955 1389 l 1042 1389 l 1042 1302 l 1042 1215 l 955 1215 l 868 1215 l 868 1128 l 868 1042 l 781 1042 l 694 1042 l 694 1128 l 694 1215 l 781 1215 l 868 1215 l 868 1302 m 347 1302 l 347 1389 l 434 1389 l 521 1389 l 521 1302 l 521 1215 l 434 1215 l 347 1215 l 347 1128 l 347 1042 l 260 1042 l 174 1042 l 174 1128 l 174 1215 l 260 1215 l 347 1215 l 347 1302 z "},"ͺ":{"ha":1389,"x_min":521,"x_max":1042,"o":"m 521 260 l 521 347 l 608 347 l 694 347 l 694 260 l 694 174 l 868 174 l 1042 174 l 1042 87 l 1042 0 l 868 0 l 694 0 l 694 87 l 694 174 l 608 174 l 521 174 l 521 260 z "},";":{"ha":1389,"x_min":174,"x_max":694,"o":"m 347 521 l 347 694 l 521 694 l 694 694 l 694 521 l 694 347 l 608 347 l 521 347 l 521 260 l 521 174 l 347 174 l 174 174 l 174 260 l 174 347 l 260 347 l 347 347 l 347 521 m 347 1042 l 347 1215 l 521 1215 l 694 1215 l 694 1042 l 694 868 l 521 868 l 347 868 l 347 1042 z "},"΄":{"ha":1389,"x_min":521,"x_max":868,"o":"m 694 1302 l 694 1389 l 781 1389 l 868 1389 l 868 1302 l 868 1215 l 781 1215 l 694 1215 l 694 1128 l 694 1042 l 608 1042 l 521 1042 l 521 1128 l 521 1215 l 608 1215 l 694 1215 l 694 1302 z "},"΅":{"ha":1389,"x_min":174,"x_max":1215,"o":"m 1042 1302 l 1042 1389 l 1128 1389 l 1215 1389 l 1215 1302 l 1215 1215 l 1128 1215 l 1042 1215 l 1042 1302 m 694 1302 l 694 1389 l 781 1389 l 868 1389 l 868 1302 l 868 1215 l 781 1215 l 694 1215 l 694 1128 l 694 1042 l 608 1042 l 521 1042 l 521 1128 l 521 1215 l 608 1215 l 694 1215 l 694 1302 m 174 1302 l 174 1389 l 260 1389 l 347 1389 l 347 1302 l 347 1215 l 260 1215 l 174 1215 l 174 1302 z "},"Ά":{"ha":1389,"x_min":0,"x_max":1215,"o":"m 174 1302 l 174 1389 l 260 1389 l 347 1389 l 347 1302 l 347 1215 l 434 1215 l 521 1215 l 521 1302 l 521 1389 l 694 1389 l 868 1389 l 868 1302 l 868 1215 l 955 1215 l 1042 1215 l 1042 1128 l 1042 1042 l 1128 1042 l 1215 1042 l 1215 608 l 1215 174 l 1042 174 l 868 174 l 868 347 l 868 521 l 694 521 l 521 521 l 521 347 l 521 174 l 347 174 l 174 174 l 174 608 l 174 1042 l 87 1042 l 0 1042 l 0 1128 l 0 1215 l 87 1215 l 174 1215 l 174 1302 m 347 1128 l 347 1215 l 260 1215 l 174 1215 l 174 1128 l 174 1042 l 260 1042 l 347 1042 l 347 1128 m 868 868 l 868 1042 l 694 1042 l 521 1042 l 521 868 l 521 694 l 694 694 l 868 694 l 868 868 z "},"·":{"ha":1389,"x_min":347,"x_max":694,"o":"m 347 694 l 347 868 l 521 868 l 694 868 l 694 694 l 694 521 l 521 521 l 347 521 l 347 694 z "},"Έ":{"ha":1389,"x_min":0,"x_max":1389,"o":"m 174 1302 l 174 1389 l 781 1389 l 1389 1389 l 1389 1302 l 1389 1215 l 1042 1215 l 694 1215 l 694 1042 l 694 868 l 868 868 l 1042 868 l 1042 781 l 1042 694 l 868 694 l 694 694 l 694 521 l 694 347 l 1042 347 l 1389 347 l 1389 260 l 1389 174 l 868 174 l 347 174 l 347 694 l 347 1215 l 260 1215 l 174 1215 l 174 1128 l 174 1042 l 87 1042 l 0 1042 l 0 1128 l 0 1215 l 87 1215 l 174 1215 l 174 1302 z "},"Ή":{"ha":1389,"x_min":0,"x_max":1389,"o":"m 174 1302 l 174 1389 l 434 1389 l 694 1389 l 694 1128 l 694 868 l 868 868 l 1042 868 l 1042 1128 l 1042 1389 l 1215 1389 l 1389 1389 l 1389 781 l 1389 174 l 1215 174 l 1042 174 l 1042 434 l 1042 694 l 868 694 l 694 694 l 694 434 l 694 174 l 521 174 l 347 174 l 347 694 l 347 1215 l 260 1215 l 174 1215 l 174 1128 l 174 1042 l 87 1042 l 0 1042 l 0 1128 l 0 1215 l 87 1215 l 174 1215 l 174 1302 z "},"Ί":{"ha":1389,"x_min":0,"x_max":1215,"o":"m 521 1302 l 521 1389 l 868 1389 l 1215 1389 l 1215 1302 l 1215 1215 l 1128 1215 l 1042 1215 l 1042 781 l 1042 347 l 1128 347 l 1215 347 l 1215 260 l 1215 174 l 868 174 l 521 174 l 521 260 l 521 347 l 608 347 l 694 347 l 694 781 l 694 1215 l 608 1215 l 521 1215 l 521 1302 m 174 1302 l 174 1389 l 260 1389 l 347 1389 l 347 1302 l 347 1215 l 260 1215 l 174 1215 l 174 1128 l 174 1042 l 87 1042 l 0 1042 l 0 1128 l 0 1215 l 87 1215 l 174 1215 l 174 1302 z "},"Ό":{"ha":1389,"x_min":0,"x_max":1389,"o":"m 174 1302 l 174 1389 l 260 1389 l 347 1389 l 347 1302 l 347 1215 l 434 1215 l 521 1215 l 521 1302 l 521 1389 l 868 1389 l 1215 1389 l 1215 1302 l 1215 1215 l 1302 1215 l 1389 1215 l 1389 781 l 1389 347 l 1302 347 l 1215 347 l 1215 260 l 1215 174 l 868 174 l 521 174 l 521 260 l 521 347 l 434 347 l 347 347 l 347 781 l 347 1215 l 260 1215 l 174 1215 l 174 1128 l 174 1042 l 87 1042 l 0 1042 l 0 1128 l 0 1215 l 87 1215 l 174 1215 l 174 1302 m 1042 781 l 1042 1215 l 868 1215 l 694 1215 l 694 781 l 694 347 l 868 347 l 1042 347 l 1042 781 z "},"Ύ":{"ha":1389,"x_min":0,"x_max":1389,"o":"m 174 1302 l 174 1389 l 434 1389 l 694 1389 l 694 1128 l 694 868 l 868 868 l 1042 868 l 1042 1128 l 1042 1389 l 1215 1389 l 1389 1389 l 1389 1128 l 1389 868 l 1302 868 l 1215 868 l 1215 781 l 1215 694 l 1128 694 l 1042 694 l 1042 434 l 1042 174 l 868 174 l 694 174 l 694 434 l 694 694 l 608 694 l 521 694 l 521 781 l 521 868 l 434 868 l 347 868 l 347 1042 l 347 1215 l 260 1215 l 174 1215 l 174 1128 l 174 1042 l 87 1042 l 0 1042 l 0 1128 l 0 1215 l 87 1215 l 174 1215 l 174 1302 z "},"Ώ":{"ha":1389,"x_min":0,"x_max":1389,"o":"m 174 1302 l 174 1389 l 260 1389 l 347 1389 l 347 1302 l 347 1215 l 434 1215 l 521 1215 l 521 1302 l 521 1389 l 781 1389 l 1042 1389 l 1042 1302 l 1042 1215 l 1128 1215 l 1215 1215 l 1215 1128 l 1215 1042 l 1302 1042 l 1389 1042 l 1389 781 l 1389 521 l 1302 521 l 1215 521 l 1215 434 l 1215 347 l 1302 347 l 1389 347 l 1389 260 l 1389 174 l 1128 174 l 868 174 l 868 347 l 868 521 l 955 521 l 1042 521 l 1042 781 l 1042 1042 l 955 1042 l 868 1042 l 868 1128 l 868 1215 l 781 1215 l 694 1215 l 694 1128 l 694 1042 l 608 1042 l 521 1042 l 521 781 l 521 521 l 608 521 l 694 521 l 694 347 l 694 174 l 434 174 l 174 174 l 174 260 l 174 347 l 260 347 l 347 347 l 347 434 l 347 521 l 260 521 l 174 521 l 174 781 l 174 1042 l 87 1042 l 0 1042 l 0 1128 l 0 1215 l 87 1215 l 174 1215 l 174 1302 m 347 1128 l 347 1215 l 260 1215 l 174 1215 l 174 1128 l 174 1042 l 260 1042 l 347 1042 l 347 1128 z "},"ΐ":{"ha":1389,"x_min":0,"x_max":1042,"o":"m 868 1302 l 868 1389 l 955 1389 l 1042 1389 l 1042 1302 l 1042 1215 l 955 1215 l 868 1215 l 868 1302 m 521 1302 l 521 1389 l 608 1389 l 694 1389 l 694 1302 l 694 1215 l 608 1215 l 521 1215 l 521 1128 l 521 1042 l 608 1042 l 694 1042 l 694 694 l 694 347 l 868 347 l 1042 347 l 1042 260 l 1042 174 l 781 174 l 521 174 l 521 260 l 521 347 l 434 347 l 347 347 l 347 608 l 347 868 l 260 868 l 174 868 l 174 955 l 174 1042 l 260 1042 l 347 1042 l 347 1128 l 347 1215 l 434 1215 l 521 1215 l 521 1302 m 0 1302 l 0 1389 l 87 1389 l 174 1389 l 174 1302 l 174 1215 l 87 1215 l 0 1215 l 0 1302 z "},"Α":{"ha":1389,"x_min":0,"x_max":1215,"o":"m 347 1302 l 347 1389 l 608 1389 l 868 1389 l 868 1302 l 868 1215 l 955 1215 l 1042 1215 l 1042 1128 l 1042 1042 l 1128 1042 l 1215 1042 l 1215 608 l 1215 174 l 1042 174 l 868 174 l 868 347 l 868 521 l 608 521 l 347 521 l 347 347 l 347 174 l 174 174 l 0 174 l 0 608 l 0 1042 l 87 1042 l 174 1042 l 174 1128 l 174 1215 l 260 1215 l 347 1215 l 347 1302 m 694 1128 l 694 1215 l 608 1215 l 521 1215 l 521 1128 l 521 1042 l 434 1042 l 347 1042 l 347 868 l 347 694 l 608 694 l 868 694 l 868 868 l 868 1042 l 781 1042 l 694 1042 l 694 1128 z "},"Β":{"ha":1389,"x_min":0,"x_max":1215,"o":"m 0 781 l 0 1389 l 521 1389 l 1042 1389 l 1042 1302 l 1042 1215 l 1128 1215 l 1215 1215 l 1215 1042 l 1215 868 l 1128 868 l 1042 868 l 1042 781 l 1042 694 l 1128 694 l 1215 694 l 1215 521 l 1215 347 l 1128 347 l 1042 347 l 1042 260 l 1042 174 l 521 174 l 0 174 l 0 781 m 868 1042 l 868 1215 l 608 1215 l 347 1215 l 347 1042 l 347 868 l 608 868 l 868 868 l 868 1042 m 868 521 l 868 694 l 608 694 l 347 694 l 347 521 l 347 347 l 608 347 l 868 347 l 868 521 z "},"Γ":{"ha":1389,"x_min":174,"x_max":1215,"o":"m 174 781 l 174 1389 l 694 1389 l 1215 1389 l 1215 1302 l 1215 1215 l 868 1215 l 521 1215 l 521 694 l 521 174 l 347 174 l 174 174 l 174 781 z "},"Δ":{"ha":1389,"x_min":0,"x_max":1215,"o":"m 347 1302 l 347 1389 l 608 1389 l 868 1389 l 868 1302 l 868 1215 l 955 1215 l 1042 1215 l 1042 1128 l 1042 1042 l 1128 1042 l 1215 1042 l 1215 608 l 1215 174 l 608 174 l 0 174 l 0 608 l 0 1042 l 87 1042 l 174 1042 l 174 1128 l 174 1215 l 260 1215 l 347 1215 l 347 1302 m 694 1128 l 694 1215 l 608 1215 l 521 1215 l 521 1128 l 521 1042 l 434 1042 l 347 1042 l 347 694 l 347 347 l 608 347 l 868 347 l 868 694 l 868 1042 l 781 1042 l 694 1042 l 694 1128 z "},"Ε":{"ha":1389,"x_min":0,"x_max":1215,"o":"m 0 781 l 0 1389 l 608 1389 l 1215 1389 l 1215 1302 l 1215 1215 l 781 1215 l 347 1215 l 347 1042 l 347 868 l 694 868 l 1042 868 l 1042 781 l 1042 694 l 694 694 l 347 694 l 347 521 l 347 347 l 781 347 l 1215 347 l 1215 260 l 1215 174 l 608 174 l 0 174 l 0 781 z "},"Ζ":{"ha":1389,"x_min":0,"x_max":1215,"o":"m 0 1302 l 0 1389 l 608 1389 l 1215 1389 l 1215 1215 l 1215 1042 l 1128 1042 l 1042 1042 l 1042 955 l 1042 868 l 955 868 l 868 868 l 868 781 l 868 694 l 781 694 l 694 694 l 694 608 l 694 521 l 608 521 l 521 521 l 521 434 l 521 347 l 868 347 l 1215 347 l 1215 260 l 1215 174 l 608 174 l 0 174 l 0 347 l 0 521 l 87 521 l 174 521 l 174 608 l 174 694 l 260 694 l 347 694 l 347 781 l 347 868 l 434 868 l 521 868 l 521 955 l 521 1042 l 608 1042 l 694 1042 l 694 1128 l 694 1215 l 347 1215 l 0 1215 l 0 1302 z "},"Η":{"ha":1389,"x_min":0,"x_max":1215,"o":"m 0 781 l 0 1389 l 174 1389 l 347 1389 l 347 1128 l 347 868 l 608 868 l 868 868 l 868 1128 l 868 1389 l 1042 1389 l 1215 1389 l 1215 781 l 1215 174 l 1042 174 l 868 174 l 868 434 l 868 694 l 608 694 l 347 694 l 347 434 l 347 174 l 174 174 l 0 174 l 0 781 z "},"Θ":{"ha":1389,"x_min":0,"x_max":1215,"o":"m 174 1302 l 174 1389 l 608 1389 l 1042 1389 l 1042 1302 l 1042 1215 l 1128 1215 l 1215 1215 l 1215 781 l 1215 347 l 1128 347 l 1042 347 l 1042 260 l 1042 174 l 608 174 l 174 174 l 174 260 l 174 347 l 87 347 l 0 347 l 0 781 l 0 1215 l 87 1215 l 174 1215 l 174 1302 m 868 1042 l 868 1215 l 608 1215 l 347 1215 l 347 1042 l 347 868 l 608 868 l 868 868 l 868 1042 m 868 521 l 868 694 l 608 694 l 347 694 l 347 521 l 347 347 l 608 347 l 868 347 l 868 521 z "},"Ι":{"ha":1389,"x_min":174,"x_max":1215,"o":"m 174 1302 l 174 1389 l 694 1389 l 1215 1389 l 1215 1302 l 1215 1215 l 1042 1215 l 868 1215 l 868 781 l 868 347 l 1042 347 l 1215 347 l 1215 260 l 1215 174 l 694 174 l 174 174 l 174 260 l 174 347 l 347 347 l 521 347 l 521 781 l 521 1215 l 347 1215 l 174 1215 l 174 1302 z "},"Κ":{"ha":1389,"x_min":0,"x_max":1215,"o":"m 0 781 l 0 1389 l 174 1389 l 347 1389 l 347 1128 l 347 868 l 434 868 l 521 868 l 521 955 l 521 1042 l 608 1042 l 694 1042 l 694 1128 l 694 1215 l 781 1215 l 868 1215 l 868 1302 l 868 1389 l 1042 1389 l 1215 1389 l 1215 1302 l 1215 1215 l 1128 1215 l 1042 1215 l 1042 1128 l 1042 1042 l 955 1042 l 868 1042 l 868 955 l 868 868 l 781 868 l 694 868 l 694 781 l 694 694 l 781 694 l 868 694 l 868 608 l 868 521 l 955 521 l 1042 521 l 1042 434 l 1042 347 l 1128 347 l 1215 347 l 1215 260 l 1215 174 l 955 174 l 694 174 l 694 260 l 694 347 l 608 347 l 521 347 l 521 434 l 521 521 l 434 521 l 347 521 l 347 347 l 347 174 l 174 174 l 0 174 l 0 781 z "},"Λ":{"ha":1389,"x_min":0,"x_max":1215,"o":"m 347 1302 l 347 1389 l 608 1389 l 868 1389 l 868 1302 l 868 1215 l 955 1215 l 1042 1215 l 1042 1128 l 1042 1042 l 1128 1042 l 1215 1042 l 1215 608 l 1215 174 l 1042 174 l 868 174 l 868 608 l 868 1042 l 781 1042 l 694 1042 l 694 1128 l 694 1215 l 608 1215 l 521 1215 l 521 1128 l 521 1042 l 434 1042 l 347 1042 l 347 608 l 347 174 l 174 174 l 0 174 l 0 608 l 0 1042 l 87 1042 l 174 1042 l 174 1128 l 174 1215 l 260 1215 l 347 1215 l 347 1302 z "},"Μ":{"ha":1389,"x_min":0,"x_max":1215,"o":"m 0 781 l 0 1389 l 174 1389 l 347 1389 l 347 1302 l 347 1215 l 434 1215 l 521 1215 l 521 1128 l 521 1042 l 608 1042 l 694 1042 l 694 1128 l 694 1215 l 781 1215 l 868 1215 l 868 1302 l 868 1389 l 1042 1389 l 1215 1389 l 1215 781 l 1215 174 l 1042 174 l 868 174 l 868 434 l 868 694 l 781 694 l 694 694 l 694 608 l 694 521 l 608 521 l 521 521 l 521 608 l 521 694 l 434 694 l 347 694 l 347 434 l 347 174 l 174 174 l 0 174 l 0 781 z "},"Ν":{"ha":1389,"x_min":0,"x_max":1215,"o":"m 0 781 l 0 1389 l 174 1389 l 347 1389 l 347 1302 l 347 1215 l 434 1215 l 521 1215 l 521 1128 l 521 1042 l 608 1042 l 694 1042 l 694 955 l 694 868 l 781 868 l 868 868 l 868 1128 l 868 1389 l 1042 1389 l 1215 1389 l 1215 781 l 1215 174 l 1042 174 l 868 174 l 868 260 l 868 347 l 781 347 l 694 347 l 694 434 l 694 521 l 608 521 l 521 521 l 521 608 l 521 694 l 434 694 l 347 694 l 347 434 l 347 174 l 174 174 l 0 174 l 0 781 z "},"Ξ":{"ha":1389,"x_min":0,"x_max":1215,"o":"m 0 260 l 0 347 l 608 347 l 1215 347 l 1215 260 l 1215 174 l 608 174 l 0 174 l 0 260 m 174 781 l 174 868 l 608 868 l 1042 868 l 1042 781 l 1042 694 l 608 694 l 174 694 l 174 781 m 0 1302 l 0 1389 l 608 1389 l 1215 1389 l 1215 1302 l 1215 1215 l 608 1215 l 0 1215 l 0 1302 z "},"Ο":{"ha":1389,"x_min":0,"x_max":1215,"o":"m 174 1302 l 174 1389 l 608 1389 l 1042 1389 l 1042 1302 l 1042 1215 l 1128 1215 l 1215 1215 l 1215 781 l 1215 347 l 1128 347 l 1042 347 l 1042 260 l 1042 174 l 608 174 l 174 174 l 174 260 l 174 347 l 87 347 l 0 347 l 0 781 l 0 1215 l 87 1215 l 174 1215 l 174 1302 m 868 781 l 868 1215 l 608 1215 l 347 1215 l 347 781 l 347 347 l 608 347 l 868 347 l 868 781 z "},"Π":{"ha":1389,"x_min":0,"x_max":1215,"o":"m 0 781 l 0 1389 l 608 1389 l 1215 1389 l 1215 781 l 1215 174 l 1042 174 l 868 174 l 868 694 l 868 1215 l 608 1215 l 347 1215 l 347 694 l 347 174 l 174 174 l 0 174 l 0 781 z "},"Ρ":{"ha":1389,"x_min":0,"x_max":1215,"o":"m 0 781 l 0 1389 l 521 1389 l 1042 1389 l 1042 1302 l 1042 1215 l 1128 1215 l 1215 1215 l 1215 955 l 1215 694 l 1128 694 l 1042 694 l 1042 608 l 1042 521 l 694 521 l 347 521 l 347 347 l 347 174 l 174 174 l 0 174 l 0 781 m 868 955 l 868 1215 l 608 1215 l 347 1215 l 347 955 l 347 694 l 608 694 l 868 694 l 868 955 z "},"Σ":{"ha":1389,"x_min":0,"x_max":1215,"o":"m 0 1302 l 0 1389 l 608 1389 l 1215 1389 l 1215 1215 l 1215 1042 l 1042 1042 l 868 1042 l 868 1128 l 868 1215 l 694 1215 l 521 1215 l 521 1128 l 521 1042 l 608 1042 l 694 1042 l 694 955 l 694 868 l 868 868 l 1042 868 l 1042 781 l 1042 694 l 868 694 l 694 694 l 694 608 l 694 521 l 608 521 l 521 521 l 521 434 l 521 347 l 694 347 l 868 347 l 868 434 l 868 521 l 1042 521 l 1215 521 l 1215 347 l 1215 174 l 608 174 l 0 174 l 0 260 l 0 347 l 87 347 l 174 347 l 174 434 l 174 521 l 260 521 l 347 521 l 347 608 l 347 694 l 434 694 l 521 694 l 521 781 l 521 868 l 434 868 l 347 868 l 347 955 l 347 1042 l 260 1042 l 174 1042 l 174 1128 l 174 1215 l 87 1215 l 0 1215 l 0 1302 z "},"Τ":{"ha":1389,"x_min":174,"x_max":1215,"o":"m 174 1302 l 174 1389 l 694 1389 l 1215 1389 l 1215 1302 l 1215 1215 l 1042 1215 l 868 1215 l 868 694 l 868 174 l 694 174 l 521 174 l 521 694 l 521 1215 l 347 1215 l 174 1215 l 174 1302 z "},"Υ":{"ha":1389,"x_min":174,"x_max":1215,"o":"m 174 1128 l 174 1389 l 347 1389 l 521 1389 l 521 1128 l 521 868 l 694 868 l 868 868 l 868 1128 l 868 1389 l 1042 1389 l 1215 1389 l 1215 1128 l 1215 868 l 1128 868 l 1042 868 l 1042 781 l 1042 694 l 955 694 l 868 694 l 868 434 l 868 174 l 694 174 l 521 174 l 521 434 l 521 694 l 434 694 l 347 694 l 347 781 l 347 868 l 260 868 l 174 868 l 174 1128 z "},"Φ":{"ha":1389,"x_min":0,"x_max":1215,"o":"m 521 1302 l 521 1389 l 608 1389 l 694 1389 l 694 1302 l 694 1215 l 868 1215 l 1042 1215 l 1042 1128 l 1042 1042 l 1128 1042 l 1215 1042 l 1215 781 l 1215 521 l 1128 521 l 1042 521 l 1042 434 l 1042 347 l 868 347 l 694 347 l 694 260 l 694 174 l 608 174 l 521 174 l 521 260 l 521 347 l 347 347 l 174 347 l 174 434 l 174 521 l 87 521 l 0 521 l 0 781 l 0 1042 l 87 1042 l 174 1042 l 174 1128 l 174 1215 l 347 1215 l 521 1215 l 521 1302 m 521 781 l 521 1042 l 434 1042 l 347 1042 l 347 781 l 347 521 l 434 521 l 521 521 l 521 781 m 868 781 l 868 1042 l 781 1042 l 694 1042 l 694 781 l 694 521 l 781 521 l 868 521 l 868 781 z "},"Χ":{"ha":1389,"x_min":0,"x_max":1215,"o":"m 0 1215 l 0 1389 l 174 1389 l 347 1389 l 347 1302 l 347 1215 l 434 1215 l 521 1215 l 521 1128 l 521 1042 l 608 1042 l 694 1042 l 694 1128 l 694 1215 l 781 1215 l 868 1215 l 868 1302 l 868 1389 l 1042 1389 l 1215 1389 l 1215 1215 l 1215 1042 l 1128 1042 l 1042 1042 l 1042 955 l 1042 868 l 955 868 l 868 868 l 868 781 l 868 694 l 955 694 l 1042 694 l 1042 608 l 1042 521 l 1128 521 l 1215 521 l 1215 347 l 1215 174 l 1042 174 l 868 174 l 868 260 l 868 347 l 781 347 l 694 347 l 694 434 l 694 521 l 608 521 l 521 521 l 521 434 l 521 347 l 434 347 l 347 347 l 347 260 l 347 174 l 174 174 l 0 174 l 0 347 l 0 521 l 87 521 l 174 521 l 174 608 l 174 694 l 260 694 l 347 694 l 347 781 l 347 868 l 260 868 l 174 868 l 174 955 l 174 1042 l 87 1042 l 0 1042 l 0 1215 z "},"Ψ":{"ha":1389,"x_min":0,"x_max":1389,"o":"m 0 1128 l 0 1389 l 174 1389 l 347 1389 l 347 1128 l 347 868 l 434 868 l 521 868 l 521 1128 l 521 1389 l 694 1389 l 868 1389 l 868 1128 l 868 868 l 955 868 l 1042 868 l 1042 1128 l 1042 1389 l 1215 1389 l 1389 1389 l 1389 1128 l 1389 868 l 1302 868 l 1215 868 l 1215 781 l 1215 694 l 1042 694 l 868 694 l 868 521 l 868 347 l 955 347 l 1042 347 l 1042 260 l 1042 174 l 694 174 l 347 174 l 347 260 l 347 347 l 434 347 l 521 347 l 521 521 l 521 694 l 347 694 l 174 694 l 174 781 l 174 868 l 87 868 l 0 868 l 0 1128 z "},"Ω":{"ha":1389,"x_min":0,"x_max":1215,"o":"m 347 1302 l 347 1389 l 608 1389 l 868 1389 l 868 1302 l 868 1215 l 955 1215 l 1042 1215 l 1042 1128 l 1042 1042 l 1128 1042 l 1215 1042 l 1215 781 l 1215 521 l 1128 521 l 1042 521 l 1042 434 l 1042 347 l 1128 347 l 1215 347 l 1215 260 l 1215 174 l 955 174 l 694 174 l 694 347 l 694 521 l 781 521 l 868 521 l 868 781 l 868 1042 l 781 1042 l 694 1042 l 694 1128 l 694 1215 l 608 1215 l 521 1215 l 521 1128 l 521 1042 l 434 1042 l 347 1042 l 347 781 l 347 521 l 434 521 l 521 521 l 521 347 l 521 174 l 260 174 l 0 174 l 0 260 l 0 347 l 87 347 l 174 347 l 174 434 l 174 521 l 87 521 l 0 521 l 0 781 l 0 1042 l 87 1042 l 174 1042 l 174 1128 l 174 1215 l 260 1215 l 347 1215 l 347 1302 z "},"Ϊ":{"ha":1389,"x_min":174,"x_max":1215,"o":"m 174 955 l 174 1042 l 694 1042 l 1215 1042 l 1215 955 l 1215 868 l 1042 868 l 868 868 l 868 608 l 868 347 l 1042 347 l 1215 347 l 1215 260 l 1215 174 l 694 174 l 174 174 l 174 260 l 174 347 l 347 347 l 521 347 l 521 608 l 521 868 l 347 868 l 174 868 l 174 955 m 868 1302 l 868 1389 l 1042 1389 l 1215 1389 l 1215 1302 l 1215 1215 l 1042 1215 l 868 1215 l 868 1302 m 174 1302 l 174 1389 l 347 1389 l 521 1389 l 521 1302 l 521 1215 l 347 1215 l 174 1215 l 174 1302 z "},"Ϋ":{"ha":1389,"x_min":174,"x_max":1215,"o":"m 174 868 l 174 1042 l 347 1042 l 521 1042 l 521 868 l 521 694 l 694 694 l 868 694 l 868 868 l 868 1042 l 1042 1042 l 1215 1042 l 1215 868 l 1215 694 l 1128 694 l 1042 694 l 1042 608 l 1042 521 l 955 521 l 868 521 l 868 347 l 868 174 l 694 174 l 521 174 l 521 347 l 521 521 l 434 521 l 347 521 l 347 608 l 347 694 l 260 694 l 174 694 l 174 868 m 868 1302 l 868 1389 l 1042 1389 l 1215 1389 l 1215 1302 l 1215 1215 l 1042 1215 l 868 1215 l 868 1302 m 174 1302 l 174 1389 l 347 1389 l 521 1389 l 521 1302 l 521 1215 l 347 1215 l 174 1215 l 174 1302 z "},"ά":{"ha":1389,"x_min":0,"x_max":1215,"o":"m 694 1302 l 694 1389 l 781 1389 l 868 1389 l 868 1302 l 868 1215 l 781 1215 l 694 1215 l 694 1128 l 694 1042 l 955 1042 l 1215 1042 l 1215 608 l 1215 174 l 694 174 l 174 174 l 174 260 l 174 347 l 87 347 l 0 347 l 0 608 l 0 868 l 87 868 l 174 868 l 174 955 l 174 1042 l 347 1042 l 521 1042 l 521 1128 l 521 1215 l 608 1215 l 694 1215 l 694 1302 m 868 608 l 868 868 l 608 868 l 347 868 l 347 608 l 347 347 l 608 347 l 868 347 l 868 608 z "},"έ":{"ha":1389,"x_min":0,"x_max":1215,"o":"m 694 1302 l 694 1389 l 781 1389 l 868 1389 l 868 1302 l 868 1215 l 781 1215 l 694 1215 l 694 1128 l 694 1042 l 955 1042 l 1215 1042 l 1215 955 l 1215 868 l 781 868 l 347 868 l 347 781 l 347 694 l 694 694 l 1042 694 l 1042 608 l 1042 521 l 694 521 l 347 521 l 347 434 l 347 347 l 781 347 l 1215 347 l 1215 260 l 1215 174 l 694 174 l 174 174 l 174 260 l 174 347 l 87 347 l 0 347 l 0 434 l 0 521 l 87 521 l 174 521 l 174 608 l 174 694 l 87 694 l 0 694 l 0 781 l 0 868 l 87 868 l 174 868 l 174 955 l 174 1042 l 347 1042 l 521 1042 l 521 1128 l 521 1215 l 608 1215 l 694 1215 l 694 1302 z "},"ή":{"ha":1389,"x_min":0,"x_max":1215,"o":"m 694 1302 l 694 1389 l 781 1389 l 868 1389 l 868 1302 l 868 1215 l 781 1215 l 694 1215 l 694 1128 l 694 1042 l 868 1042 l 1042 1042 l 1042 955 l 1042 868 l 1128 868 l 1215 868 l 1215 434 l 1215 0 l 1042 0 l 868 0 l 868 434 l 868 868 l 694 868 l 521 868 l 521 521 l 521 174 l 347 174 l 174 174 l 174 521 l 174 868 l 87 868 l 0 868 l 0 955 l 0 1042 l 174 1042 l 347 1042 l 347 955 l 347 868 l 434 868 l 521 868 l 521 1042 l 521 1215 l 608 1215 l 694 1215 l 694 1302 z "},"ί":{"ha":1389,"x_min":174,"x_max":1042,"o":"m 521 1302 l 521 1389 l 608 1389 l 694 1389 l 694 1302 l 694 1215 l 608 1215 l 521 1215 l 521 1128 l 521 1042 l 608 1042 l 694 1042 l 694 694 l 694 347 l 868 347 l 1042 347 l 1042 260 l 1042 174 l 781 174 l 521 174 l 521 260 l 521 347 l 434 347 l 347 347 l 347 608 l 347 868 l 260 868 l 174 868 l 174 955 l 174 1042 l 260 1042 l 347 1042 l 347 1128 l 347 1215 l 434 1215 l 521 1215 l 521 1302 z "},"ΰ":{"ha":1389,"x_min":0,"x_max":1215,"o":"m 868 1302 l 868 1389 l 955 1389 l 1042 1389 l 1042 1302 l 1042 1215 l 955 1215 l 868 1215 l 868 1302 m 521 1302 l 521 1389 l 608 1389 l 694 1389 l 694 1302 l 694 1215 l 608 1215 l 521 1215 l 521 1128 l 521 1042 l 434 1042 l 347 1042 l 347 955 l 347 868 l 434 868 l 521 868 l 521 608 l 521 347 l 694 347 l 868 347 l 868 608 l 868 868 l 781 868 l 694 868 l 694 955 l 694 1042 l 868 1042 l 1042 1042 l 1042 955 l 1042 868 l 1128 868 l 1215 868 l 1215 608 l 1215 347 l 1128 347 l 1042 347 l 1042 260 l 1042 174 l 694 174 l 347 174 l 347 260 l 347 347 l 260 347 l 174 347 l 174 608 l 174 868 l 87 868 l 0 868 l 0 955 l 0 1042 l 174 1042 l 347 1042 l 347 1128 l 347 1215 l 434 1215 l 521 1215 l 521 1302 m 0 1302 l 0 1389 l 87 1389 l 174 1389 l 174 1302 l 174 1215 l 87 1215 l 0 1215 l 0 1302 z "},"α":{"ha":1389,"x_min":0,"x_max":1215,"o":"m 174 955 l 174 1042 l 694 1042 l 1215 1042 l 1215 608 l 1215 174 l 694 174 l 174 174 l 174 260 l 174 347 l 87 347 l 0 347 l 0 608 l 0 868 l 87 868 l 174 868 l 174 955 m 868 608 l 868 868 l 608 868 l 347 868 l 347 608 l 347 347 l 608 347 l 868 347 l 868 608 z "},"β":{"ha":1389,"x_min":0,"x_max":1215,"o":"m 174 1302 l 174 1389 l 608 1389 l 1042 1389 l 1042 1302 l 1042 1215 l 1128 1215 l 1215 1215 l 1215 1042 l 1215 868 l 1128 868 l 1042 868 l 1042 781 l 1042 694 l 1128 694 l 1215 694 l 1215 521 l 1215 347 l 1128 347 l 1042 347 l 1042 260 l 1042 174 l 694 174 l 347 174 l 347 87 l 347 0 l 174 0 l 0 0 l 0 608 l 0 1215 l 87 1215 l 174 1215 l 174 1302 m 868 1042 l 868 1215 l 608 1215 l 347 1215 l 347 1042 l 347 868 l 608 868 l 868 868 l 868 1042 m 868 521 l 868 694 l 608 694 l 347 694 l 347 521 l 347 347 l 608 347 l 868 347 l 868 521 z "},"γ":{"ha":1389,"x_min":0,"x_max":1215,"o":"m 0 955 l 0 1042 l 174 1042 l 347 1042 l 347 955 l 347 868 l 434 868 l 521 868 l 521 694 l 521 521 l 694 521 l 868 521 l 868 781 l 868 1042 l 1042 1042 l 1215 1042 l 1215 781 l 1215 521 l 1128 521 l 1042 521 l 1042 434 l 1042 347 l 955 347 l 868 347 l 868 174 l 868 0 l 694 0 l 521 0 l 521 174 l 521 347 l 434 347 l 347 347 l 347 434 l 347 521 l 260 521 l 174 521 l 174 694 l 174 868 l 87 868 l 0 868 l 0 955 z "},"δ":{"ha":1389,"x_min":0,"x_max":1215,"o":"m 694 1302 l 694 1389 l 955 1389 l 1215 1389 l 1215 1302 l 1215 1215 l 1042 1215 l 868 1215 l 868 1128 l 868 1042 l 955 1042 l 1042 1042 l 1042 955 l 1042 868 l 1128 868 l 1215 868 l 1215 608 l 1215 347 l 1128 347 l 1042 347 l 1042 260 l 1042 174 l 608 174 l 174 174 l 174 260 l 174 347 l 87 347 l 0 347 l 0 521 l 0 694 l 87 694 l 174 694 l 174 781 l 174 868 l 434 868 l 694 868 l 694 955 l 694 1042 l 608 1042 l 521 1042 l 521 1128 l 521 1215 l 608 1215 l 694 1215 l 694 1302 m 868 521 l 868 694 l 608 694 l 347 694 l 347 521 l 347 347 l 608 347 l 868 347 l 868 521 z "},"ε":{"ha":1389,"x_min":0,"x_max":1215,"o":"m 174 955 l 174 1042 l 694 1042 l 1215 1042 l 1215 955 l 1215 868 l 781 868 l 347 868 l 347 781 l 347 694 l 694 694 l 1042 694 l 1042 608 l 1042 521 l 694 521 l 347 521 l 347 434 l 347 347 l 781 347 l 1215 347 l 1215 260 l 1215 174 l 694 174 l 174 174 l 174 260 l 174 347 l 87 347 l 0 347 l 0 434 l 0 521 l 87 521 l 174 521 l 174 608 l 174 694 l 87 694 l 0 694 l 0 781 l 0 868 l 87 868 l 174 868 l 174 955 z "},"ζ":{"ha":1389,"x_min":0,"x_max":1215,"o":"m 174 1302 l 174 1389 l 608 1389 l 1042 1389 l 1042 1302 l 1042 1215 l 868 1215 l 694 1215 l 694 1128 l 694 1042 l 608 1042 l 521 1042 l 521 955 l 521 868 l 434 868 l 347 868 l 347 694 l 347 521 l 694 521 l 1042 521 l 1042 434 l 1042 347 l 1128 347 l 1215 347 l 1215 260 l 1215 174 l 1128 174 l 1042 174 l 1042 87 l 1042 0 l 868 0 l 694 0 l 694 87 l 694 174 l 781 174 l 868 174 l 868 260 l 868 347 l 521 347 l 174 347 l 174 434 l 174 521 l 87 521 l 0 521 l 0 694 l 0 868 l 87 868 l 174 868 l 174 955 l 174 1042 l 260 1042 l 347 1042 l 347 1128 l 347 1215 l 260 1215 l 174 1215 l 174 1302 z "},"η":{"ha":1389,"x_min":0,"x_max":1215,"o":"m 0 955 l 0 1042 l 174 1042 l 347 1042 l 347 955 l 347 868 l 434 868 l 521 868 l 521 955 l 521 1042 l 781 1042 l 1042 1042 l 1042 955 l 1042 868 l 1128 868 l 1215 868 l 1215 434 l 1215 0 l 1042 0 l 868 0 l 868 434 l 868 868 l 694 868 l 521 868 l 521 521 l 521 174 l 347 174 l 174 174 l 174 521 l 174 868 l 87 868 l 0 868 l 0 955 z "},"θ":{"ha":1389,"x_min":0,"x_max":1215,"o":"m 347 1302 l 347 1389 l 608 1389 l 868 1389 l 868 1302 l 868 1215 l 955 1215 l 1042 1215 l 1042 1128 l 1042 1042 l 1128 1042 l 1215 1042 l 1215 781 l 1215 521 l 1128 521 l 1042 521 l 1042 434 l 1042 347 l 955 347 l 868 347 l 868 260 l 868 174 l 608 174 l 347 174 l 347 260 l 347 347 l 260 347 l 174 347 l 174 434 l 174 521 l 87 521 l 0 521 l 0 781 l 0 1042 l 87 1042 l 174 1042 l 174 1128 l 174 1215 l 260 1215 l 347 1215 l 347 1302 m 694 1128 l 694 1215 l 608 1215 l 521 1215 l 521 1128 l 521 1042 l 434 1042 l 347 1042 l 347 955 l 347 868 l 608 868 l 868 868 l 868 955 l 868 1042 l 781 1042 l 694 1042 l 694 1128 m 868 608 l 868 694 l 608 694 l 347 694 l 347 608 l 347 521 l 434 521 l 521 521 l 521 434 l 521 347 l 608 347 l 694 347 l 694 434 l 694 521 l 781 521 l 868 521 l 868 608 z "},"ι":{"ha":1389,"x_min":174,"x_max":1042,"o":"m 174 955 l 174 1042 l 434 1042 l 694 1042 l 694 694 l 694 347 l 868 347 l 1042 347 l 1042 260 l 1042 174 l 781 174 l 521 174 l 521 260 l 521 347 l 434 347 l 347 347 l 347 608 l 347 868 l 260 868 l 174 868 l 174 955 z "},"κ":{"ha":1389,"x_min":0,"x_max":1215,"o":"m 0 608 l 0 1042 l 174 1042 l 347 1042 l 347 868 l 347 694 l 521 694 l 694 694 l 694 781 l 694 868 l 781 868 l 868 868 l 868 955 l 868 1042 l 1042 1042 l 1215 1042 l 1215 955 l 1215 868 l 1128 868 l 1042 868 l 1042 781 l 1042 694 l 955 694 l 868 694 l 868 608 l 868 521 l 955 521 l 1042 521 l 1042 434 l 1042 347 l 1128 347 l 1215 347 l 1215 260 l 1215 174 l 1042 174 l 868 174 l 868 260 l 868 347 l 781 347 l 694 347 l 694 434 l 694 521 l 521 521 l 347 521 l 347 347 l 347 174 l 174 174 l 0 174 l 0 608 z "},"λ":{"ha":1389,"x_min":0,"x_max":1215,"o":"m 0 1302 l 0 1389 l 174 1389 l 347 1389 l 347 1302 l 347 1215 l 434 1215 l 521 1215 l 521 1128 l 521 1042 l 608 1042 l 694 1042 l 694 955 l 694 868 l 781 868 l 868 868 l 868 781 l 868 694 l 955 694 l 1042 694 l 1042 608 l 1042 521 l 1128 521 l 1215 521 l 1215 347 l 1215 174 l 1042 174 l 868 174 l 868 347 l 868 521 l 781 521 l 694 521 l 694 608 l 694 694 l 608 694 l 521 694 l 521 608 l 521 521 l 434 521 l 347 521 l 347 347 l 347 174 l 174 174 l 0 174 l 0 347 l 0 521 l 87 521 l 174 521 l 174 608 l 174 694 l 260 694 l 347 694 l 347 868 l 347 1042 l 260 1042 l 174 1042 l 174 1128 l 174 1215 l 87 1215 l 0 1215 l 0 1302 z "},"μ":{"ha":1389,"x_min":0,"x_max":1215,"o":"m 0 521 l 0 1042 l 174 1042 l 347 1042 l 347 694 l 347 347 l 521 347 l 694 347 l 694 694 l 694 1042 l 868 1042 l 1042 1042 l 1042 694 l 1042 347 l 1128 347 l 1215 347 l 1215 260 l 1215 174 l 1042 174 l 868 174 l 868 260 l 868 347 l 781 347 l 694 347 l 694 260 l 694 174 l 521 174 l 347 174 l 347 87 l 347 0 l 174 0 l 0 0 l 0 521 z "},"ν":{"ha":1389,"x_min":0,"x_max":1215,"o":"m 0 955 l 0 1042 l 174 1042 l 347 1042 l 347 955 l 347 868 l 434 868 l 521 868 l 521 694 l 521 521 l 694 521 l 868 521 l 868 781 l 868 1042 l 1042 1042 l 1215 1042 l 1215 781 l 1215 521 l 1128 521 l 1042 521 l 1042 434 l 1042 347 l 955 347 l 868 347 l 868 260 l 868 174 l 694 174 l 521 174 l 521 260 l 521 347 l 434 347 l 347 347 l 347 434 l 347 521 l 260 521 l 174 521 l 174 694 l 174 868 l 87 868 l 0 868 l 0 955 z "}}}
